{"glyphs":{"0":{"ha":772,"x_min":40,"x_max":718,"o":"m 379 1006 q 643 868 553 1006 l 649 860 q 718 481 718 747 q 635 94 718 207 q 379 -32 542 -32 q 119 100 211 -32 q 110 114 114 107 q 40 486 40 228 q 124 879 40 768 q 379 1006 215 1006 m 379 849 q 260 756 294 849 q 235 488 235 683 q 265 211 235 276 q 379 135 301 135 q 499 225 464 135 q 524 485 524 294 q 493 769 524 704 q 379 849 457 849 z "},"1":{"ha":772,"x_min":94,"x_max":525,"o":"m 331 679 l 94 679 l 94 808 q 396 985 350 808 l 525 985 l 525 0 l 331 0 l 331 679 z "},"2":{"ha":772,"x_min":42,"x_max":715,"o":"m 711 174 l 711 0 l 42 0 q 121 253 50 161 q 269 383 168 314 q 486 565 443 507 q 521 689 521 614 q 436 838 521 806 q 382 847 411 847 q 249 740 276 847 q 242 674 242 710 l 242 642 l 56 642 q 54 676 54 657 q 208 969 54 892 q 378 1006 281 1006 q 663 876 572 1006 q 715 693 715 800 q 646 493 715 575 q 494 360 599 436 q 318 213 350 254 q 294 174 306 196 l 711 174 z "},"3":{"ha":772,"x_min":40,"x_max":717,"o":"m 301 440 l 301 571 l 318 571 q 490 719 490 571 q 401 846 490 826 q 368 849 386 849 q 251 786 283 849 q 249 779 250 783 q 233 675 235 744 l 53 675 l 53 692 q 110 894 53 824 q 372 1006 196 1006 q 640 889 558 1006 q 685 738 685 825 q 585 547 685 621 l 556 528 q 714 322 699 458 q 717 283 717 304 q 583 24 717 108 l 535 -1 q 372 -32 463 -32 q 93 100 181 -32 q 40 289 42 178 l 229 289 q 376 135 238 135 q 503 206 463 135 q 522 283 522 240 q 450 417 522 375 q 415 431 433 425 q 301 440 376 440 z "},"4":{"ha":772,"x_min":33,"x_max":725,"o":"m 725 379 l 725 218 l 622 218 l 622 0 l 428 0 l 428 218 l 33 218 l 33 382 l 393 985 l 622 985 l 622 379 l 725 379 m 428 379 l 428 800 l 171 379 l 428 379 z "},"5":{"ha":772,"x_min":38,"x_max":718,"o":"m 679 985 l 679 811 l 272 811 l 240 606 q 411 665 319 665 q 656 542 569 665 q 718 325 718 453 q 590 42 718 142 q 363 -32 497 -32 q 96 83 186 -32 q 38 257 39 156 l 229 257 q 365 135 249 142 q 508 232 471 135 q 524 321 524 271 q 429 499 524 460 l 390 510 q 365 511 378 511 q 240 436 272 511 l 65 436 l 153 985 l 679 985 z "},"6":{"ha":772,"x_min":44,"x_max":721,"o":"m 704 761 l 524 761 q 432 846 493 836 q 403 849 419 849 q 264 749 303 849 l 251 707 q 239 561 243 665 q 407 647 314 640 q 435 649 419 649 q 664 531 585 649 q 721 329 721 447 q 600 40 721 140 q 392 -32 514 -32 q 144 75 238 -32 q 115 114 128 93 q 44 468 44 226 q 114 831 44 703 q 126 853 119 842 q 390 1006 214 997 q 408 1006 400 1006 q 647 906 564 1006 l 657 893 q 704 761 692 843 m 388 496 q 256 410 296 496 q 236 313 236 368 q 310 156 236 203 q 386 135 344 135 q 513 215 469 135 q 536 317 536 260 q 457 479 536 436 q 388 496 426 496 z "},"7":{"ha":772,"x_min":40,"x_max":733,"o":"m 733 985 l 733 832 q 421 267 494 543 q 381 0 389 143 l 185 0 q 296 444 218 267 q 314 482 304 463 q 474 742 363 589 q 531 811 508 786 l 40 811 l 40 985 l 733 985 z "},"8":{"ha":772,"x_min":31,"x_max":729,"o":"m 568 536 q 724 347 701 465 q 729 283 729 318 q 604 35 729 124 q 381 -32 513 -32 q 100 86 197 -32 q 31 283 31 168 q 139 504 31 425 q 192 536 163 521 q 65 703 79 596 q 64 738 64 719 q 176 947 64 871 q 381 1006 263 1006 q 633 904 543 1006 l 661 867 q 696 754 692 815 q 696 739 696 747 q 632 578 696 638 q 568 536 613 560 m 382 849 q 249 781 286 849 q 235 721 235 753 q 308 606 235 640 q 382 590 342 590 q 511 656 472 590 q 528 719 528 685 q 454 833 528 800 q 382 849 424 849 m 379 458 q 240 374 278 458 q 225 294 225 339 q 308 149 225 186 q 379 135 340 135 q 519 215 481 135 q 535 292 535 250 q 447 446 535 408 q 379 458 417 458 z "},"9":{"ha":772,"x_min":39,"x_max":717,"o":"m 53 229 l 240 229 q 314 140 246 161 q 360 133 335 133 q 522 414 522 133 q 461 353 479 365 q 333 317 411 317 q 99 442 181 317 q 39 658 39 531 q 161 936 39 839 q 371 1006 247 1006 q 649 844 553 1006 q 717 514 717 732 q 642 132 717 272 q 635 119 639 125 q 354 -33 546 -33 q 115 67 203 -33 q 53 229 56 136 m 365 847 q 239 753 274 847 l 226 704 q 224 661 224 683 q 307 492 224 532 q 368 478 335 478 q 499 563 458 478 q 518 658 518 604 q 433 832 518 788 q 365 847 403 847 z "},"\r":{"ha":463,"x_min":0,"x_max":0,"o":""}," ":{"ha":386,"x_min":0,"x_max":0,"o":""},"!":{"ha":463,"x_min":156,"x_max":364,"o":"m 364 1008 l 364 717 l 306 288 l 213 288 l 156 717 l 156 1008 l 364 1008 m 364 203 l 364 0 l 156 0 l 156 203 l 364 203 z "},"\"":{"ha":658,"x_min":69,"x_max":589,"o":"m 261 1013 l 261 832 l 203 653 l 125 653 l 69 832 l 69 1013 l 261 1013 m 589 1013 l 589 832 l 531 653 l 453 653 l 397 832 l 397 1013 l 589 1013 z "},"#":{"ha":772,"x_min":4,"x_max":768,"o":"m 203 -44 l 56 -44 l 111 239 l 4 239 l 4 376 l 139 376 l 181 589 l 43 589 l 43 726 l 208 726 l 256 968 l 401 968 l 354 726 l 497 726 l 544 968 l 690 968 l 643 726 l 768 726 l 768 589 l 617 589 l 574 376 l 713 376 l 713 239 l 547 239 l 492 -44 l 346 -44 l 401 239 l 258 239 l 203 -44 m 285 376 l 428 376 l 469 589 l 326 589 l 285 376 z "},"$":{"ha":772,"x_min":31,"x_max":732,"o":"m 718 692 l 540 692 l 538 739 q 439 843 519 828 q 432 844 435 844 l 432 565 q 701 401 644 507 q 732 271 732 347 q 638 46 732 126 q 613 28 625 36 q 432 -29 542 -17 l 432 -175 l 338 -175 l 338 -29 q 150 35 224 -18 q 31 275 31 119 l 31 288 l 213 288 q 338 119 219 140 l 338 415 q 54 711 54 481 q 200 949 54 879 q 338 985 258 978 l 338 1060 l 432 1060 l 432 985 q 683 840 611 975 l 703 792 q 718 692 717 746 m 338 593 l 338 844 q 225 717 225 822 q 325 597 225 633 q 338 593 331 596 m 432 392 l 432 119 q 549 254 549 149 q 432 392 549 356 z "},"%":{"ha":1235,"x_min":31,"x_max":1199,"o":"m 286 974 q 486 879 410 974 q 536 769 525 831 q 542 718 542 744 q 450 528 542 604 q 286 468 378 468 q 90 560 167 468 q 31 721 31 631 q 124 915 31 839 q 286 974 194 974 m 286 836 q 185 779 219 836 q 168 721 168 753 q 225 621 168 656 q 286 604 253 604 q 388 661 351 604 q 404 719 404 688 q 344 821 404 788 q 286 836 318 836 m 842 985 l 947 985 l 399 -28 l 292 -28 l 842 985 m 943 489 q 1143 393 1068 489 q 1199 232 1199 324 q 1107 42 1199 118 q 943 -18 1035 -18 q 747 74 824 -18 q 688 236 688 144 q 781 431 688 354 q 943 489 851 489 m 943 351 q 842 294 876 351 q 825 235 825 267 q 882 135 825 169 q 943 118 910 118 q 1044 175 1008 118 q 1061 233 1061 201 q 1004 335 1061 300 l 972 347 q 943 351 958 351 z "},"&":{"ha":1003,"x_min":76,"x_max":964,"o":"m 731 518 l 888 518 l 888 503 l 888 496 q 814 242 883 347 q 793 214 804 226 l 964 0 l 740 0 l 676 78 q 467 -28 556 -14 q 406 -32 439 -32 q 135 86 225 -32 q 76 268 76 161 q 160 468 76 392 q 294 557 207 511 q 278 578 282 574 l 239 625 q 181 772 181 694 q 278 954 181 886 q 443 1004 349 1004 q 657 907 592 1004 l 676 868 q 690 789 690 832 q 621 619 690 690 q 528 544 588 586 l 689 344 q 731 504 731 424 l 731 518 m 386 443 l 321 403 q 261 292 261 363 q 324 163 261 215 q 408 129 364 129 q 575 206 475 129 l 386 443 m 440 653 q 524 772 524 699 q 444 853 511 846 q 368 808 385 853 q 364 786 364 799 q 390 717 364 754 l 440 653 z "},"'":{"ha":331,"x_min":69,"x_max":261,"o":"m 261 1013 l 261 832 l 203 653 l 125 653 l 69 832 l 69 1013 l 261 1013 z "},"(":{"ha":463,"x_min":56,"x_max":421,"o":"m 282 1013 l 421 1013 q 240 539 271 724 q 226 368 226 458 q 307 -35 226 168 q 421 -278 347 -136 l 282 -278 q 61 258 90 11 q 56 368 56 311 q 207 890 56 625 q 282 1013 240 949 z "},")":{"ha":463,"x_min":31,"x_max":396,"o":"m 169 -278 l 31 -278 q 211 196 181 11 q 225 367 225 276 q 144 769 225 567 q 31 1013 104 871 l 169 1013 q 390 476 361 724 q 396 367 396 424 q 244 -156 396 110 q 169 -278 211 -214 z "},"*":{"ha":540,"x_min":32,"x_max":496,"o":"m 183 756 l 32 806 l 63 901 l 214 851 l 214 1013 l 314 1013 l 314 851 l 465 901 l 496 804 l 344 756 l 438 625 l 357 565 l 264 696 l 171 565 l 90 625 l 183 756 z "},"+":{"ha":811,"x_min":69,"x_max":740,"o":"m 740 404 l 740 239 l 488 239 l 488 -14 l 322 -14 l 322 239 l 69 239 l 69 404 l 322 404 l 322 657 l 488 657 l 488 404 l 740 404 z "},",":{"ha":386,"x_min":89,"x_max":297,"o":"m 89 203 l 297 203 l 297 13 q 250 -165 297 -112 q 222 -190 238 -178 q 89 -242 168 -232 l 89 -164 q 207 -36 194 -142 q 208 -4 208 -21 l 208 0 l 89 0 l 89 203 z "},"-":{"ha":463,"x_min":36,"x_max":414,"o":"m 414 475 l 414 288 l 36 288 l 36 475 l 414 475 z "},".":{"ha":386,"x_min":89,"x_max":297,"o":"m 297 203 l 297 0 l 89 0 l 89 203 l 297 203 z "},"/":{"ha":386,"x_min":3,"x_max":382,"o":"m 289 992 l 382 992 l 96 -19 l 3 -19 l 289 992 z "},":":{"ha":463,"x_min":157,"x_max":365,"o":"m 365 203 l 365 0 l 157 0 l 157 203 l 365 203 m 365 722 l 365 519 l 157 519 l 157 722 l 365 722 z "},";":{"ha":463,"x_min":157,"x_max":365,"o":"m 157 203 l 365 203 l 365 13 q 318 -165 365 -112 q 290 -190 306 -178 q 157 -242 236 -232 l 157 -164 q 275 -36 263 -142 q 276 -4 276 -21 l 276 0 l 157 0 l 157 203 m 365 722 l 365 519 l 157 519 l 157 722 l 365 722 z "},"<":{"ha":811,"x_min":56,"x_max":735,"o":"m 735 658 l 735 507 l 204 322 l 735 140 l 735 -14 l 56 239 l 56 407 l 735 658 z "},"=":{"ha":811,"x_min":69,"x_max":742,"o":"m 742 571 l 742 406 l 69 406 l 69 571 l 742 571 m 742 238 l 742 72 l 69 72 l 69 238 l 742 238 z "},">":{"ha":811,"x_min":56,"x_max":735,"o":"m 56 -14 l 56 138 l 586 322 l 56 504 l 56 658 l 735 406 l 735 238 l 56 -14 z "},"?":{"ha":849,"x_min":89,"x_max":772,"o":"m 513 279 l 340 279 l 343 346 q 436 517 354 436 q 478 554 454 535 q 569 657 556 618 q 576 710 576 678 q 508 846 576 801 q 431 869 474 869 q 303 789 346 869 q 278 683 278 743 q 278 671 278 678 l 278 668 l 89 668 q 147 899 90 818 q 154 910 150 904 q 426 1033 244 1033 q 704 915 607 1033 l 732 872 q 772 714 772 801 q 713 536 772 606 l 672 496 q 606 444 644 472 q 525 369 539 397 q 513 279 513 343 m 535 203 l 535 0 l 326 0 l 326 203 l 535 203 z "},"@":{"ha":1354,"x_min":38,"x_max":1315,"o":"m 894 706 l 1019 706 l 911 317 q 900 258 900 275 q 951 192 900 201 q 968 190 960 190 q 1111 278 1039 190 q 1121 290 1115 283 q 1192 514 1192 389 q 1056 800 1192 678 q 710 928 911 928 q 315 753 467 928 q 174 407 188 604 q 172 369 172 389 q 336 29 172 157 q 675 -83 481 -83 q 963 -26 836 -83 l 1001 -128 q 672 -192 861 -192 q 247 -60 415 -192 q 46 269 83 68 q 38 367 38 318 q 157 736 38 557 q 236 835 193 790 q 717 1035 429 1035 q 1161 861 981 1035 q 1315 493 1315 711 q 1201 194 1315 325 q 968 78 1097 78 q 844 114 897 78 q 796 176 810 139 q 794 182 796 179 q 603 78 715 86 q 586 78 594 78 q 408 167 476 78 q 358 315 358 232 q 446 574 358 451 q 461 593 454 583 q 671 717 544 697 q 714 719 692 719 q 865 632 818 719 q 872 619 869 626 l 894 706 m 710 621 q 557 528 625 621 q 493 339 493 442 q 553 211 493 253 q 617 190 582 190 q 733 249 678 190 q 739 256 736 253 q 824 442 807 335 q 826 479 826 461 q 753 614 826 586 l 718 621 l 710 621 z "},"A":{"ha":1003,"x_min":36,"x_max":976,"o":"m 696 204 l 317 204 l 249 0 l 36 0 l 396 1013 l 626 1013 l 976 0 l 763 0 l 696 204 m 639 378 l 507 774 l 375 378 l 639 378 z "},"B":{"ha":1003,"x_min":114,"x_max":925,"o":"m 114 0 l 114 1013 l 565 1013 q 804 939 718 1013 q 896 763 888 867 q 896 746 896 754 q 808 574 896 646 l 757 538 q 925 292 925 439 q 850 99 925 182 l 825 74 q 569 0 738 0 l 114 0 m 322 839 l 322 610 l 549 610 q 696 724 689 619 q 564 839 696 832 l 549 839 l 322 839 m 322 436 l 322 174 l 571 174 q 725 304 721 181 q 571 436 725 436 l 322 436 z "},"C":{"ha":1003,"x_min":61,"x_max":951,"o":"m 947 669 l 749 669 q 703 778 732 742 q 532 851 644 851 q 306 697 372 851 q 272 551 279 635 q 269 494 269 524 q 400 176 269 257 q 525 143 454 143 q 731 268 679 143 q 749 346 744 303 l 951 346 q 782 38 940 140 q 519 -32 674 -32 q 157 146 281 -32 q 61 497 61 285 q 228 928 61 786 q 525 1029 347 1029 q 869 882 749 1029 q 879 869 875 875 q 947 669 938 793 z "},"D":{"ha":1003,"x_min":107,"x_max":946,"o":"m 107 0 l 107 1013 l 503 1013 q 801 918 707 1013 q 822 896 813 907 q 946 507 946 749 q 822 118 946 263 q 535 0 731 7 q 503 0 519 0 l 107 0 m 315 174 l 503 174 q 738 506 738 174 q 503 839 738 839 l 315 839 l 315 174 z "},"E":{"ha":926,"x_min":110,"x_max":867,"o":"m 318 436 l 318 174 l 867 174 l 867 0 l 110 0 l 110 1013 l 842 1013 l 842 839 l 318 839 l 318 610 l 803 610 l 803 436 l 318 436 z "},"F":{"ha":849,"x_min":103,"x_max":814,"o":"m 311 436 l 311 0 l 103 0 l 103 1013 l 814 1013 l 814 839 l 311 839 l 311 610 l 754 610 l 754 436 l 311 436 z "},"G":{"ha":1081,"x_min":58,"x_max":988,"o":"m 988 544 l 988 -3 l 863 -3 l 838 131 q 596 -28 743 -8 q 532 -32 565 -32 q 192 119 325 -32 q 58 499 58 269 q 213 900 58 753 q 549 1029 346 1029 q 901 889 779 1029 l 935 844 q 988 689 978 775 l 792 689 q 729 790 768 757 q 550 851 660 851 q 307 701 379 851 q 267 501 267 619 q 376 215 267 317 q 556 146 451 146 q 757 236 676 146 q 763 243 760 239 q 813 371 806 293 l 582 371 l 582 544 l 988 544 z "},"H":{"ha":1003,"x_min":94,"x_max":913,"o":"m 704 460 l 303 460 l 303 0 l 94 0 l 94 1013 l 303 1013 l 303 633 l 703 633 l 703 1013 l 913 1013 l 913 0 l 704 0 l 704 460 z "},"I":{"ha":386,"x_min":88,"x_max":296,"o":"m 296 1013 l 296 0 l 88 0 l 88 1013 l 296 1013 z "},"J":{"ha":772,"x_min":33,"x_max":675,"o":"m 467 1013 l 675 1013 l 675 264 q 510 -4 675 61 q 350 -32 442 -32 q 118 49 207 -32 q 33 250 39 122 q 33 275 33 263 l 33 375 l 242 375 l 242 278 q 317 150 242 167 q 354 146 333 146 q 465 243 456 146 q 467 264 467 253 l 467 1013 z "},"K":{"ha":1003,"x_min":103,"x_max":996,"o":"m 311 339 l 311 0 l 103 0 l 103 1013 l 311 1013 l 311 568 l 707 1013 l 953 1013 l 549 576 l 996 0 l 747 0 l 415 447 l 311 339 z "},"L":{"ha":849,"x_min":111,"x_max":804,"o":"m 319 1013 l 319 174 l 804 174 l 804 0 l 111 0 l 111 1013 l 319 1013 z "},"M":{"ha":1157,"x_min":92,"x_max":1078,"o":"m 300 789 l 300 0 l 92 0 l 92 1013 l 403 1013 l 586 207 l 764 1013 l 1078 1013 l 1078 0 l 869 0 l 869 789 l 690 0 l 482 0 l 300 789 z "},"N":{"ha":1003,"x_min":94,"x_max":918,"o":"m 710 0 l 303 700 l 303 0 l 94 0 l 94 1013 l 308 1013 l 710 324 l 710 1013 l 918 1013 l 918 0 l 710 0 z "},"O":{"ha":1081,"x_min":56,"x_max":1031,"o":"m 542 1029 q 889 889 758 1029 q 1031 510 1025 743 q 1031 492 1031 501 q 932 163 1031 307 q 889 108 913 133 q 543 -32 758 -32 q 197 108 328 -32 q 57 451 72 242 q 56 499 56 475 q 178 867 56 717 q 197 889 188 878 q 542 1029 326 1029 m 543 851 q 317 721 393 851 l 292 668 q 264 499 264 593 q 378 203 264 299 q 543 146 447 146 q 767 274 689 146 q 822 493 822 364 q 701 800 822 707 q 543 851 635 851 z "},"P":{"ha":926,"x_min":106,"x_max":879,"o":"m 314 361 l 314 0 l 106 0 l 106 1013 l 553 1013 q 861 825 799 1013 l 875 767 q 879 699 879 735 q 753 415 879 504 l 710 389 q 574 361 649 361 l 314 361 m 314 535 l 508 535 q 669 665 660 535 q 671 686 671 675 q 538 838 671 825 q 508 839 524 839 l 314 839 l 314 535 z "},"Q":{"ha":1081,"x_min":60,"x_max":1035,"o":"m 924 143 l 1035 38 l 929 -75 l 810 38 q 547 -32 694 -32 q 201 108 332 -32 q 61 447 78 242 q 60 499 60 472 q 175 858 60 708 q 201 889 188 874 q 547 1029 332 1029 q 893 889 763 1029 q 1032 558 1014 758 q 1035 501 1035 531 q 953 185 1035 319 q 924 143 939 163 m 667 386 l 781 278 q 826 497 826 369 q 710 797 826 703 q 547 851 642 851 q 321 721 397 851 l 296 668 q 268 499 268 593 q 382 203 268 299 q 546 146 451 146 q 668 172 618 146 l 561 274 l 667 386 z "},"R":{"ha":1003,"x_min":111,"x_max":940,"o":"m 319 401 l 319 0 l 111 0 l 111 1013 l 654 1013 q 850 943 782 1013 q 926 739 926 864 q 756 489 926 556 q 857 425 835 454 q 893 244 888 383 l 896 121 q 935 42 896 65 q 940 38 938 39 l 940 0 l 717 0 q 685 129 688 53 q 685 174 685 147 q 686 240 685 214 q 688 281 688 258 q 603 397 688 382 q 558 401 583 401 l 319 401 m 319 575 l 571 575 q 681 601 650 575 q 718 710 718 635 q 681 813 718 781 q 571 839 642 838 l 319 839 l 319 575 z "},"S":{"ha":926,"x_min":44,"x_max":879,"o":"m 843 704 l 649 704 q 475 861 639 844 q 436 863 457 863 q 274 789 311 863 l 263 758 q 261 738 261 749 q 319 644 261 674 q 453 606 361 624 l 611 575 q 861 410 813 536 q 879 296 879 361 q 708 17 879 100 q 464 -32 608 -32 q 76 165 165 -32 q 44 303 49 225 l 247 303 q 410 139 256 164 q 475 135 440 135 q 667 218 625 135 q 679 271 679 242 q 599 388 679 351 q 489 418 558 406 l 347 446 q 92 585 147 483 q 63 718 63 638 q 236 992 63 917 q 446 1029 324 1029 q 772 914 668 1029 q 843 704 843 835 z "},"T":{"ha":849,"x_min":19,"x_max":831,"o":"m 535 839 l 535 0 l 326 0 l 326 839 l 19 839 l 19 1013 l 831 1013 l 831 839 l 535 839 z "},"U":{"ha":1003,"x_min":106,"x_max":908,"o":"m 700 1013 l 908 1013 l 908 326 q 810 71 908 160 q 507 -32 696 -32 q 204 71 318 -32 q 106 326 106 160 l 106 1013 l 314 1013 l 314 326 q 507 146 328 151 q 700 326 694 156 l 700 1013 z "},"V":{"ha":926,"x_min":33,"x_max":899,"o":"m 551 0 l 375 0 l 33 1013 l 243 1013 l 468 250 l 689 1013 l 899 1013 l 551 0 z "},"W":{"ha":1311,"x_min":18,"x_max":1294,"o":"m 1014 0 l 826 0 l 657 790 l 492 0 l 304 0 l 18 1013 l 239 1013 l 396 254 l 553 1013 l 758 1013 l 922 253 l 1074 1013 l 1294 1013 l 1014 0 z "},"X":{"ha":926,"x_min":31,"x_max":907,"o":"m 582 517 l 907 0 l 660 0 l 465 351 l 272 0 l 31 0 l 350 510 l 42 1013 l 289 1013 l 467 679 l 653 1013 l 894 1013 l 582 517 z "},"Y":{"ha":926,"x_min":38,"x_max":903,"o":"m 582 375 l 582 0 l 374 0 l 374 375 l 38 1013 l 269 1013 l 476 565 l 669 1013 l 903 1013 l 582 375 z "},"Z":{"ha":849,"x_min":42,"x_max":803,"o":"m 803 1013 l 803 839 l 286 174 l 803 174 l 803 0 l 42 0 l 42 174 l 560 839 l 42 839 l 42 1013 l 803 1013 z "},"[":{"ha":463,"x_min":92,"x_max":428,"o":"m 428 1013 l 428 871 l 272 871 l 272 -136 l 428 -136 l 428 -278 l 92 -278 l 92 1013 l 428 1013 z "},"\\":{"ha":386,"x_min":-17,"x_max":401,"o":"m 76 992 l 401 -19 l 308 -19 l -17 992 l 76 992 z "},"]":{"ha":463,"x_min":25,"x_max":361,"o":"m 25 -278 l 25 -136 l 181 -136 l 181 871 l 25 871 l 25 1013 l 361 1013 l 361 -278 l 25 -278 z "},"^":{"ha":811,"x_min":85,"x_max":725,"o":"m 725 375 l 568 375 l 400 792 l 240 375 l 85 375 l 314 965 l 488 965 l 725 375 z "},"_":{"ha":772,"x_min":-31,"x_max":803,"o":"m 803 -167 l 803 -262 l -31 -262 l -31 -167 l 803 -167 z "},"`":{"ha":463,"x_min":24,"x_max":296,"o":"m 24 1051 l 199 1051 l 296 843 l 199 843 l 24 1051 z "},"a":{"ha":772,"x_min":39,"x_max":728,"o":"m 728 24 l 728 0 l 517 0 q 494 75 494 33 q 267 -32 392 -32 q 92 39 160 -32 q 39 193 39 96 q 260 429 39 392 l 338 443 q 453 468 432 458 q 460 472 454 469 q 493 531 493 490 q 381 606 493 606 q 260 561 286 606 l 247 528 l 243 503 l 56 503 q 376 763 74 763 q 683 532 683 763 l 683 115 q 719 32 683 68 q 728 24 724 28 m 493 301 l 493 354 q 411 331 467 342 l 344 318 q 238 249 253 299 l 233 215 q 301 129 233 147 q 339 125 318 125 q 486 240 460 125 q 493 301 493 268 z "},"b":{"ha":849,"x_min":82,"x_max":799,"o":"m 82 1013 l 276 1013 l 276 653 q 483 763 346 763 q 686 679 601 763 q 718 642 704 661 q 799 365 799 525 q 689 58 799 175 q 483 -32 601 -32 q 276 76 346 -32 l 276 0 l 82 0 l 82 1013 m 440 600 q 303 501 349 600 l 286 453 q 276 368 276 413 q 360 157 276 217 q 440 131 394 131 q 576 226 529 131 q 604 364 604 286 q 526 569 604 506 q 440 600 488 600 z "},"c":{"ha":772,"x_min":47,"x_max":725,"o":"m 725 469 l 539 469 q 454 597 515 576 l 415 606 q 400 606 408 606 q 279 542 314 606 q 242 360 242 471 q 333 142 242 190 q 400 125 364 125 q 519 201 483 125 q 539 260 531 226 l 725 260 q 574 11 707 88 q 399 -32 497 -32 q 93 140 179 -32 q 47 360 47 232 q 213 717 47 619 q 401 763 292 763 q 678 626 593 763 q 717 525 704 581 q 725 469 722 499 z "},"d":{"ha":849,"x_min":40,"x_max":757,"o":"m 563 0 l 563 76 q 356 -32 490 -32 q 153 50 239 -32 q 121 88 135 68 q 40 364 40 204 q 150 671 40 554 q 356 763 236 763 q 563 653 492 763 l 563 1013 l 757 1013 l 757 0 l 563 0 m 399 600 q 263 501 307 600 q 235 364 235 443 q 314 160 235 221 q 399 131 351 131 q 536 229 492 131 q 563 361 563 286 q 481 574 563 513 q 399 600 444 600 z "},"e":{"ha":772,"x_min":31,"x_max":729,"o":"m 728 314 l 225 314 q 253 182 229 219 q 381 117 296 117 q 525 201 485 117 q 529 211 528 206 l 721 211 q 546 7 681 71 q 374 -32 468 -32 q 86 121 176 -32 q 31 356 31 217 q 175 701 31 596 q 378 763 258 763 q 649 638 551 763 q 696 554 678 600 q 700 544 699 549 q 729 347 729 460 q 728 314 729 331 m 228 443 l 526 443 q 496 551 521 513 q 375 614 451 614 q 228 443 247 614 z "},"f":{"ha":463,"x_min":19,"x_max":435,"o":"m 435 735 l 435 606 l 319 606 l 319 0 l 125 0 l 125 606 l 19 606 l 19 735 l 125 735 l 125 825 q 317 1013 125 1013 q 428 1008 374 1013 l 428 863 q 372 867 403 867 q 319 808 319 867 l 319 735 l 435 735 z "},"g":{"ha":849,"x_min":47,"x_max":751,"o":"m 567 750 l 751 750 l 751 -25 q 582 -272 751 -206 q 463 -300 529 -293 q 394 -303 431 -303 q 136 -231 225 -303 q 63 -90 64 -171 l 264 -90 q 401 -178 288 -178 q 547 -101 504 -178 q 567 -25 567 -68 l 567 76 q 414 -26 489 -11 q 354 -32 388 -32 q 110 106 194 -32 q 47 357 47 208 q 157 671 47 553 q 358 763 242 763 q 561 643 479 763 q 567 635 564 639 l 567 750 m 400 600 q 267 499 310 600 q 242 360 242 439 q 318 158 242 218 q 397 131 354 131 q 542 228 494 131 q 569 360 569 283 q 493 564 569 496 q 400 600 451 600 z "},"h":{"ha":849,"x_min":93,"x_max":751,"o":"m 93 1013 l 288 1013 l 288 642 q 507 763 368 763 q 675 706 607 763 q 751 503 751 642 l 751 0 l 557 0 l 557 458 q 535 551 557 518 q 438 597 501 597 q 306 525 346 597 q 288 450 288 492 l 288 0 l 93 0 l 93 1013 z "},"i":{"ha":386,"x_min":93,"x_max":288,"o":"m 288 750 l 288 0 l 93 0 l 93 750 l 288 750 m 288 1013 l 288 839 l 93 839 l 93 1013 l 288 1013 z "},"j":{"ha":386,"x_min":6,"x_max":292,"o":"m 292 750 l 292 -131 q 203 -292 292 -262 q 121 -303 169 -303 q 6 -296 71 -303 l 6 -140 q 40 -146 24 -146 q 96 -107 90 -146 q 97 -87 97 -99 l 97 750 l 292 750 m 292 1013 l 292 839 l 97 839 l 97 1013 l 292 1013 z "},"k":{"ha":772,"x_min":82,"x_max":761,"o":"m 276 458 l 522 750 l 743 750 l 488 467 l 761 0 l 533 0 l 354 331 l 276 246 l 276 0 l 82 0 l 82 1013 l 276 1013 l 276 458 z "},"l":{"ha":386,"x_min":93,"x_max":288,"o":"m 288 1013 l 288 0 l 93 0 l 93 1013 l 288 1013 z "},"m":{"ha":1235,"x_min":83,"x_max":1144,"o":"m 83 750 l 276 750 l 276 657 q 438 760 351 747 q 482 763 458 763 q 676 668 615 763 q 686 651 682 660 q 906 763 778 758 q 1124 640 1069 763 q 1144 531 1144 593 l 1144 0 l 950 0 l 950 500 q 882 593 950 574 q 844 597 865 597 q 719 508 747 597 q 711 450 711 482 l 711 0 l 517 0 l 517 500 q 449 593 517 574 q 411 597 432 597 q 286 508 314 597 q 278 450 278 482 l 278 0 l 83 0 l 83 750 z "},"n":{"ha":849,"x_min":88,"x_max":758,"o":"m 88 750 l 282 750 l 282 642 q 489 763 358 756 q 507 763 497 763 q 739 622 683 763 q 758 503 758 569 l 758 0 l 564 0 l 564 463 q 439 597 564 597 q 297 519 336 597 q 282 450 282 489 l 282 0 l 88 0 l 88 750 z "},"o":{"ha":849,"x_min":49,"x_max":790,"o":"m 418 763 q 740 589 647 763 q 790 360 790 494 q 647 36 790 140 q 419 -32 554 -32 q 107 128 203 -32 q 49 365 49 225 q 197 700 49 596 q 418 763 288 763 m 419 606 q 271 503 318 606 q 243 365 243 444 q 328 154 243 218 q 419 125 368 125 q 567 224 518 125 q 596 363 596 283 q 507 579 596 519 q 419 606 461 603 z "},"p":{"ha":849,"x_min":81,"x_max":797,"o":"m 275 750 l 275 639 q 483 763 344 763 q 682 685 596 763 q 717 644 701 665 q 797 364 794 526 q 688 56 797 171 q 483 -33 601 -33 q 275 89 344 -33 l 275 -303 l 81 -303 l 81 750 l 275 750 m 439 600 q 301 500 346 600 q 275 364 275 442 q 356 157 275 217 q 439 129 393 129 q 575 225 529 129 q 603 361 603 283 q 521 574 603 513 q 439 600 485 600 z "},"q":{"ha":849,"x_min":39,"x_max":756,"o":"m 561 750 l 756 750 l 756 -303 l 561 -303 l 561 89 q 351 -33 493 -33 q 156 43 240 -33 q 119 85 135 63 q 39 350 43 189 q 39 364 39 357 q 150 674 39 558 q 353 763 235 763 q 561 639 492 763 l 561 750 m 397 600 q 260 500 304 600 q 233 364 233 442 q 314 157 233 217 q 397 129 351 129 q 535 228 490 129 q 561 360 561 285 q 476 575 561 517 q 397 600 442 600 z "},"r":{"ha":540,"x_min":88,"x_max":514,"o":"m 88 750 l 282 750 l 282 603 q 440 756 333 728 q 490 763 465 763 q 514 761 503 763 l 514 564 q 453 569 479 569 q 282 399 282 569 l 282 0 l 88 0 l 88 750 z "},"s":{"ha":772,"x_min":40,"x_max":722,"o":"m 701 508 l 514 508 q 374 610 513 610 q 265 561 285 610 l 261 540 q 294 494 261 510 q 329 482 307 489 l 575 411 q 722 222 722 368 q 639 40 722 111 q 633 35 636 38 q 394 -32 550 -32 q 43 186 72 -32 q 40 218 40 201 l 231 218 q 268 147 242 168 q 383 121 308 121 q 525 179 508 121 q 528 194 528 186 q 485 247 528 231 q 463 256 475 251 l 231 328 q 113 386 144 356 q 108 390 111 388 q 67 513 67 436 q 200 726 67 663 q 375 763 272 763 q 665 636 586 763 q 701 508 700 582 z "},"t":{"ha":463,"x_min":19,"x_max":418,"o":"m 418 735 l 418 606 l 310 606 l 310 197 q 335 121 310 133 q 374 115 349 115 q 418 119 389 115 l 418 -17 q 306 -32 371 -32 q 115 144 115 -32 l 115 606 l 19 606 l 19 735 l 115 735 l 115 936 l 310 936 l 310 735 l 418 735 z "},"u":{"ha":849,"x_min":81,"x_max":751,"o":"m 751 0 l 557 0 l 557 89 q 350 -32 481 -25 q 332 -32 342 -32 q 100 108 156 -32 q 81 228 81 161 l 81 750 l 275 750 l 275 268 q 400 133 275 133 q 542 211 503 133 q 557 281 557 242 l 557 750 l 751 750 l 751 0 z "},"v":{"ha":772,"x_min":19,"x_max":744,"o":"m 486 0 l 282 0 l 19 750 l 225 750 l 388 201 l 539 750 l 744 750 l 486 0 z "},"w":{"ha":1081,"x_min":7,"x_max":1064,"o":"m 851 0 l 650 0 l 538 529 l 418 0 l 218 0 l 7 750 l 208 750 l 328 225 l 442 750 l 636 750 l 749 225 l 863 750 l 1064 750 l 851 0 z "},"x":{"ha":772,"x_min":22,"x_max":743,"o":"m 493 378 l 743 0 l 510 0 l 383 233 l 256 0 l 22 0 l 272 378 l 28 750 l 261 750 l 383 524 l 504 750 l 738 750 l 493 378 z "},"y":{"ha":772,"x_min":13,"x_max":747,"o":"m 547 750 l 747 750 l 439 -137 q 363 -262 404 -233 q 329 -281 349 -272 q 189 -304 272 -304 q 119 -299 158 -304 l 119 -153 q 171 -161 150 -161 q 275 -100 242 -161 q 292 -36 292 -71 l 292 -32 l 292 -31 l 13 750 l 226 750 l 392 204 l 547 750 z "},"z":{"ha":694,"x_min":29,"x_max":650,"o":"m 638 750 l 638 593 l 269 157 l 650 157 l 650 0 l 29 0 l 29 157 l 400 593 l 54 593 l 54 750 l 638 750 z "},"{":{"ha":540,"x_min":51,"x_max":440,"o":"m 440 1013 l 440 875 l 389 875 q 326 796 331 864 l 326 525 q 279 400 326 431 l 244 385 q 192 374 222 378 q 311 308 288 358 l 322 274 q 326 221 326 251 l 326 -50 q 361 -136 326 -125 q 389 -140 372 -140 l 440 -140 l 440 -278 l 335 -278 q 190 -192 238 -278 q 164 -83 164 -144 l 164 208 q 132 296 164 275 l 121 301 q 57 308 101 308 l 51 310 l 51 438 l 57 438 l 74 438 q 163 510 157 439 q 164 525 164 517 l 164 818 q 244 986 164 933 q 335 1013 283 1013 l 440 1013 z "},"|":{"ha":389,"x_min":139,"x_max":250,"o":"m 250 1013 l 250 -278 l 139 -278 l 139 1013 l 250 1013 z "},"}":{"ha":540,"x_min":100,"x_max":489,"o":"m 100 -278 l 100 -140 l 151 -140 q 214 -61 210 -129 l 214 210 q 261 335 214 304 q 349 361 290 353 q 229 426 253 376 q 214 514 214 456 l 214 785 q 179 871 214 860 q 151 875 168 875 l 100 875 l 100 1013 l 206 1013 q 350 926 303 1013 q 376 818 376 879 l 376 526 q 408 439 376 460 q 419 433 414 436 q 483 426 439 426 l 489 425 l 489 297 l 483 297 l 467 297 q 378 225 383 296 q 376 210 376 218 l 376 -83 q 296 -251 376 -199 q 206 -278 257 -278 l 100 -278 z "},"~":{"ha":811,"x_min":83,"x_max":721,"o":"m 613 400 l 721 400 q 544 197 708 197 q 429 233 482 197 l 350 292 q 265 325 306 325 q 199 288 215 325 q 192 235 193 272 l 83 235 q 260 436 93 436 q 375 401 326 436 l 454 343 q 539 308 501 308 q 606 346 589 308 q 613 400 611 361 z "},"¡":{"ha":463,"x_min":92,"x_max":300,"o":"m 92 -258 l 92 33 l 150 463 l 243 463 l 300 33 l 300 -258 l 92 -258 m 92 547 l 92 750 l 300 750 l 300 547 l 92 547 z "},"¢":{"ha":772,"x_min":50,"x_max":725,"o":"m 421 604 l 421 126 q 526 219 496 138 q 539 260 533 238 l 725 260 q 592 24 711 106 q 421 -32 518 -28 l 421 -172 l 360 -172 l 360 -31 q 96 140 175 -18 q 50 360 50 232 q 249 733 50 649 q 360 761 299 754 l 360 881 l 421 881 l 421 763 q 665 642 579 760 q 725 469 718 569 l 539 469 q 446 599 517 576 q 421 604 435 603 m 360 131 l 360 601 q 244 361 244 571 q 360 131 244 165 z "},"£":{"ha":772,"x_min":43,"x_max":746,"o":"m 521 515 l 521 439 l 351 439 q 372 357 372 394 q 281 179 372 267 q 211 119 251 151 q 367 171 325 169 q 456 156 396 171 q 543 142 507 142 q 689 182 608 142 l 746 31 q 544 -32 640 -32 q 407 -10 500 -32 q 271 13 318 13 q 119 -29 203 13 l 43 111 q 183 253 158 190 q 196 321 196 282 q 167 439 196 368 l 43 439 l 43 515 l 126 515 q 56 678 61 629 q 53 717 53 694 q 138 908 53 828 q 156 925 146 917 q 383 993 244 993 q 672 864 589 993 l 686 840 q 725 672 715 783 l 542 672 l 540 688 q 500 794 531 764 l 492 801 q 385 839 450 839 q 264 774 300 839 l 251 740 q 249 713 249 726 q 275 628 249 683 l 286 606 q 328 515 318 540 l 521 515 z "},"¤":{"ha":772,"x_min":36,"x_max":736,"o":"m 539 733 l 640 835 l 736 739 l 632 635 q 669 492 669 560 q 629 342 669 413 l 736 236 l 640 142 l 536 246 q 414 204 464 207 l 397 204 q 243 247 301 204 l 133 139 l 39 235 l 147 342 q 106 489 106 418 q 146 635 106 571 l 36 744 l 132 839 l 239 732 q 390 775 310 775 q 539 733 472 775 m 389 639 q 263 571 307 639 q 239 489 239 535 q 307 364 239 408 q 388 340 343 340 q 511 407 467 340 q 536 490 536 444 q 471 614 536 568 q 389 639 433 639 z "},"¥":{"ha":772,"x_min":7,"x_max":767,"o":"m 690 488 l 690 406 l 493 406 l 493 332 l 690 332 l 690 250 l 493 250 l 493 0 l 299 0 l 299 250 l 97 250 l 97 332 l 299 332 l 299 406 l 97 406 l 97 488 l 289 488 l 7 978 l 200 978 l 393 625 l 579 978 l 767 978 l 500 488 l 690 488 z "},"¦":{"ha":389,"x_min":139,"x_max":250,"o":"m 250 1013 l 250 472 l 139 472 l 139 1013 l 250 1013 m 250 263 l 250 -278 l 139 -278 l 139 263 l 250 263 z "},"§":{"ha":772,"x_min":46,"x_max":719,"o":"m 657 756 l 481 756 q 386 863 468 856 l 372 863 q 288 814 304 863 q 283 792 283 804 q 338 715 283 753 q 408 674 363 699 l 585 576 q 719 364 719 501 q 632 196 719 253 q 589 172 614 183 q 686 -14 686 104 q 569 -231 686 -157 q 383 -279 492 -279 q 90 0 93 -279 l 272 0 l 272 -14 q 299 -94 276 -74 q 385 -125 329 -125 q 483 -74 460 -125 q 490 -40 490 -58 q 465 22 490 -3 q 393 68 451 36 l 156 207 q 46 390 46 271 q 101 532 46 474 q 174 594 128 560 q 126 646 135 633 q 89 765 89 694 q 197 956 89 888 q 379 1004 274 1004 q 603 921 528 1004 l 621 899 q 657 756 653 846 m 468 425 l 269 531 q 211 440 213 496 q 257 360 211 392 q 285 343 269 351 l 489 232 q 553 322 553 276 q 506 403 553 371 l 468 425 z "},"¨":{"ha":463,"x_min":25,"x_max":436,"o":"m 178 1032 l 178 863 l 25 863 l 25 1032 l 178 1032 m 436 1032 l 436 863 l 283 863 l 283 1032 l 436 1032 z "},"©":{"ha":1024,"x_min":-19,"x_max":1043,"o":"m 767 599 l 642 599 q 513 707 610 701 q 368 596 404 707 q 356 535 358 568 q 354 499 354 518 q 451 304 354 343 q 508 293 476 293 q 640 403 625 293 q 642 413 642 408 l 769 413 q 640 206 763 264 q 506 178 582 178 q 271 310 344 178 q 226 500 226 389 q 353 779 226 697 q 510 822 419 822 q 725 725 651 822 q 767 599 761 676 m 513 1032 q 874 890 721 1032 q 1042 547 1024 750 q 1043 501 1043 524 q 896 133 1043 286 q 540 -29 753 -17 q 506 -31 522 -31 q 151 111 304 -31 q -17 450 3 250 q -19 501 -19 475 q 124 863 -19 710 q 468 1031 265 1014 q 513 1032 490 1032 m 511 932 q 213 806 338 932 l 174 760 q 89 501 89 644 q 211 199 89 326 q 507 69 333 72 q 813 197 688 69 q 935 501 935 322 q 808 807 935 681 q 511 932 685 932 z "},"ª":{"ha":514,"x_min":43,"x_max":457,"o":"m 446 472 l 446 364 l 51 364 l 51 472 l 446 472 m 457 569 l 457 556 l 329 556 q 315 600 317 571 q 179 536 256 536 q 56 610 89 536 q 43 672 43 638 q 175 815 43 793 l 222 824 q 294 842 279 833 q 315 875 315 851 q 247 918 315 918 q 169 878 182 918 l 165 857 l 57 857 q 244 1013 60 1013 q 429 874 429 1013 l 429 625 q 457 569 429 594 m 315 736 l 315 768 q 267 754 300 760 l 226 746 q 161 697 167 733 q 160 685 160 692 q 211 632 160 638 q 224 631 217 631 q 314 711 301 631 q 315 736 315 724 z "},"«":{"ha":772,"x_min":122,"x_max":650,"o":"m 122 303 l 122 461 l 354 668 l 354 506 l 214 382 l 354 258 l 354 100 l 122 303 m 418 303 l 418 461 l 650 668 l 650 506 l 510 382 l 650 258 l 650 100 l 418 303 z "},"¬":{"ha":811,"x_min":56,"x_max":756,"o":"m 56 521 l 756 521 l 756 119 l 649 119 l 649 414 l 56 414 l 56 521 z "},"®":{"ha":1024,"x_min":-19,"x_max":1043,"o":"m 400 435 l 400 194 l 267 194 l 267 810 l 597 810 q 754 710 721 810 l 764 665 q 765 642 765 654 q 668 492 765 539 q 729 444 717 469 l 739 411 l 746 324 l 747 271 q 768 226 747 239 q 774 224 771 225 l 774 194 l 631 194 q 611 307 611 242 q 613 343 611 329 l 613 367 q 528 435 607 433 l 400 435 m 400 547 l 543 547 q 626 585 614 547 q 632 622 632 599 q 589 693 632 681 q 543 697 572 697 l 400 697 l 400 547 m 513 1032 q 874 890 721 1032 q 1042 547 1024 750 q 1043 501 1043 524 q 896 133 1043 286 q 540 -29 753 -17 q 506 -31 522 -31 q 151 111 304 -31 q -17 450 3 250 q -19 501 -19 475 q 124 863 -19 710 q 468 1031 265 1014 q 513 1032 490 1032 m 511 932 q 213 806 338 932 l 174 760 q 89 501 89 644 q 211 199 89 326 q 507 69 333 72 q 813 197 688 69 q 935 501 935 322 q 808 807 935 681 q 511 932 685 932 z "},"¯":{"ha":463,"x_min":22,"x_max":438,"o":"m 438 999 l 438 889 l 22 889 l 22 999 l 438 999 z "},"°":{"ha":842,"x_min":210,"x_max":631,"o":"m 421 953 q 586 871 524 953 q 631 743 631 814 q 547 575 631 638 q 418 532 490 532 q 254 614 318 532 q 210 743 210 671 q 293 910 210 846 q 421 953 349 953 m 421 865 q 315 807 351 865 q 297 742 297 776 q 354 639 297 675 q 418 619 385 619 q 526 681 490 619 q 543 743 543 708 q 485 847 543 810 q 421 865 456 865 z "},"±":{"ha":811,"x_min":78,"x_max":732,"o":"m 732 143 l 732 -22 l 78 -22 l 78 143 l 732 143 m 732 600 l 732 435 l 488 435 l 488 190 l 322 190 l 322 435 l 78 435 l 78 600 l 322 600 l 322 844 l 488 844 l 488 600 l 732 600 z "},"²":{"ha":488,"x_min":22,"x_max":456,"o":"m 453 507 l 453 394 l 22 394 q 82 561 26 503 q 167 629 111 593 q 310 744 288 710 q 324 806 324 768 q 260 893 324 881 q 239 894 250 894 q 157 818 168 894 q 156 796 156 808 q 158 774 156 793 l 31 774 q 29 799 29 785 q 168 989 29 953 q 246 997 203 997 q 447 872 414 997 q 456 811 456 844 q 403 679 456 733 q 314 608 374 650 q 232 549 244 560 q 193 507 219 540 l 453 507 z "},"³":{"ha":488,"x_min":21,"x_max":457,"o":"m 186 654 l 186 740 l 201 740 q 306 821 306 740 q 253 893 306 881 q 232 896 243 896 q 163 857 179 896 q 153 793 153 838 l 31 793 q 69 929 35 883 q 236 997 125 997 q 418 913 368 997 q 438 835 438 878 q 365 711 438 756 q 457 568 457 667 q 354 401 457 450 q 236 376 304 376 q 32 500 74 376 q 21 575 21 533 l 149 575 q 239 483 154 486 q 319 535 299 483 q 325 567 325 549 q 208 654 325 651 l 186 654 z "},"´":{"ha":463,"x_min":168,"x_max":440,"o":"m 440 1051 l 265 843 l 168 843 l 265 1051 l 440 1051 z "},"µ":{"ha":849,"x_min":81,"x_max":796,"o":"m 267 -306 l 81 -306 l 81 750 l 275 750 l 275 286 q 300 179 275 215 q 392 133 331 133 q 514 204 476 133 q 532 281 532 239 l 532 750 l 726 750 l 726 208 q 749 111 726 122 q 768 107 756 107 q 796 113 778 107 l 796 -8 q 699 -32 750 -32 q 585 17 624 -32 q 567 43 576 28 q 425 -32 499 -26 l 406 -32 q 267 21 321 -32 l 267 -306 z "},"¶":{"ha":772,"x_min":26,"x_max":735,"o":"m 735 1013 l 735 913 l 675 913 l 675 -265 l 539 -265 l 539 913 l 451 913 l 451 -265 l 315 -265 l 315 371 q 82 497 164 378 q 26 688 26 578 q 97 903 26 808 q 314 1013 178 1013 l 735 1013 z "},"·":{"ha":386,"x_min":89,"x_max":261,"o":"m 89 406 l 261 406 l 261 235 l 89 235 l 89 406 z "},"¸":{"ha":463,"x_min":38,"x_max":408,"o":"m 225 0 l 285 0 l 244 -87 q 303 -78 274 -78 q 404 -144 386 -78 q 408 -176 408 -160 q 283 -301 408 -282 q 229 -306 258 -306 q 43 -268 153 -306 q 38 -267 40 -268 l 64 -194 q 210 -236 160 -236 q 283 -200 265 -236 q 289 -179 289 -190 q 242 -133 289 -142 l 218 -131 q 150 -147 185 -131 l 225 0 z "},"¹":{"ha":488,"x_min":56,"x_max":336,"o":"m 204 796 l 56 796 l 56 881 q 247 985 218 881 l 336 985 l 336 394 l 204 394 l 204 796 z "},"º":{"ha":507,"x_min":32,"x_max":476,"o":"m 464 472 l 464 364 l 46 364 l 46 472 l 464 472 m 254 1013 q 458 882 410 1013 q 476 771 476 833 q 369 564 476 622 q 254 536 319 536 q 57 650 111 536 q 32 774 32 703 q 143 988 32 931 q 254 1013 192 1013 m 254 918 q 160 846 188 918 q 149 775 149 814 q 210 642 149 676 q 254 631 231 631 q 347 703 321 631 q 360 772 360 733 q 296 908 360 876 q 254 918 272 917 z "},"»":{"ha":772,"x_min":122,"x_max":642,"o":"m 354 465 l 354 306 l 122 100 l 122 263 l 263 386 l 122 510 l 122 668 l 354 465 m 642 465 l 642 306 l 410 100 l 410 263 l 550 386 l 410 510 l 410 668 l 642 465 z "},"¼":{"ha":1207,"x_min":56,"x_max":1181,"o":"m 204 796 l 56 796 l 56 881 q 247 985 218 881 l 336 985 l 336 394 l 204 394 l 204 796 m 824 993 l 944 993 l 357 -28 l 236 -28 l 824 993 m 1181 233 l 1181 129 l 1117 129 l 1117 0 l 985 0 l 985 129 l 736 129 l 736 232 l 965 590 l 1117 590 l 1117 233 l 1181 233 m 985 233 l 985 461 l 838 233 l 985 233 z "},"½":{"ha":1207,"x_min":56,"x_max":1175,"o":"m 204 796 l 56 796 l 56 881 q 247 985 218 881 l 336 985 l 336 394 l 204 394 l 204 796 m 815 993 l 936 993 l 349 -28 l 228 -28 l 815 993 m 1172 113 l 1172 0 l 742 0 q 801 167 746 108 q 886 235 831 199 q 1029 350 1007 315 q 1043 411 1043 374 q 979 499 1043 486 q 958 500 969 500 q 876 424 888 500 l 875 401 q 878 379 875 399 l 750 379 q 749 404 749 390 q 888 594 749 558 q 965 603 922 603 q 1167 478 1133 603 q 1175 417 1175 450 q 1122 285 1175 339 q 1033 214 1093 256 q 951 154 969 169 q 913 113 939 146 l 1172 113 z "},"¾":{"ha":1207,"x_min":21,"x_max":1181,"o":"m 186 654 l 186 740 l 201 740 q 306 821 306 740 q 253 893 306 881 q 232 896 243 896 q 163 857 179 896 q 153 793 153 838 l 31 793 q 69 929 35 883 q 236 997 125 997 q 418 913 368 997 q 438 835 438 878 q 365 711 438 756 q 457 568 457 667 q 354 401 457 450 q 236 376 304 376 q 32 500 74 376 q 21 575 21 533 l 149 575 q 239 483 154 486 q 319 535 299 483 q 325 567 325 549 q 208 654 325 651 l 186 654 m 868 993 l 989 993 l 401 -28 l 281 -28 l 868 993 m 1181 233 l 1181 129 l 1117 129 l 1117 0 l 985 0 l 985 129 l 736 129 l 736 232 l 965 590 l 1117 590 l 1117 233 l 1181 233 m 985 233 l 985 461 l 838 233 l 985 233 z "},"¿":{"ha":849,"x_min":71,"x_max":756,"o":"m 332 471 l 504 471 l 501 404 q 407 233 490 314 q 365 196 389 215 q 274 93 288 132 q 267 40 267 72 q 335 -96 267 -51 q 413 -119 369 -119 q 543 -37 499 -119 q 567 67 567 8 q 567 79 567 72 l 567 82 l 756 82 q 697 -149 754 -68 q 690 -160 694 -154 q 418 -283 600 -283 q 139 -164 236 -283 q 71 36 71 -81 q 132 214 71 144 q 239 306 167 256 q 319 382 306 353 q 332 471 332 408 m 310 547 l 310 750 l 518 750 l 518 547 l 310 547 z "},"À":{"ha":1003,"x_min":36,"x_max":976,"o":"m 307 1300 l 482 1300 l 579 1092 l 482 1092 l 307 1300 m 696 204 l 317 204 l 249 0 l 36 0 l 396 1013 l 626 1013 l 976 0 l 763 0 l 696 204 m 639 378 l 507 774 l 375 378 l 639 378 z "},"Á":{"ha":1003,"x_min":36,"x_max":976,"o":"m 708 1299 l 533 1090 l 436 1090 l 533 1299 l 708 1299 m 696 204 l 317 204 l 249 0 l 36 0 l 396 1013 l 626 1013 l 976 0 l 763 0 l 696 204 m 639 378 l 507 774 l 375 378 l 639 378 z "},"Â":{"ha":1003,"x_min":36,"x_max":976,"o":"m 433 1300 l 582 1300 l 725 1092 l 617 1092 l 503 1231 l 389 1092 l 283 1092 l 433 1300 m 696 204 l 317 204 l 249 0 l 36 0 l 396 1013 l 626 1013 l 976 0 l 763 0 l 696 204 m 639 378 l 507 774 l 375 378 l 639 378 z "},"Ã":{"ha":1003,"x_min":36,"x_max":976,"o":"m 671 1289 l 758 1289 q 626 1113 750 1113 q 550 1129 593 1113 l 451 1165 q 410 1174 426 1174 q 357 1125 368 1174 q 354 1111 356 1118 l 267 1111 q 358 1276 274 1247 q 397 1283 376 1283 q 475 1265 425 1283 l 574 1231 q 621 1222 593 1222 q 671 1289 665 1222 m 696 204 l 317 204 l 249 0 l 36 0 l 396 1013 l 626 1013 l 976 0 l 763 0 l 696 204 m 639 378 l 507 774 l 375 378 l 639 378 z "},"Ä":{"ha":1003,"x_min":36,"x_max":976,"o":"m 453 1281 l 453 1111 l 300 1111 l 300 1281 l 453 1281 m 711 1281 l 711 1111 l 558 1111 l 558 1281 l 711 1281 m 696 204 l 317 204 l 249 0 l 36 0 l 396 1013 l 626 1013 l 976 0 l 763 0 l 696 204 m 639 378 l 507 774 l 375 378 l 639 378 z "},"Å":{"ha":1003,"x_min":36,"x_max":976,"o":"m 506 1318 q 613 1257 576 1318 q 629 1192 629 1228 q 571 1088 629 1124 q 504 1068 540 1068 q 397 1128 433 1068 q 379 1193 379 1158 q 440 1300 379 1264 q 506 1318 469 1318 m 506 1251 q 450 1214 465 1251 q 446 1193 446 1204 q 482 1139 446 1154 q 506 1135 493 1135 q 557 1169 542 1135 q 563 1193 563 1181 q 526 1247 563 1232 q 506 1251 517 1251 m 696 204 l 317 204 l 249 0 l 36 0 l 396 1013 l 626 1013 l 976 0 l 763 0 l 696 204 m 639 378 l 507 774 l 375 378 l 639 378 z "},"Æ":{"ha":1389,"x_min":1,"x_max":1342,"o":"m 597 211 l 288 211 l 214 0 l 1 0 l 367 1013 l 1314 1013 l 1314 839 l 806 839 l 806 610 l 1276 610 l 1276 436 l 806 436 l 806 174 l 1342 174 l 1342 0 l 597 0 l 597 211 m 597 385 l 597 839 l 504 839 l 346 385 l 597 385 z "},"Ç":{"ha":1003,"x_min":61,"x_max":951,"o":"m 526 -32 l 500 -87 q 558 -78 528 -78 q 660 -144 642 -78 q 664 -176 664 -160 q 539 -301 664 -282 q 485 -306 514 -306 q 299 -268 408 -306 q 293 -267 296 -268 l 319 -194 q 465 -236 415 -236 q 539 -200 521 -236 q 544 -179 544 -190 q 499 -133 544 -143 q 474 -131 488 -131 q 406 -147 440 -131 l 465 -32 q 258 42 326 -8 q 215 78 239 56 q 61 497 61 225 q 228 928 61 786 q 525 1029 347 1029 q 869 882 749 1029 q 879 869 875 875 q 947 669 938 793 l 749 669 q 703 778 732 742 q 532 851 644 851 q 306 697 372 851 q 272 551 279 635 q 269 494 269 524 q 400 176 269 257 q 525 143 454 143 q 731 268 679 143 q 749 346 744 303 l 951 346 q 775 33 942 133 q 526 -32 672 -29 z "},"È":{"ha":926,"x_min":110,"x_max":867,"o":"m 288 1300 l 463 1300 l 560 1092 l 463 1092 l 288 1300 m 318 436 l 318 174 l 867 174 l 867 0 l 110 0 l 110 1013 l 842 1013 l 842 839 l 318 839 l 318 610 l 803 610 l 803 436 l 318 436 z "},"É":{"ha":926,"x_min":110,"x_max":867,"o":"m 667 1300 l 492 1092 l 394 1092 l 492 1300 l 667 1300 m 318 436 l 318 174 l 867 174 l 867 0 l 110 0 l 110 1013 l 842 1013 l 842 839 l 318 839 l 318 610 l 803 610 l 803 436 l 318 436 z "},"Ê":{"ha":926,"x_min":110,"x_max":867,"o":"m 408 1300 l 557 1300 l 700 1092 l 592 1092 l 478 1231 l 364 1092 l 258 1092 l 408 1300 m 318 436 l 318 174 l 867 174 l 867 0 l 110 0 l 110 1013 l 842 1013 l 842 839 l 318 839 l 318 610 l 803 610 l 803 436 l 318 436 z "},"Ë":{"ha":926,"x_min":110,"x_max":867,"o":"m 425 1281 l 425 1111 l 272 1111 l 272 1281 l 425 1281 m 683 1281 l 683 1111 l 531 1111 l 531 1281 l 683 1281 m 318 436 l 318 174 l 867 174 l 867 0 l 110 0 l 110 1013 l 842 1013 l 842 839 l 318 839 l 318 610 l 803 610 l 803 436 l 318 436 z "},"Ì":{"ha":386,"x_min":-14,"x_max":296,"o":"m -14 1300 l 161 1300 l 258 1092 l 161 1092 l -14 1300 m 296 1013 l 296 0 l 88 0 l 88 1013 l 296 1013 z "},"Í":{"ha":386,"x_min":88,"x_max":403,"o":"m 403 1300 l 228 1092 l 131 1092 l 228 1300 l 403 1300 m 296 1013 l 296 0 l 88 0 l 88 1013 l 296 1013 z "},"Î":{"ha":386,"x_min":-26,"x_max":415,"o":"m 124 1300 l 272 1300 l 415 1092 l 307 1092 l 193 1231 l 79 1092 l -26 1092 l 124 1300 m 296 1013 l 296 0 l 88 0 l 88 1013 l 296 1013 z "},"Ï":{"ha":386,"x_min":-12,"x_max":399,"o":"m 140 1281 l 140 1111 l -12 1111 l -12 1281 l 140 1281 m 399 1281 l 399 1111 l 246 1111 l 246 1281 l 399 1281 m 296 1013 l 296 0 l 88 0 l 88 1013 l 296 1013 z "},"Ð":{"ha":1003,"x_min":0,"x_max":946,"o":"m 107 471 l 0 471 l 0 582 l 107 582 l 107 1013 l 503 1013 q 794 926 701 1013 l 824 896 q 944 554 931 761 q 946 507 946 531 q 842 143 946 293 q 824 118 833 129 q 564 1 740 14 q 503 0 535 0 l 107 0 l 107 471 m 315 471 l 315 174 l 503 174 q 679 244 628 174 q 682 249 681 246 q 746 506 746 339 q 682 764 746 674 q 503 839 622 836 l 315 839 l 315 582 l 524 582 l 524 471 l 315 471 z "},"Ñ":{"ha":1003,"x_min":94,"x_max":918,"o":"m 672 1289 l 760 1289 q 628 1113 751 1113 q 551 1129 594 1113 l 453 1165 q 411 1174 428 1174 q 358 1125 369 1174 q 356 1111 357 1118 l 268 1111 q 360 1276 275 1247 q 399 1283 378 1283 q 476 1265 426 1283 l 575 1231 q 622 1222 594 1222 q 672 1289 667 1222 m 710 0 l 303 700 l 303 0 l 94 0 l 94 1013 l 308 1013 l 710 324 l 710 1013 l 918 1013 l 918 0 l 710 0 z "},"Ò":{"ha":1081,"x_min":56,"x_max":1031,"o":"m 353 1300 l 528 1300 l 625 1092 l 528 1092 l 353 1300 m 542 1029 q 889 889 758 1029 q 1031 510 1025 743 q 1031 492 1031 501 q 932 163 1031 307 q 889 108 913 133 q 543 -32 758 -32 q 197 108 328 -32 q 57 451 72 242 q 56 499 56 475 q 178 867 56 717 q 197 889 188 878 q 542 1029 326 1029 m 543 851 q 317 721 393 851 l 292 668 q 264 499 264 593 q 378 203 264 299 q 543 146 447 146 q 767 274 689 146 q 822 493 822 364 q 701 800 822 707 q 543 851 635 851 z "},"Ó":{"ha":1081,"x_min":56,"x_max":1031,"o":"m 736 1300 l 561 1092 l 464 1092 l 561 1300 l 736 1300 m 542 1029 q 889 889 758 1029 q 1031 510 1025 743 q 1031 492 1031 501 q 932 163 1031 307 q 889 108 913 133 q 543 -32 758 -32 q 197 108 328 -32 q 57 451 72 242 q 56 499 56 475 q 178 867 56 717 q 197 889 188 878 q 542 1029 326 1029 m 543 851 q 317 721 393 851 l 292 668 q 264 499 264 593 q 378 203 264 299 q 543 146 447 146 q 767 274 689 146 q 822 493 822 364 q 701 800 822 707 q 543 851 635 851 z "},"Ô":{"ha":1081,"x_min":56,"x_max":1031,"o":"m 472 1300 l 621 1300 l 764 1092 l 656 1092 l 542 1231 l 428 1092 l 322 1092 l 472 1300 m 542 1029 q 889 889 758 1029 q 1031 510 1025 743 q 1031 492 1031 501 q 932 163 1031 307 q 889 108 913 133 q 543 -32 758 -32 q 197 108 328 -32 q 57 451 72 242 q 56 499 56 475 q 178 867 56 717 q 197 889 188 878 q 542 1029 326 1029 m 543 851 q 317 721 393 851 l 292 668 q 264 499 264 593 q 378 203 264 299 q 543 146 447 146 q 767 274 689 146 q 822 493 822 364 q 701 800 822 707 q 543 851 635 851 z "},"Õ":{"ha":1081,"x_min":56,"x_max":1031,"o":"m 711 1289 l 799 1289 q 667 1113 790 1113 q 590 1129 633 1113 l 492 1165 q 450 1174 467 1174 q 397 1125 408 1174 q 394 1111 396 1118 l 307 1111 q 399 1276 314 1247 q 438 1283 417 1283 q 515 1265 465 1283 l 614 1231 q 661 1222 633 1222 q 711 1289 706 1222 m 542 1029 q 889 889 758 1029 q 1031 510 1025 743 q 1031 492 1031 501 q 932 163 1031 307 q 889 108 913 133 q 543 -32 758 -32 q 197 108 328 -32 q 57 451 72 242 q 56 499 56 475 q 178 867 56 717 q 197 889 188 878 q 542 1029 326 1029 m 543 851 q 317 721 393 851 l 292 668 q 264 499 264 593 q 378 203 264 299 q 543 146 447 146 q 767 274 689 146 q 822 493 822 364 q 701 800 822 707 q 543 851 635 851 z "},"Ö":{"ha":1081,"x_min":56,"x_max":1031,"o":"m 490 1281 l 490 1111 l 338 1111 l 338 1281 l 490 1281 m 749 1281 l 749 1111 l 596 1111 l 596 1281 l 749 1281 m 542 1029 q 889 889 758 1029 q 1031 510 1025 743 q 1031 492 1031 501 q 932 163 1031 307 q 889 108 913 133 q 543 -32 758 -32 q 197 108 328 -32 q 57 451 72 242 q 56 499 56 475 q 178 867 56 717 q 197 889 188 878 q 542 1029 326 1029 m 543 851 q 317 721 393 851 l 292 668 q 264 499 264 593 q 378 203 264 299 q 543 146 447 146 q 767 274 689 146 q 822 493 822 364 q 701 800 822 707 q 543 851 635 851 z "},"×":{"ha":811,"x_min":110,"x_max":701,"o":"m 585 617 l 701 500 l 522 321 l 700 142 l 583 25 l 406 204 l 228 26 l 111 143 l 289 321 l 110 499 l 226 617 l 406 438 l 585 617 z "},"Ø":{"ha":1081,"x_min":43,"x_max":1049,"o":"m 229 72 l 114 -54 l 43 10 l 163 142 q 49 499 49 294 q 167 860 49 713 q 192 889 179 875 q 539 1029 322 1029 q 847 924 721 1029 q 861 913 854 918 l 976 1040 l 1049 978 l 925 840 q 1026 526 1018 713 q 1028 496 1028 511 q 918 149 1028 294 q 885 108 903 126 q 539 -32 754 -32 q 229 72 350 -32 m 788 690 l 356 213 q 539 146 425 146 q 767 279 690 146 q 819 501 819 369 q 788 690 819 606 m 297 290 l 733 771 q 539 851 657 851 q 307 714 383 851 q 257 494 257 624 q 297 290 257 379 z "},"Ù":{"ha":1003,"x_min":106,"x_max":908,"o":"m 317 1300 l 492 1300 l 589 1092 l 492 1092 l 317 1300 m 700 1013 l 908 1013 l 908 326 q 810 71 908 160 q 507 -32 696 -32 q 204 71 318 -32 q 106 326 106 160 l 106 1013 l 314 1013 l 314 326 q 507 146 328 151 q 700 326 694 156 l 700 1013 z "},"Ú":{"ha":1003,"x_min":106,"x_max":908,"o":"m 700 1300 l 525 1092 l 428 1092 l 525 1300 l 700 1300 m 700 1013 l 908 1013 l 908 326 q 810 71 908 160 q 507 -32 696 -32 q 204 71 318 -32 q 106 326 106 160 l 106 1013 l 314 1013 l 314 326 q 507 146 328 151 q 700 326 694 156 l 700 1013 z "},"Û":{"ha":1003,"x_min":106,"x_max":908,"o":"m 436 1300 l 585 1300 l 728 1092 l 619 1092 l 506 1231 l 392 1092 l 286 1092 l 436 1300 m 700 1013 l 908 1013 l 908 326 q 810 71 908 160 q 507 -32 696 -32 q 204 71 318 -32 q 106 326 106 160 l 106 1013 l 314 1013 l 314 326 q 507 146 328 151 q 700 326 694 156 l 700 1013 z "},"Ü":{"ha":1003,"x_min":106,"x_max":908,"o":"m 454 1281 l 454 1111 l 301 1111 l 301 1281 l 454 1281 m 713 1281 l 713 1111 l 560 1111 l 560 1281 l 713 1281 m 700 1013 l 908 1013 l 908 326 q 810 71 908 160 q 507 -32 696 -32 q 204 71 318 -32 q 106 326 106 160 l 106 1013 l 314 1013 l 314 326 q 507 146 328 151 q 700 326 694 156 l 700 1013 z "},"Ý":{"ha":926,"x_min":38,"x_max":903,"o":"m 665 1300 l 490 1092 l 393 1092 l 490 1300 l 665 1300 m 582 375 l 582 0 l 374 0 l 374 375 l 38 1013 l 269 1013 l 476 565 l 669 1013 l 903 1013 l 582 375 z "},"Þ":{"ha":926,"x_min":106,"x_max":879,"o":"m 314 194 l 314 0 l 106 0 l 106 1013 l 314 1013 l 314 846 l 553 846 q 793 768 711 846 q 879 531 879 683 q 750 244 879 332 q 574 194 676 194 l 314 194 m 314 368 l 508 368 q 669 499 660 368 q 671 519 671 508 q 538 671 671 658 q 508 672 524 672 l 314 672 l 314 368 z "},"ß":{"ha":849,"x_min":93,"x_max":799,"o":"m 396 485 l 396 617 l 408 617 q 536 692 507 618 q 544 740 544 714 q 458 850 544 828 q 408 856 435 856 q 290 775 308 856 l 288 746 l 288 0 l 93 0 l 93 719 q 178 943 93 875 q 421 1013 274 1008 q 683 911 594 1013 q 739 760 739 847 q 618 571 739 618 q 728 515 682 558 q 799 343 794 450 q 799 328 799 336 q 679 38 799 133 q 496 -24 603 -24 q 396 -15 464 -24 l 396 140 q 414 142 404 142 l 442 143 q 582 224 539 144 q 604 314 604 264 q 503 469 604 429 q 414 485 457 483 l 396 485 z "},"à":{"ha":772,"x_min":39,"x_max":728,"o":"m 183 1051 l 358 1051 l 456 843 l 358 843 l 183 1051 m 728 24 l 728 0 l 517 0 q 494 75 494 33 q 267 -32 392 -32 q 92 39 160 -32 q 39 193 39 96 q 260 429 39 392 l 338 443 q 453 468 432 458 q 460 472 454 469 q 493 531 493 490 q 381 606 493 606 q 260 561 286 606 l 247 528 l 243 503 l 56 503 q 376 763 74 763 q 683 532 683 763 l 683 115 q 719 32 683 68 q 728 24 724 28 m 493 301 l 493 354 q 411 331 467 342 l 344 318 q 238 249 253 299 l 233 215 q 301 129 233 147 q 339 125 318 125 q 486 240 460 125 q 493 301 493 268 z "},"á":{"ha":772,"x_min":39,"x_max":728,"o":"m 571 1051 l 396 843 l 299 843 l 396 1051 l 571 1051 m 728 24 l 728 0 l 517 0 q 494 75 494 33 q 267 -32 392 -32 q 92 39 160 -32 q 39 193 39 96 q 260 429 39 392 l 338 443 q 453 468 432 458 q 460 472 454 469 q 493 531 493 490 q 381 606 493 606 q 260 561 286 606 l 247 528 l 243 503 l 56 503 q 376 763 74 763 q 683 532 683 763 l 683 115 q 719 32 683 68 q 728 24 724 28 m 493 301 l 493 354 q 411 331 467 342 l 344 318 q 238 249 253 299 l 233 215 q 301 129 233 147 q 339 125 318 125 q 486 240 460 125 q 493 301 493 268 z "},"â":{"ha":772,"x_min":39,"x_max":728,"o":"m 307 1051 l 456 1051 l 599 843 l 490 843 l 376 982 l 263 843 l 157 843 l 307 1051 m 728 24 l 728 0 l 517 0 q 494 75 494 33 q 267 -32 392 -32 q 92 39 160 -32 q 39 193 39 96 q 260 429 39 392 l 338 443 q 453 468 432 458 q 460 472 454 469 q 493 531 493 490 q 381 606 493 606 q 260 561 286 606 l 247 528 l 243 503 l 56 503 q 376 763 74 763 q 683 532 683 763 l 683 115 q 719 32 683 68 q 728 24 724 28 m 493 301 l 493 354 q 411 331 467 342 l 344 318 q 238 249 253 299 l 233 215 q 301 129 233 147 q 339 125 318 125 q 486 240 460 125 q 493 301 493 268 z "},"ã":{"ha":772,"x_min":39,"x_max":728,"o":"m 536 1040 l 624 1040 q 492 864 615 864 q 415 881 458 864 l 317 917 q 275 925 292 925 q 222 876 233 925 q 219 863 221 869 l 132 863 q 224 1028 139 999 q 263 1035 242 1035 q 340 1017 290 1035 l 439 982 q 486 974 458 974 q 536 1040 531 974 m 728 24 l 728 0 l 517 0 q 494 75 494 33 q 267 -32 392 -32 q 92 39 160 -32 q 39 193 39 96 q 260 429 39 392 l 338 443 q 453 468 432 458 q 460 472 454 469 q 493 531 493 490 q 381 606 493 606 q 260 561 286 606 l 247 528 l 243 503 l 56 503 q 376 763 74 763 q 683 532 683 763 l 683 115 q 719 32 683 68 q 728 24 724 28 m 493 301 l 493 354 q 411 331 467 342 l 344 318 q 238 249 253 299 l 233 215 q 301 129 233 147 q 339 125 318 125 q 486 240 460 125 q 493 301 493 268 z "},"ä":{"ha":772,"x_min":39,"x_max":728,"o":"m 325 1032 l 325 863 l 172 863 l 172 1032 l 325 1032 m 583 1032 l 583 863 l 431 863 l 431 1032 l 583 1032 m 728 24 l 728 0 l 517 0 q 494 75 494 33 q 267 -32 392 -32 q 92 39 160 -32 q 39 193 39 96 q 260 429 39 392 l 338 443 q 453 468 432 458 q 460 472 454 469 q 493 531 493 490 q 381 606 493 606 q 260 561 286 606 l 247 528 l 243 503 l 56 503 q 376 763 74 763 q 683 532 683 763 l 683 115 q 719 32 683 68 q 728 24 724 28 m 493 301 l 493 354 q 411 331 467 342 l 344 318 q 238 249 253 299 l 233 215 q 301 129 233 147 q 339 125 318 125 q 486 240 460 125 q 493 301 493 268 z "},"å":{"ha":772,"x_min":39,"x_max":728,"o":"m 379 1069 q 486 1008 450 1069 q 503 943 503 979 q 444 839 503 875 q 378 819 414 819 q 271 879 307 819 q 253 944 253 910 q 314 1051 253 1015 q 379 1069 343 1069 m 379 1003 q 324 965 339 1003 q 319 944 319 956 q 356 890 319 906 q 379 886 367 886 q 431 921 415 886 q 436 944 436 932 q 400 999 436 983 q 379 1003 390 1003 m 728 24 l 728 0 l 517 0 q 494 75 494 33 q 267 -32 392 -32 q 92 39 160 -32 q 39 193 39 96 q 260 429 39 392 l 338 443 q 453 468 432 458 q 460 472 454 469 q 493 531 493 490 q 381 606 493 606 q 260 561 286 606 l 247 528 l 243 503 l 56 503 q 376 763 74 763 q 683 532 683 763 l 683 115 q 719 32 683 68 q 728 24 724 28 m 493 301 l 493 354 q 411 331 467 342 l 344 318 q 238 249 253 299 l 233 215 q 301 129 233 147 q 339 125 318 125 q 486 240 460 125 q 493 301 493 268 z "},"æ":{"ha":1235,"x_min":38,"x_max":1190,"o":"m 989 211 l 1181 211 q 1001 4 1139 68 q 833 -32 925 -32 q 556 113 644 -32 q 299 -32 440 -22 q 271 -33 285 -33 q 67 74 125 -33 q 38 196 38 126 q 233 428 38 385 q 258 433 246 431 l 336 447 q 451 472 431 463 q 458 476 453 474 q 492 532 492 494 q 374 606 492 606 q 254 551 279 606 q 242 503 246 532 l 60 503 q 376 763 64 763 q 619 693 539 763 q 835 763 706 763 q 1118 625 1021 763 l 1147 576 q 1161 544 1154 561 q 1190 347 1190 461 q 1189 314 1190 331 l 686 314 q 714 185 686 228 q 844 117 758 117 q 968 174 924 117 q 989 211 983 192 m 492 300 l 492 353 q 410 326 461 335 l 343 317 q 232 215 232 301 q 301 128 232 144 q 338 124 318 124 q 489 257 469 124 q 492 300 492 278 m 688 443 l 988 443 q 836 614 972 614 q 688 443 700 614 z "},"ç":{"ha":772,"x_min":47,"x_max":725,"o":"m 404 -32 l 381 -87 q 438 -78 406 -78 q 540 -146 522 -78 q 544 -176 544 -160 q 419 -301 544 -282 q 365 -306 394 -306 q 174 -267 285 -306 l 200 -194 q 344 -236 293 -236 q 419 -200 400 -236 q 425 -179 425 -190 q 379 -133 425 -143 q 354 -131 368 -131 q 285 -147 319 -131 l 344 -29 q 68 203 128 -1 q 47 360 47 272 q 213 717 47 619 q 401 763 292 763 q 678 626 593 763 q 717 525 704 581 q 725 469 722 499 l 539 469 q 454 597 515 576 l 415 606 q 400 606 408 606 q 279 542 314 606 q 242 361 242 471 q 294 171 242 235 q 401 125 331 126 q 524 213 489 125 q 539 260 532 233 l 725 260 q 592 24 711 104 q 404 -32 511 -32 z "},"è":{"ha":772,"x_min":31,"x_max":729,"o":"m 183 1051 l 358 1051 l 456 843 l 358 843 l 183 1051 m 728 314 l 225 314 q 253 182 229 219 q 381 117 296 117 q 525 201 485 117 q 529 211 528 206 l 721 211 q 546 7 681 71 q 374 -32 468 -32 q 86 121 176 -32 q 31 356 31 217 q 175 701 31 596 q 378 763 258 763 q 649 638 551 763 q 696 554 678 600 q 700 544 699 549 q 729 347 729 460 q 728 314 729 331 m 228 443 l 526 443 q 496 551 521 513 q 375 614 451 614 q 228 443 247 614 z "},"é":{"ha":772,"x_min":31,"x_max":729,"o":"m 582 1051 l 407 843 l 310 843 l 407 1051 l 582 1051 m 728 314 l 225 314 q 253 182 229 219 q 381 117 296 117 q 525 201 485 117 q 529 211 528 206 l 721 211 q 546 7 681 71 q 374 -32 468 -32 q 86 121 176 -32 q 31 356 31 217 q 175 701 31 596 q 378 763 258 763 q 649 638 551 763 q 696 554 678 600 q 700 544 699 549 q 729 347 729 460 q 728 314 729 331 m 228 443 l 526 443 q 496 551 521 513 q 375 614 451 614 q 228 443 247 614 z "},"ê":{"ha":772,"x_min":31,"x_max":729,"o":"m 318 1051 l 467 1051 l 610 843 l 501 843 l 388 982 l 274 843 l 168 843 l 318 1051 m 728 314 l 225 314 q 253 182 229 219 q 381 117 296 117 q 525 201 485 117 q 529 211 528 206 l 721 211 q 546 7 681 71 q 374 -32 468 -32 q 86 121 176 -32 q 31 356 31 217 q 175 701 31 596 q 378 763 258 763 q 649 638 551 763 q 696 554 678 600 q 700 544 699 549 q 729 347 729 460 q 728 314 729 331 m 228 443 l 526 443 q 496 551 521 513 q 375 614 451 614 q 228 443 247 614 z "},"ë":{"ha":772,"x_min":31,"x_max":729,"o":"m 336 1032 l 336 863 l 183 863 l 183 1032 l 336 1032 m 594 1032 l 594 863 l 442 863 l 442 1032 l 594 1032 m 728 314 l 225 314 q 253 182 229 219 q 381 117 296 117 q 525 201 485 117 q 529 211 528 206 l 721 211 q 546 7 681 71 q 374 -32 468 -32 q 86 121 176 -32 q 31 356 31 217 q 175 701 31 596 q 378 763 258 763 q 649 638 551 763 q 696 554 678 600 q 700 544 699 549 q 729 347 729 460 q 728 314 729 331 m 228 443 l 526 443 q 496 551 521 513 q 375 614 451 614 q 228 443 247 614 z "},"ì":{"ha":386,"x_min":-14,"x_max":288,"o":"m -14 1051 l 161 1051 l 258 843 l 161 843 l -14 1051 m 288 750 l 288 0 l 93 0 l 93 750 l 288 750 z "},"í":{"ha":386,"x_min":93,"x_max":403,"o":"m 403 1051 l 228 843 l 131 843 l 228 1051 l 403 1051 m 288 750 l 288 0 l 93 0 l 93 750 l 288 750 z "},"î":{"ha":386,"x_min":-26,"x_max":415,"o":"m 124 1051 l 272 1051 l 415 843 l 307 843 l 193 982 l 79 843 l -26 843 l 124 1051 m 288 750 l 288 0 l 93 0 l 93 750 l 288 750 z "},"ï":{"ha":386,"x_min":-12,"x_max":399,"o":"m 140 1032 l 140 863 l -12 863 l -12 1032 l 140 1032 m 399 1032 l 399 863 l 246 863 l 246 1032 l 399 1032 m 288 750 l 288 0 l 93 0 l 93 750 l 288 750 z "},"ð":{"ha":849,"x_min":49,"x_max":790,"o":"m 600 986 l 483 917 q 783 479 744 740 q 790 374 790 429 q 628 21 790 122 q 419 -32 542 -32 q 104 132 200 -32 q 49 368 49 228 q 206 690 49 597 q 381 742 289 742 q 499 715 431 742 q 367 849 443 804 l 260 785 l 201 836 l 299 897 q 174 964 246 929 l 267 1029 q 388 971 315 1011 q 408 961 390 968 l 529 1033 l 600 986 m 419 596 q 269 492 315 596 q 244 361 244 436 q 332 151 244 210 q 419 125 371 125 q 569 228 522 125 q 594 357 594 283 q 504 572 594 515 q 419 596 467 596 z "},"ñ":{"ha":849,"x_min":88,"x_max":758,"o":"m 576 1040 l 664 1040 q 532 864 656 864 q 456 881 499 864 l 357 917 q 315 925 332 925 q 263 876 274 925 q 260 863 261 869 l 172 863 q 264 1028 179 999 q 303 1035 282 1035 q 381 1017 331 1035 l 479 982 q 526 974 499 974 q 576 1040 571 974 m 88 750 l 282 750 l 282 642 q 489 763 358 756 q 507 763 497 763 q 739 622 683 763 q 758 503 758 569 l 758 0 l 564 0 l 564 463 q 439 597 564 597 q 297 519 336 597 q 282 450 282 489 l 282 0 l 88 0 l 88 750 z "},"ò":{"ha":849,"x_min":49,"x_max":790,"o":"m 229 1051 l 404 1051 l 501 843 l 404 843 l 229 1051 m 418 763 q 740 589 647 763 q 790 360 790 494 q 647 36 790 140 q 419 -32 554 -32 q 107 128 203 -32 q 49 365 49 225 q 197 700 49 596 q 418 763 288 763 m 419 606 q 271 503 318 606 q 243 365 243 444 q 328 154 243 218 q 419 125 368 125 q 567 224 518 125 q 596 363 596 283 q 507 579 596 519 q 419 606 461 603 z "},"ó":{"ha":849,"x_min":49,"x_max":790,"o":"m 613 1051 l 438 843 l 340 843 l 438 1051 l 613 1051 m 418 763 q 740 589 647 763 q 790 360 790 494 q 647 36 790 140 q 419 -32 554 -32 q 107 128 203 -32 q 49 365 49 225 q 197 700 49 596 q 418 763 288 763 m 419 606 q 271 503 318 606 q 243 365 243 444 q 328 154 243 218 q 419 125 368 125 q 567 224 518 125 q 596 363 596 283 q 507 579 596 519 q 419 606 461 603 z "},"ô":{"ha":849,"x_min":49,"x_max":790,"o":"m 349 1051 l 497 1051 l 640 843 l 532 843 l 418 982 l 304 843 l 199 843 l 349 1051 m 418 763 q 740 589 647 763 q 790 360 790 494 q 647 36 790 140 q 419 -32 554 -32 q 107 128 203 -32 q 49 365 49 225 q 197 700 49 596 q 418 763 288 763 m 419 606 q 271 503 318 606 q 243 365 243 444 q 328 154 243 218 q 419 125 368 125 q 567 224 518 125 q 596 363 596 283 q 507 579 596 519 q 419 606 461 603 z "},"õ":{"ha":849,"x_min":49,"x_max":790,"o":"m 582 1040 l 669 1040 q 538 864 661 864 q 461 881 504 864 l 363 917 q 321 925 338 925 q 268 876 279 925 q 265 863 267 869 l 178 863 q 269 1028 185 999 q 308 1035 288 1035 q 386 1017 336 1035 l 485 982 q 532 974 504 974 q 582 1040 576 974 m 418 763 q 740 589 647 763 q 790 360 790 494 q 647 36 790 140 q 419 -32 554 -32 q 107 128 203 -32 q 49 365 49 225 q 197 700 49 596 q 418 763 288 763 m 419 606 q 271 503 318 606 q 243 365 243 444 q 328 154 243 218 q 419 125 368 125 q 567 224 518 125 q 596 363 596 283 q 507 579 596 519 q 419 606 461 603 z "},"ö":{"ha":849,"x_min":49,"x_max":790,"o":"m 367 1032 l 367 863 l 214 863 l 214 1032 l 367 1032 m 625 1032 l 625 863 l 472 863 l 472 1032 l 625 1032 m 418 763 q 740 589 647 763 q 790 360 790 494 q 647 36 790 140 q 419 -32 554 -32 q 107 128 203 -32 q 49 365 49 225 q 197 700 49 596 q 418 763 288 763 m 419 606 q 271 503 318 606 q 243 365 243 444 q 328 154 243 218 q 419 125 368 125 q 567 224 518 125 q 596 363 596 283 q 507 579 596 519 q 419 606 461 603 z "},"÷":{"ha":811,"x_min":69,"x_max":742,"o":"m 742 404 l 742 239 l 69 239 l 69 404 l 742 404 m 319 658 l 492 658 l 492 488 l 319 488 l 319 658 m 319 156 l 492 156 l 492 -15 l 319 -15 l 319 156 z "},"ø":{"ha":849,"x_min":15,"x_max":831,"o":"m 175 49 l 75 -53 l 15 3 l 119 110 q 50 365 50 210 q 204 703 50 600 q 424 763 294 763 q 676 676 572 763 l 771 774 l 831 717 l 731 615 q 796 365 796 514 q 646 31 796 135 q 425 -32 556 -32 q 188 38 279 -32 q 175 49 181 43 m 585 467 l 306 183 q 425 125 356 125 q 569 221 519 125 q 601 361 601 281 q 585 467 601 417 m 264 256 l 544 542 q 421 607 490 607 q 275 508 324 607 q 244 369 244 449 q 264 256 244 306 z "},"ù":{"ha":849,"x_min":81,"x_max":751,"o":"m 226 1051 l 401 1051 l 499 843 l 401 843 l 226 1051 m 751 0 l 557 0 l 557 89 q 350 -32 481 -25 q 332 -32 342 -32 q 100 108 156 -32 q 81 228 81 161 l 81 750 l 275 750 l 275 268 q 400 133 275 133 q 542 211 503 133 q 557 281 557 242 l 557 750 l 751 750 l 751 0 z "},"ú":{"ha":849,"x_min":81,"x_max":751,"o":"m 608 1051 l 433 843 l 336 843 l 433 1051 l 608 1051 m 751 0 l 557 0 l 557 89 q 350 -32 481 -25 q 332 -32 342 -32 q 100 108 156 -32 q 81 228 81 161 l 81 750 l 275 750 l 275 268 q 400 133 275 133 q 542 211 503 133 q 557 281 557 242 l 557 750 l 751 750 l 751 0 z "},"û":{"ha":849,"x_min":81,"x_max":751,"o":"m 344 1051 l 493 1051 l 636 843 l 528 843 l 414 982 l 300 843 l 194 843 l 344 1051 m 751 0 l 557 0 l 557 89 q 350 -32 481 -25 q 332 -32 342 -32 q 100 108 156 -32 q 81 228 81 161 l 81 750 l 275 750 l 275 268 q 400 133 275 133 q 542 211 503 133 q 557 281 557 242 l 557 750 l 751 750 l 751 0 z "},"ü":{"ha":849,"x_min":81,"x_max":751,"o":"m 361 1032 l 361 863 l 208 863 l 208 1032 l 361 1032 m 619 1032 l 619 863 l 467 863 l 467 1032 l 619 1032 m 751 0 l 557 0 l 557 89 q 350 -32 481 -25 q 332 -32 342 -32 q 100 108 156 -32 q 81 228 81 161 l 81 750 l 275 750 l 275 268 q 400 133 275 133 q 542 211 503 133 q 557 281 557 242 l 557 750 l 751 750 l 751 0 z "},"ý":{"ha":772,"x_min":13,"x_max":747,"o":"m 571 1051 l 396 843 l 299 843 l 396 1051 l 571 1051 m 547 750 l 747 750 l 439 -137 q 363 -262 404 -233 q 329 -281 349 -272 q 189 -304 272 -304 q 119 -299 158 -304 l 119 -153 q 171 -161 150 -161 q 275 -100 242 -161 q 292 -36 292 -71 l 292 -32 l 292 -31 l 13 750 l 226 750 l 392 204 l 547 750 z "},"þ":{"ha":849,"x_min":81,"x_max":797,"o":"m 275 1013 l 275 639 q 483 763 344 763 q 719 635 628 763 q 797 364 797 524 q 686 57 797 171 q 483 -32 601 -32 q 275 89 344 -32 l 275 -303 l 81 -303 l 81 1013 l 275 1013 m 439 600 q 301 500 346 600 q 275 364 275 442 q 356 158 275 219 q 439 131 393 131 q 575 225 529 131 q 603 361 603 283 q 521 574 603 513 q 439 600 485 600 z "},"ÿ":{"ha":772,"x_min":13,"x_max":747,"o":"m 326 1032 l 326 863 l 174 863 l 174 1032 l 326 1032 m 585 1032 l 585 863 l 432 863 l 432 1032 l 585 1032 m 547 750 l 747 750 l 439 -137 q 363 -262 404 -233 q 329 -281 349 -272 q 189 -304 272 -304 q 119 -299 158 -304 l 119 -153 q 171 -161 150 -161 q 275 -100 242 -161 q 292 -36 292 -71 l 292 -32 l 292 -31 l 13 750 l 226 750 l 392 204 l 547 750 z "},"Ā":{"ha":1003,"x_min":36,"x_max":976,"o":"m 714 1247 l 714 1138 l 299 1138 l 299 1247 l 714 1247 m 696 204 l 317 204 l 249 0 l 36 0 l 396 1013 l 626 1013 l 976 0 l 763 0 l 696 204 m 639 378 l 507 774 l 375 378 l 639 378 z "},"ā":{"ha":772,"x_min":39,"x_max":728,"o":"m 585 999 l 585 889 l 169 889 l 169 999 l 585 999 m 728 24 l 728 0 l 517 0 q 494 75 494 33 q 267 -32 392 -32 q 92 39 160 -32 q 39 193 39 96 q 260 429 39 392 l 338 443 q 453 468 432 458 q 460 472 454 469 q 493 531 493 490 q 381 606 493 606 q 260 561 286 606 l 247 528 l 243 503 l 56 503 q 376 763 74 763 q 683 532 683 763 l 683 115 q 719 32 683 68 q 728 24 724 28 m 493 301 l 493 354 q 411 331 467 342 l 344 318 q 238 249 253 299 l 233 215 q 301 129 233 147 q 339 125 318 125 q 486 240 460 125 q 493 301 493 268 z "},"Ă":{"ha":1003,"x_min":36,"x_max":976,"o":"m 683 1288 l 683 1272 q 604 1119 683 1174 q 500 1089 558 1089 q 347 1168 400 1089 q 317 1274 317 1215 l 317 1288 l 394 1288 q 501 1196 407 1196 q 604 1278 586 1196 q 606 1288 604 1282 l 683 1288 m 696 204 l 317 204 l 249 0 l 36 0 l 396 1013 l 626 1013 l 976 0 l 763 0 l 696 204 m 639 378 l 507 774 l 375 378 l 639 378 z "},"ă":{"ha":772,"x_min":39,"x_max":728,"o":"m 565 1039 l 565 1024 q 486 871 565 925 q 382 840 440 840 q 229 919 282 840 q 199 1025 199 967 l 199 1039 l 276 1039 q 383 947 289 947 q 486 1029 468 947 q 488 1039 486 1033 l 565 1039 m 728 24 l 728 0 l 517 0 q 494 75 494 33 q 267 -32 392 -32 q 92 39 160 -32 q 39 193 39 96 q 260 429 39 392 l 338 443 q 453 468 432 458 q 460 472 454 469 q 493 531 493 490 q 381 606 493 606 q 260 561 286 606 l 247 528 l 243 503 l 56 503 q 376 763 74 763 q 683 532 683 763 l 683 115 q 719 32 683 68 q 728 24 724 28 m 493 301 l 493 354 q 411 331 467 342 l 344 318 q 238 249 253 299 l 233 215 q 301 129 233 147 q 339 125 318 125 q 486 240 460 125 q 493 301 493 268 z "},"Ą":{"ha":1003,"x_min":36,"x_max":1004,"o":"m 696 204 l 317 204 l 249 0 l 36 0 l 396 1013 l 628 1013 l 976 0 q 828 -133 861 -50 q 819 -179 819 -157 q 925 -253 819 -253 q 1004 -246 963 -253 l 1004 -311 q 900 -324 954 -324 q 701 -232 735 -324 q 694 -192 694 -214 q 814 -24 694 -87 q 867 0 839 -10 l 763 0 l 696 204 m 640 378 l 508 774 l 375 378 l 640 378 z "},"ą":{"ha":772,"x_min":39,"x_max":761,"o":"m 728 24 l 728 0 q 576 -179 576 -81 q 682 -253 576 -253 q 761 -246 717 -253 l 761 -311 q 657 -324 711 -324 q 460 -237 497 -324 q 451 -193 451 -217 q 558 -31 451 -94 q 624 0 588 -12 l 517 0 q 494 75 494 33 q 267 -32 392 -32 q 92 39 160 -32 q 39 193 39 96 q 260 429 39 392 l 338 443 q 453 468 432 458 q 460 472 454 469 q 493 531 493 490 q 381 606 493 606 q 260 561 286 606 l 247 528 l 243 503 l 56 503 q 376 763 74 763 q 683 532 683 763 l 683 115 q 719 32 683 68 q 728 24 724 28 m 493 301 l 493 354 q 411 331 467 342 l 344 318 q 238 249 253 299 l 233 215 q 301 129 233 147 q 339 125 318 125 q 486 240 460 125 q 493 301 493 268 z "},"Ć":{"ha":1003,"x_min":61,"x_max":951,"o":"m 708 1300 l 533 1092 l 436 1092 l 533 1300 l 708 1300 m 947 669 l 749 669 q 703 778 732 742 q 532 851 644 851 q 306 697 372 851 q 272 551 279 635 q 269 494 269 524 q 400 176 269 257 q 525 143 454 143 q 731 268 679 143 q 749 346 744 303 l 951 346 q 782 38 940 140 q 519 -32 674 -32 q 157 146 281 -32 q 61 497 61 285 q 228 928 61 786 q 525 1029 347 1029 q 869 882 749 1029 q 879 869 875 875 q 947 669 938 793 z "},"ć":{"ha":772,"x_min":47,"x_max":725,"o":"m 594 1051 l 419 843 l 322 843 l 419 1051 l 594 1051 m 725 469 l 539 469 q 454 597 515 576 l 415 606 q 400 606 408 606 q 279 542 314 606 q 242 360 242 471 q 333 142 242 190 q 400 125 364 125 q 519 201 483 125 q 539 260 531 226 l 725 260 q 574 11 707 88 q 399 -32 497 -32 q 93 140 179 -32 q 47 360 47 232 q 213 717 47 619 q 401 763 292 763 q 678 626 593 763 q 717 525 704 581 q 725 469 722 499 z "},"Ĉ":{"ha":1003,"x_min":61,"x_max":951,"o":"m 538 1360 l 686 1360 l 829 1151 l 721 1151 l 607 1290 l 493 1151 l 388 1151 l 538 1360 m 947 669 l 749 669 q 703 778 732 742 q 532 851 644 851 q 306 697 372 851 q 272 551 279 635 q 269 494 269 524 q 400 176 269 257 q 525 143 454 143 q 731 268 679 143 q 749 346 744 303 l 951 346 q 782 38 940 140 q 519 -32 674 -32 q 157 146 281 -32 q 61 497 61 285 q 228 928 61 786 q 525 1029 347 1029 q 869 882 749 1029 q 879 869 875 875 q 947 669 938 793 z "},"ĉ":{"ha":772,"x_min":47,"x_max":725,"o":"m 338 1097 l 486 1097 l 629 889 l 521 889 l 407 1028 l 293 889 l 188 889 l 338 1097 m 725 469 l 539 469 q 454 597 515 576 l 415 606 q 400 606 408 606 q 279 542 314 606 q 242 360 242 471 q 333 142 242 190 q 400 125 364 125 q 519 201 483 125 q 539 260 531 226 l 725 260 q 574 11 707 88 q 399 -32 497 -32 q 93 140 179 -32 q 47 360 47 232 q 213 717 47 619 q 401 763 292 763 q 678 626 593 763 q 717 525 704 581 q 725 469 722 499 z "},"Ċ":{"ha":1003,"x_min":61,"x_max":951,"o":"m 685 1321 l 685 1151 l 532 1151 l 532 1321 l 685 1321 m 947 669 l 749 669 q 703 778 732 742 q 532 851 644 851 q 306 697 372 851 q 272 551 279 635 q 269 494 269 524 q 400 176 269 257 q 525 143 454 143 q 731 268 679 143 q 749 346 744 303 l 951 346 q 782 38 940 140 q 519 -32 674 -32 q 157 146 281 -32 q 61 497 61 285 q 228 928 61 786 q 525 1029 347 1029 q 869 882 749 1029 q 879 869 875 875 q 947 669 938 793 z "},"ċ":{"ha":772,"x_min":47,"x_max":725,"o":"m 485 1058 l 485 889 l 332 889 l 332 1058 l 485 1058 m 725 469 l 539 469 q 454 597 515 576 l 415 606 q 400 606 408 606 q 279 542 314 606 q 242 360 242 471 q 333 142 242 190 q 400 125 364 125 q 519 201 483 125 q 539 260 531 226 l 725 260 q 574 11 707 88 q 399 -32 497 -32 q 93 140 179 -32 q 47 360 47 232 q 213 717 47 619 q 401 763 292 763 q 678 626 593 763 q 717 525 704 581 q 725 469 722 499 z "},"Č":{"ha":1003,"x_min":61,"x_max":951,"o":"m 593 1092 l 444 1092 l 301 1300 l 410 1300 l 524 1165 l 638 1300 l 743 1300 l 593 1092 m 947 669 l 749 669 q 703 778 732 742 q 532 851 644 851 q 306 697 372 851 q 272 551 279 635 q 269 494 269 524 q 400 176 269 257 q 525 143 454 143 q 731 268 679 143 q 749 346 744 303 l 951 346 q 782 38 940 140 q 519 -32 674 -32 q 157 146 281 -32 q 61 497 61 285 q 228 928 61 786 q 525 1029 347 1029 q 869 882 749 1029 q 879 869 875 875 q 947 669 938 793 z "},"č":{"ha":772,"x_min":47,"x_max":725,"o":"m 474 843 l 325 843 l 182 1051 l 290 1051 l 404 917 l 518 1051 l 624 1051 l 474 843 m 725 469 l 539 469 q 454 597 515 576 l 415 606 q 400 606 408 606 q 279 542 314 606 q 242 360 242 471 q 333 142 242 190 q 400 125 364 125 q 519 201 483 125 q 539 260 531 226 l 725 260 q 574 11 707 88 q 399 -32 497 -32 q 93 140 179 -32 q 47 360 47 232 q 213 717 47 619 q 401 763 292 763 q 678 626 593 763 q 717 525 704 581 q 725 469 722 499 z "},"Ď":{"ha":1003,"x_min":107,"x_max":946,"o":"m 542 1092 l 393 1092 l 250 1300 l 358 1300 l 472 1165 l 586 1300 l 692 1300 l 542 1092 m 107 0 l 107 1013 l 503 1013 q 801 918 707 1013 q 822 896 813 907 q 946 507 946 749 q 822 118 946 263 q 535 0 731 7 q 503 0 519 0 l 107 0 m 315 174 l 503 174 q 738 506 738 174 q 503 839 738 839 l 315 839 l 315 174 z "},"ď":{"ha":849,"x_min":40,"x_max":1000,"o":"m 831 1013 l 1000 1013 l 1000 869 q 921 700 1000 756 q 831 669 882 671 l 831 733 q 924 857 924 751 l 831 857 l 831 1013 m 563 0 l 563 76 q 356 -32 490 -32 q 153 50 239 -32 q 121 88 135 68 q 40 364 40 204 q 150 671 40 554 q 356 763 236 763 q 563 653 492 763 l 563 1013 l 757 1013 l 757 0 l 563 0 m 399 600 q 263 501 307 600 q 235 364 235 443 q 314 160 235 221 q 399 131 351 131 q 536 229 492 131 q 563 361 563 286 q 481 574 563 513 q 399 600 444 600 z "},"Đ":{"ha":1003,"x_min":0,"x_max":946,"o":"m 107 471 l 0 471 l 0 582 l 107 582 l 107 1013 l 503 1013 q 794 926 701 1013 l 824 896 q 944 554 931 761 q 946 507 946 531 q 842 143 946 293 q 824 118 833 129 q 564 1 740 14 q 503 0 535 0 l 107 0 l 107 471 m 315 471 l 315 174 l 503 174 q 679 244 628 174 q 682 249 681 246 q 746 506 746 339 q 682 764 746 674 q 503 839 622 836 l 315 839 l 315 582 l 524 582 l 524 471 l 315 471 z "},"đ":{"ha":849,"x_min":40,"x_max":840,"o":"m 563 828 l 378 828 l 378 921 l 563 921 l 563 1013 l 757 1013 l 757 921 l 840 921 l 840 828 l 757 828 l 757 0 l 563 0 l 563 76 q 356 -32 490 -32 q 122 93 214 -32 q 40 364 40 204 q 150 671 40 554 q 356 763 236 763 q 563 653 492 763 l 563 828 m 399 600 q 263 504 310 600 q 235 364 235 444 q 314 160 235 221 q 399 131 351 131 q 536 229 492 131 q 563 361 563 286 q 481 574 563 513 q 399 600 444 600 z "},"Ē":{"ha":926,"x_min":110,"x_max":867,"o":"m 686 1247 l 686 1138 l 271 1138 l 271 1247 l 686 1247 m 318 436 l 318 174 l 867 174 l 867 0 l 110 0 l 110 1013 l 842 1013 l 842 839 l 318 839 l 318 610 l 803 610 l 803 436 l 318 436 z "},"ē":{"ha":772,"x_min":31,"x_max":729,"o":"m 597 999 l 597 889 l 182 889 l 182 999 l 597 999 m 728 314 l 225 314 q 253 182 229 219 q 381 117 296 117 q 525 201 485 117 q 529 211 528 206 l 721 211 q 546 7 681 71 q 374 -32 468 -32 q 86 121 176 -32 q 31 356 31 217 q 175 701 31 596 q 378 763 258 763 q 649 638 551 763 q 696 554 678 600 q 700 544 699 549 q 729 347 729 460 q 728 314 729 331 m 228 443 l 526 443 q 496 551 521 513 q 375 614 451 614 q 228 443 247 614 z "},"Ĕ":{"ha":926,"x_min":110,"x_max":867,"o":"m 658 1350 l 658 1335 q 579 1182 658 1236 q 475 1151 533 1151 q 322 1231 375 1151 q 292 1336 292 1278 l 292 1350 l 369 1350 q 476 1258 382 1258 q 579 1340 561 1258 q 581 1350 579 1344 l 658 1350 m 318 436 l 318 174 l 867 174 l 867 0 l 110 0 l 110 1013 l 842 1013 l 842 839 l 318 839 l 318 610 l 803 610 l 803 436 l 318 436 z "},"ĕ":{"ha":772,"x_min":31,"x_max":729,"o":"m 544 1088 l 544 1072 q 465 919 544 974 q 361 889 419 889 q 208 968 261 889 q 178 1074 178 1015 l 178 1088 l 256 1088 q 363 996 268 996 q 465 1078 447 996 q 467 1088 465 1082 l 544 1088 m 728 314 l 225 314 q 253 182 229 219 q 381 117 296 117 q 525 201 485 117 q 529 211 528 206 l 721 211 q 546 7 681 71 q 374 -32 468 -32 q 86 121 176 -32 q 31 356 31 217 q 175 701 31 596 q 378 763 258 763 q 649 638 551 763 q 696 554 678 600 q 700 544 699 549 q 729 347 729 460 q 728 314 729 331 m 228 443 l 526 443 q 496 551 521 513 q 375 614 451 614 q 228 443 247 614 z "},"Ė":{"ha":926,"x_min":110,"x_max":867,"o":"m 554 1281 l 554 1111 l 401 1111 l 401 1281 l 554 1281 m 318 436 l 318 174 l 867 174 l 867 0 l 110 0 l 110 1013 l 842 1013 l 842 839 l 318 839 l 318 610 l 803 610 l 803 436 l 318 436 z "},"ė":{"ha":772,"x_min":31,"x_max":729,"o":"m 464 1032 l 464 863 l 311 863 l 311 1032 l 464 1032 m 728 314 l 225 314 q 253 182 229 219 q 381 117 296 117 q 525 201 485 117 q 529 211 528 206 l 721 211 q 546 7 681 71 q 374 -32 468 -32 q 86 121 176 -32 q 31 356 31 217 q 175 701 31 596 q 378 763 258 763 q 649 638 551 763 q 696 554 678 600 q 700 544 699 549 q 729 347 729 460 q 728 314 729 331 m 228 443 l 526 443 q 496 551 521 513 q 375 614 451 614 q 228 443 247 614 z "},"Ę":{"ha":926,"x_min":110,"x_max":900,"o":"m 318 436 l 318 174 l 867 174 l 867 0 q 715 -179 715 -81 q 821 -253 715 -253 q 900 -246 858 -253 l 900 -311 q 797 -324 844 -324 q 596 -231 629 -324 q 590 -192 590 -212 q 746 -8 590 -83 q 764 0 754 -4 l 110 0 l 110 1013 l 842 1013 l 842 839 l 318 839 l 318 610 l 803 610 l 803 436 l 318 436 z "},"ę":{"ha":772,"x_min":29,"x_max":729,"o":"m 664 -246 l 664 -311 q 554 -325 610 -325 q 367 -243 408 -325 q 354 -190 354 -219 q 426 -61 354 -122 q 486 -15 450 -40 q 372 -33 421 -33 q 88 118 178 -33 q 29 356 29 215 q 174 701 29 596 q 376 763 257 763 q 647 640 549 763 q 700 544 681 597 q 729 347 729 461 q 728 314 729 331 l 225 314 q 253 181 229 219 q 381 115 294 115 q 528 211 489 115 l 719 211 q 658 92 700 143 q 603 29 640 69 q 483 -144 499 -85 q 479 -182 479 -162 q 585 -254 479 -254 q 664 -246 625 -254 m 226 443 l 526 443 q 494 551 521 514 q 375 614 451 614 q 226 443 244 614 z "},"Ě":{"ha":926,"x_min":110,"x_max":867,"o":"m 549 1092 l 400 1092 l 257 1300 l 365 1300 l 479 1165 l 593 1300 l 699 1300 l 549 1092 m 318 436 l 318 174 l 867 174 l 867 0 l 110 0 l 110 1013 l 842 1013 l 842 839 l 318 839 l 318 610 l 803 610 l 803 436 l 318 436 z "},"ě":{"ha":772,"x_min":31,"x_max":729,"o":"m 460 843 l 311 843 l 168 1051 l 276 1051 l 390 917 l 504 1051 l 610 1051 l 460 843 m 728 314 l 225 314 q 253 182 229 219 q 381 117 296 117 q 525 201 485 117 q 529 211 528 206 l 721 211 q 546 7 681 71 q 374 -32 468 -32 q 86 121 176 -32 q 31 356 31 217 q 175 701 31 596 q 378 763 258 763 q 649 638 551 763 q 696 554 678 600 q 700 544 699 549 q 729 347 729 460 q 728 314 729 331 m 228 443 l 526 443 q 496 551 521 513 q 375 614 451 614 q 228 443 247 614 z "},"Ĝ":{"ha":1081,"x_min":58,"x_max":988,"o":"m 458 1360 l 607 1360 l 750 1151 l 642 1151 l 528 1290 l 414 1151 l 308 1151 l 458 1360 m 988 544 l 988 -3 l 863 -3 l 838 131 q 596 -28 743 -8 q 532 -32 565 -32 q 192 119 325 -32 q 58 499 58 269 q 213 900 58 753 q 549 1029 346 1029 q 901 889 779 1029 l 935 844 q 988 689 978 775 l 792 689 q 729 790 768 757 q 550 851 660 851 q 307 701 379 851 q 267 501 267 619 q 376 215 267 317 q 556 146 451 146 q 757 236 676 146 q 763 243 760 239 q 813 371 806 293 l 582 371 l 582 544 l 988 544 z "},"ĝ":{"ha":849,"x_min":47,"x_max":751,"o":"m 425 1097 l 574 1097 l 717 889 l 608 889 l 494 1028 l 381 889 l 275 889 l 425 1097 m 567 750 l 751 750 l 751 -25 q 582 -272 751 -206 q 463 -300 529 -293 q 394 -303 431 -303 q 136 -231 225 -303 q 63 -90 64 -171 l 264 -90 q 401 -178 288 -178 q 547 -101 504 -178 q 567 -25 567 -68 l 567 76 q 414 -26 489 -11 q 354 -32 388 -32 q 110 106 194 -32 q 47 357 47 208 q 157 671 47 553 q 358 763 242 763 q 561 643 479 763 q 567 635 564 639 l 567 750 m 400 600 q 267 499 310 600 q 242 360 242 439 q 318 158 242 218 q 397 131 354 131 q 542 228 494 131 q 569 360 569 283 q 493 564 569 496 q 400 600 451 600 z "},"Ğ":{"ha":1081,"x_min":58,"x_max":988,"o":"m 736 1288 l 736 1272 q 657 1119 736 1174 q 553 1089 611 1089 q 400 1168 453 1089 q 369 1274 369 1215 l 369 1288 l 447 1288 q 554 1196 460 1196 q 657 1278 639 1196 q 658 1288 657 1282 l 736 1288 m 988 544 l 988 -3 l 863 -3 l 838 131 q 596 -28 743 -8 q 532 -32 565 -32 q 192 119 325 -32 q 58 499 58 269 q 213 900 58 753 q 549 1029 346 1029 q 901 889 779 1029 l 935 844 q 988 689 978 775 l 792 689 q 729 790 768 757 q 550 851 660 851 q 307 701 379 851 q 267 501 267 619 q 376 215 267 317 q 556 146 451 146 q 757 236 676 146 q 763 243 760 239 q 813 371 806 293 l 582 371 l 582 544 l 988 544 z "},"ğ":{"ha":849,"x_min":47,"x_max":751,"o":"m 608 1039 l 608 1024 q 529 871 608 925 q 425 840 483 840 q 272 919 325 840 q 242 1025 242 967 l 242 1039 l 319 1039 q 426 947 332 947 q 529 1029 511 947 q 531 1039 529 1033 l 608 1039 m 567 750 l 751 750 l 751 -25 q 582 -272 751 -206 q 463 -300 529 -293 q 394 -303 431 -303 q 136 -231 225 -303 q 63 -90 64 -171 l 264 -90 q 401 -178 288 -178 q 547 -101 504 -178 q 567 -25 567 -68 l 567 76 q 414 -26 489 -11 q 354 -32 388 -32 q 110 106 194 -32 q 47 357 47 208 q 157 671 47 553 q 358 763 242 763 q 561 643 479 763 q 567 635 564 639 l 567 750 m 400 600 q 267 499 310 600 q 242 360 242 439 q 318 158 242 218 q 397 131 354 131 q 542 228 494 131 q 569 360 569 283 q 493 564 569 496 q 400 600 451 600 z "},"Ġ":{"ha":1081,"x_min":58,"x_max":988,"o":"m 606 1321 l 606 1151 l 453 1151 l 453 1321 l 606 1321 m 988 544 l 988 -3 l 863 -3 l 838 131 q 596 -28 743 -8 q 532 -32 565 -32 q 192 119 325 -32 q 58 499 58 269 q 213 900 58 753 q 549 1029 346 1029 q 901 889 779 1029 l 935 844 q 988 689 978 775 l 792 689 q 729 790 768 757 q 550 851 660 851 q 307 701 379 851 q 267 501 267 619 q 376 215 267 317 q 556 146 451 146 q 757 236 676 146 q 763 243 760 239 q 813 371 806 293 l 582 371 l 582 544 l 988 544 z "},"ġ":{"ha":849,"x_min":47,"x_max":751,"o":"m 572 1058 l 572 889 l 419 889 l 419 1058 l 572 1058 m 567 750 l 751 750 l 751 -25 q 582 -272 751 -206 q 463 -300 529 -293 q 394 -303 431 -303 q 136 -231 225 -303 q 63 -90 64 -171 l 264 -90 q 401 -178 288 -178 q 547 -101 504 -178 q 567 -25 567 -68 l 567 76 q 414 -26 489 -11 q 354 -32 388 -32 q 110 106 194 -32 q 47 357 47 208 q 157 671 47 553 q 358 763 242 763 q 561 643 479 763 q 567 635 564 639 l 567 750 m 400 600 q 267 499 310 600 q 242 360 242 439 q 318 158 242 218 q 397 131 354 131 q 542 228 494 131 q 569 360 569 283 q 493 564 569 496 q 400 600 451 600 z "},"Ģ":{"ha":1081,"x_min":58,"x_max":988,"o":"m 461 -83 l 631 -83 l 631 -226 q 551 -396 631 -340 q 461 -426 513 -425 l 461 -362 q 554 -239 554 -344 l 461 -239 l 461 -83 m 988 544 l 988 -3 l 863 -3 l 838 131 q 596 -28 743 -8 q 532 -32 565 -32 q 192 119 325 -32 q 58 499 58 269 q 213 900 58 753 q 549 1029 346 1029 q 901 889 779 1029 l 935 844 q 988 689 978 775 l 792 689 q 729 790 768 757 q 550 851 660 851 q 307 701 379 851 q 267 501 267 619 q 376 215 267 317 q 556 146 451 146 q 757 236 676 146 q 763 243 760 239 q 813 371 806 293 l 582 371 l 582 544 l 988 544 z "},"ģ":{"ha":849,"x_min":47,"x_max":751,"o":"m 507 842 l 338 842 l 338 985 q 417 1154 338 1099 q 507 1185 456 1183 l 507 1121 q 414 997 414 1103 l 507 997 l 507 842 m 567 750 l 751 750 l 751 -25 q 582 -272 751 -206 q 463 -300 529 -293 q 394 -303 431 -303 q 136 -231 225 -303 q 63 -90 64 -171 l 264 -90 q 401 -178 288 -178 q 547 -101 504 -178 q 567 -25 567 -68 l 567 76 q 414 -26 489 -11 q 354 -32 388 -32 q 110 106 194 -32 q 47 357 47 208 q 157 671 47 553 q 358 763 242 763 q 561 643 479 763 q 567 635 564 639 l 567 750 m 400 600 q 267 499 310 600 q 242 360 242 439 q 318 158 242 218 q 397 131 354 131 q 542 228 494 131 q 569 360 569 283 q 493 564 569 496 q 400 600 451 600 z "},"Ĥ":{"ha":1003,"x_min":94,"x_max":913,"o":"m 432 1360 l 581 1360 l 724 1151 l 615 1151 l 501 1290 l 388 1151 l 282 1151 l 432 1360 m 704 460 l 303 460 l 303 0 l 94 0 l 94 1013 l 303 1013 l 303 633 l 703 633 l 703 1013 l 913 1013 l 913 0 l 704 0 l 704 460 z "},"ĥ":{"ha":849,"x_min":93,"x_max":751,"o":"m 313 1360 l 461 1360 l 604 1151 l 496 1151 l 382 1290 l 268 1151 l 163 1151 l 313 1360 m 93 1013 l 288 1013 l 288 642 q 507 763 368 763 q 675 706 607 763 q 751 503 751 642 l 751 0 l 557 0 l 557 458 q 535 551 557 518 q 438 597 501 597 q 306 525 346 597 q 288 450 288 492 l 288 0 l 93 0 l 93 1013 z "},"Ħ":{"ha":1003,"x_min":11,"x_max":996,"o":"m 913 832 l 996 832 l 996 739 l 913 739 l 913 0 l 704 0 l 704 460 l 303 460 l 303 0 l 94 0 l 94 739 l 11 739 l 11 832 l 94 832 l 94 1013 l 303 1013 l 303 832 l 703 832 l 703 1013 l 913 1013 l 913 832 m 703 739 l 303 739 l 303 633 l 703 633 l 703 739 z "},"ħ":{"ha":849,"x_min":11,"x_max":751,"o":"m 93 921 l 93 1013 l 288 1013 l 288 921 l 474 921 l 474 828 l 288 828 l 288 642 q 507 763 368 763 q 675 706 607 763 q 751 503 751 642 l 751 0 l 557 0 l 557 458 q 535 551 557 518 q 438 597 501 597 q 306 525 346 597 q 288 450 288 492 l 288 0 l 93 0 l 93 828 l 11 828 l 11 921 l 93 921 z "},"Ĩ":{"ha":386,"x_min":-54,"x_max":438,"o":"m 350 1329 l 438 1329 q 306 1153 429 1153 q 229 1169 272 1153 l 131 1206 q 89 1214 106 1214 q 36 1165 47 1214 q 33 1151 35 1158 l -54 1151 q 38 1317 -47 1288 q 76 1324 56 1324 q 154 1306 104 1324 l 253 1271 q 300 1263 272 1263 q 350 1329 344 1263 m 296 1013 l 296 0 l 88 0 l 88 1013 l 296 1013 z "},"ĩ":{"ha":386,"x_min":-56,"x_max":436,"o":"m 349 1067 l 436 1067 q 304 890 428 890 q 228 907 271 890 l 129 943 q 88 951 104 951 q 35 903 46 951 q 32 889 33 896 l -56 889 q 36 1054 -49 1025 q 75 1061 54 1061 q 153 1043 103 1061 l 251 1008 q 299 1000 271 1000 q 349 1067 343 1000 m 288 750 l 288 0 l 93 0 l 93 750 l 288 750 z "},"Ī":{"ha":386,"x_min":3,"x_max":381,"o":"m 381 1247 l 381 1138 l 4 1138 l 4 1247 l 381 1247 m 296 1013 l 296 0 l 88 0 l 88 1013 l 296 1013 z "},"ī":{"ha":386,"x_min":10,"x_max":369,"o":"m 371 999 l 371 889 l 11 889 l 11 999 l 371 999 m 288 750 l 288 0 l 93 0 l 93 750 l 288 750 z "},"Ĭ":{"ha":386,"x_min":8,"x_max":375,"o":"m 375 1350 l 375 1335 q 296 1182 375 1236 q 192 1151 250 1151 q 39 1231 92 1151 q 8 1336 8 1278 l 8 1350 l 86 1350 q 193 1258 99 1258 q 296 1340 278 1258 q 297 1350 296 1344 l 375 1350 m 296 1013 l 296 0 l 88 0 l 88 1013 l 296 1013 z "},"ĭ":{"ha":386,"x_min":7,"x_max":374,"o":"m 374 1088 l 374 1072 q 294 919 374 974 q 190 889 249 889 q 38 968 90 889 q 7 1074 7 1015 l 7 1088 l 85 1088 q 192 996 97 996 q 294 1078 276 996 q 296 1088 294 1082 l 374 1088 m 288 750 l 288 0 l 93 0 l 93 750 l 288 750 z "},"Į":{"ha":386,"x_min":47,"x_max":329,"o":"m 296 1013 l 296 0 q 172 -182 172 -89 q 226 -249 172 -232 q 260 -253 242 -253 q 329 -246 292 -253 l 329 -311 q 232 -324 275 -324 q 60 -243 99 -324 q 47 -189 47 -218 q 204 0 47 -83 l 88 0 l 88 1013 l 296 1013 z "},"į":{"ha":386,"x_min":47,"x_max":321,"o":"m 288 750 l 288 0 q 172 -178 172 -81 q 203 -237 172 -219 q 260 -253 229 -253 q 321 -246 281 -253 l 321 -311 q 233 -324 265 -324 q 58 -242 96 -324 q 47 -189 47 -218 q 200 0 47 -90 l 93 0 l 93 750 l 288 750 m 288 1013 l 288 839 l 93 839 l 93 1013 l 288 1013 z "},"İ":{"ha":386,"x_min":88,"x_max":296,"o":"m 268 1281 l 268 1111 l 115 1111 l 115 1281 l 268 1281 m 296 1013 l 296 0 l 88 0 l 88 1013 l 296 1013 z "},"ı":{"ha":386,"x_min":93,"x_max":288,"o":"m 288 750 l 288 0 l 93 0 l 93 750 l 288 750 z "},"Ĳ":{"ha":1122,"x_min":88,"x_max":1028,"o":"m 819 1013 l 1028 1013 l 1028 264 q 863 -4 1028 61 q 703 -32 794 -32 q 471 49 560 -32 q 386 250 392 122 q 386 275 386 263 l 386 375 l 594 375 l 594 278 q 669 150 594 167 q 707 146 686 146 q 818 243 808 146 q 819 264 819 253 l 819 1013 m 296 1013 l 296 0 l 88 0 l 88 1013 l 296 1013 z "},"ĳ":{"ha":683,"x_min":93,"x_max":581,"o":"m 581 750 l 581 -131 q 492 -292 581 -262 q 410 -303 458 -303 q 294 -296 360 -303 l 294 -140 q 329 -146 313 -146 q 385 -107 379 -146 q 386 -87 386 -99 l 386 750 l 581 750 m 581 1013 l 581 839 l 386 839 l 386 1013 l 581 1013 m 288 750 l 288 0 l 93 0 l 93 750 l 288 750 m 288 1013 l 288 839 l 93 839 l 93 1013 l 288 1013 z "},"Ĵ":{"ha":772,"x_min":33,"x_max":792,"o":"m 500 1360 l 649 1360 l 792 1151 l 683 1151 l 569 1290 l 456 1151 l 350 1151 l 500 1360 m 467 1013 l 675 1013 l 675 264 q 510 -4 675 61 q 350 -32 442 -32 q 118 49 207 -32 q 33 250 39 122 q 33 275 33 263 l 33 375 l 242 375 l 242 278 q 317 150 242 167 q 354 146 333 146 q 465 243 456 146 q 467 264 467 253 l 467 1013 z "},"ĵ":{"ha":386,"x_min":-26,"x_max":415,"o":"m 292 750 l 292 -131 q 203 -292 292 -262 q 121 -303 169 -303 q 6 -296 71 -303 l 6 -140 q 40 -146 24 -146 q 96 -107 90 -146 q 97 -87 97 -99 l 97 750 l 292 750 m 124 1088 l 272 1088 l 415 879 l 307 879 l 193 1018 l 79 879 l -26 879 l 124 1088 z "},"Ķ":{"ha":1003,"x_min":103,"x_max":996,"o":"m 438 -83 l 607 -83 l 607 -226 q 528 -396 607 -340 q 438 -426 489 -425 l 438 -362 q 531 -239 531 -344 l 438 -239 l 438 -83 m 311 339 l 311 0 l 103 0 l 103 1013 l 311 1013 l 311 568 l 707 1013 l 953 1013 l 549 576 l 996 0 l 747 0 l 415 447 l 311 339 z "},"ķ":{"ha":772,"x_min":82,"x_max":761,"o":"m 318 -83 l 488 -83 l 488 -226 q 408 -396 488 -340 q 318 -426 369 -425 l 318 -362 q 411 -239 411 -344 l 318 -239 l 318 -83 m 276 458 l 522 750 l 743 750 l 488 467 l 761 0 l 533 0 l 354 331 l 276 246 l 276 0 l 82 0 l 82 1013 l 276 1013 l 276 458 z "},"ĸ":{"ha":796,"x_min":83,"x_max":763,"o":"m 278 488 l 503 750 l 708 750 l 411 411 l 763 0 l 510 0 l 278 275 l 278 0 l 83 0 l 83 750 l 278 750 l 278 488 z "},"Ĺ":{"ha":849,"x_min":111,"x_max":804,"o":"m 414 1300 l 239 1092 l 142 1092 l 239 1300 l 414 1300 m 319 1013 l 319 174 l 804 174 l 804 0 l 111 0 l 111 1013 l 319 1013 z "},"ĺ":{"ha":386,"x_min":93,"x_max":386,"o":"m 386 1300 l 211 1092 l 114 1092 l 211 1300 l 386 1300 m 288 1013 l 288 0 l 93 0 l 93 1013 l 288 1013 z "},"Ļ":{"ha":849,"x_min":111,"x_max":804,"o":"m 374 -83 l 543 -83 l 543 -226 q 464 -396 543 -340 q 374 -426 425 -425 l 374 -362 q 467 -239 467 -344 l 374 -239 l 374 -83 m 319 1013 l 319 174 l 804 174 l 804 0 l 111 0 l 111 1013 l 319 1013 z "},"ļ":{"ha":386,"x_min":93,"x_max":288,"o":"m 108 -83 l 278 -83 l 278 -226 q 199 -396 278 -340 q 108 -426 160 -425 l 108 -362 q 201 -239 201 -344 l 108 -239 l 108 -83 m 288 1013 l 288 0 l 93 0 l 93 1013 l 288 1013 z "},"Ľ":{"ha":849,"x_min":111,"x_max":804,"o":"m 458 1013 l 628 1013 l 628 869 q 549 700 628 756 q 458 669 510 671 l 458 733 q 551 857 551 751 l 458 857 l 458 1013 m 319 1013 l 319 174 l 804 174 l 804 0 l 111 0 l 111 1013 l 319 1013 z "},"ľ":{"ha":386,"x_min":93,"x_max":531,"o":"m 361 1011 l 531 1011 l 531 868 q 451 699 531 754 q 361 668 413 669 l 361 732 q 454 856 454 750 l 361 856 l 361 1011 m 288 1013 l 288 0 l 93 0 l 93 1013 l 288 1013 z "},"Ŀ":{"ha":849,"x_min":111,"x_max":804,"o":"m 465 614 l 638 614 l 638 443 l 465 443 l 465 614 m 319 1013 l 319 174 l 804 174 l 804 0 l 111 0 l 111 1013 l 319 1013 z "},"ŀ":{"ha":772,"x_min":93,"x_max":617,"o":"m 444 594 l 617 594 l 617 424 l 444 424 l 444 594 m 288 1013 l 288 0 l 93 0 l 93 1013 l 288 1013 z "},"Ł":{"ha":849,"x_min":0,"x_max":829,"o":"m 319 588 l 549 743 l 549 621 l 319 464 l 319 174 l 829 174 l 829 0 l 111 0 l 111 357 l 0 279 l 0 403 l 111 481 l 111 1013 l 319 1013 l 319 588 z "},"ł":{"ha":386,"x_min":0,"x_max":350,"o":"m 272 614 l 350 669 l 350 560 l 272 504 l 272 0 l 78 0 l 78 408 l 0 353 l 0 463 l 78 518 l 78 1013 l 272 1013 l 272 614 z "},"Ń":{"ha":1003,"x_min":94,"x_max":918,"o":"m 694 1300 l 519 1092 l 422 1092 l 519 1300 l 694 1300 m 710 0 l 303 700 l 303 0 l 94 0 l 94 1013 l 308 1013 l 710 324 l 710 1013 l 918 1013 l 918 0 l 710 0 z "},"ń":{"ha":849,"x_min":88,"x_max":758,"o":"m 611 1051 l 436 843 l 339 843 l 436 1051 l 611 1051 m 88 750 l 282 750 l 282 642 q 489 763 358 756 q 507 763 497 763 q 739 622 683 763 q 758 503 758 569 l 758 0 l 564 0 l 564 463 q 439 597 564 597 q 297 519 336 597 q 282 450 282 489 l 282 0 l 88 0 l 88 750 z "},"Ņ":{"ha":1003,"x_min":94,"x_max":918,"o":"m 417 -83 l 586 -83 l 586 -226 q 507 -396 586 -340 q 417 -426 468 -425 l 417 -362 q 510 -239 510 -344 l 417 -239 l 417 -83 m 710 0 l 303 700 l 303 0 l 94 0 l 94 1013 l 308 1013 l 710 324 l 710 1013 l 918 1013 l 918 0 l 710 0 z "},"ņ":{"ha":849,"x_min":88,"x_max":758,"o":"m 339 -83 l 508 -83 l 508 -226 q 429 -396 508 -340 q 339 -426 390 -425 l 339 -362 q 432 -239 432 -344 l 339 -239 l 339 -83 m 88 750 l 282 750 l 282 642 q 489 763 358 756 q 507 763 497 763 q 739 622 683 763 q 758 503 758 569 l 758 0 l 564 0 l 564 463 q 439 597 564 597 q 297 519 336 597 q 282 450 282 489 l 282 0 l 88 0 l 88 750 z "},"Ň":{"ha":1003,"x_min":94,"x_max":918,"o":"m 579 1092 l 431 1092 l 288 1300 l 396 1300 l 510 1165 l 624 1300 l 729 1300 l 579 1092 m 710 0 l 303 700 l 303 0 l 94 0 l 94 1013 l 308 1013 l 710 324 l 710 1013 l 918 1013 l 918 0 l 710 0 z "},"ň":{"ha":849,"x_min":88,"x_max":758,"o":"m 486 843 l 338 843 l 194 1051 l 303 1051 l 417 917 l 531 1051 l 636 1051 l 486 843 m 88 750 l 282 750 l 282 642 q 489 763 358 756 q 507 763 497 763 q 739 622 683 763 q 758 503 758 569 l 758 0 l 564 0 l 564 463 q 439 597 564 597 q 297 519 336 597 q 282 450 282 489 l 282 0 l 88 0 l 88 750 z "},"ŉ":{"ha":849,"x_min":88,"x_max":758,"o":"m 88 750 l 282 750 l 282 642 q 489 763 358 756 q 507 763 497 763 q 739 622 683 763 q 758 503 758 569 l 758 0 l 564 0 l 564 463 q 439 597 564 597 q 297 519 336 597 q 282 450 282 489 l 282 0 l 88 0 l 88 750 z "},"Ŋ":{"ha":1003,"x_min":94,"x_max":918,"o":"m 710 0 l 303 700 l 303 0 l 94 0 l 94 1013 l 308 1013 l 710 324 l 710 1013 l 918 1013 l 918 0 l 710 0 z "},"ŋ":{"ha":849,"x_min":88,"x_max":758,"o":"m 88 750 l 282 750 l 282 642 q 489 763 358 756 q 507 763 497 763 q 739 622 683 763 q 758 503 758 569 l 758 0 l 564 0 l 564 463 q 439 597 564 597 q 297 519 336 597 q 282 450 282 489 l 282 0 l 88 0 l 88 750 z "},"Ō":{"ha":1081,"x_min":56,"x_max":1031,"o":"m 750 1247 l 750 1138 l 335 1138 l 335 1247 l 750 1247 m 542 1029 q 889 889 758 1029 q 1031 510 1025 743 q 1031 492 1031 501 q 932 163 1031 307 q 889 108 913 133 q 543 -32 758 -32 q 197 108 328 -32 q 57 451 72 242 q 56 499 56 475 q 178 867 56 717 q 197 889 188 878 q 542 1029 326 1029 m 543 851 q 317 721 393 851 l 292 668 q 264 499 264 593 q 378 203 264 299 q 543 146 447 146 q 767 274 689 146 q 822 493 822 364 q 701 800 822 707 q 543 851 635 851 z "},"ō":{"ha":849,"x_min":49,"x_max":790,"o":"m 626 999 l 626 889 l 211 889 l 211 999 l 626 999 m 418 763 q 740 589 647 763 q 790 360 790 494 q 647 36 790 140 q 419 -32 554 -32 q 107 128 203 -32 q 49 365 49 225 q 197 700 49 596 q 418 763 288 763 m 419 606 q 271 503 318 606 q 243 365 243 444 q 328 154 243 218 q 419 125 368 125 q 567 224 518 125 q 596 363 596 283 q 507 579 596 519 q 419 606 461 603 z "},"Ŏ":{"ha":1081,"x_min":56,"x_max":1031,"o":"m 726 1350 l 726 1335 q 647 1182 726 1236 q 543 1151 601 1151 q 390 1231 443 1151 q 360 1336 360 1278 l 360 1350 l 438 1350 q 544 1258 450 1258 q 647 1340 629 1258 q 649 1350 647 1344 l 726 1350 m 542 1029 q 889 889 758 1029 q 1031 510 1025 743 q 1031 492 1031 501 q 932 163 1031 307 q 889 108 913 133 q 543 -32 758 -32 q 197 108 328 -32 q 57 451 72 242 q 56 499 56 475 q 178 867 56 717 q 197 889 188 878 q 542 1029 326 1029 m 543 851 q 317 721 393 851 l 292 668 q 264 499 264 593 q 378 203 264 299 q 543 146 447 146 q 767 274 689 146 q 822 493 822 364 q 701 800 822 707 q 543 851 635 851 z "},"ŏ":{"ha":849,"x_min":49,"x_max":790,"o":"m 603 1088 l 603 1072 q 524 919 603 974 q 419 889 478 889 q 267 968 319 889 q 236 1074 236 1015 l 236 1088 l 314 1088 q 421 996 326 996 q 524 1078 506 996 q 525 1088 524 1082 l 603 1088 m 418 763 q 740 589 647 763 q 790 360 790 494 q 647 36 790 140 q 419 -32 554 -32 q 107 128 203 -32 q 49 365 49 225 q 197 700 49 596 q 418 763 288 763 m 419 606 q 271 503 318 606 q 243 365 243 444 q 328 154 243 218 q 419 125 368 125 q 567 224 518 125 q 596 363 596 283 q 507 579 596 519 q 419 606 461 603 z "},"Ő":{"ha":1081,"x_min":56,"x_max":1031,"o":"m 640 1300 l 465 1096 l 368 1096 l 465 1300 l 640 1300 m 901 1300 l 726 1096 l 629 1096 l 726 1300 l 901 1300 m 542 1029 q 889 889 758 1029 q 1031 510 1025 743 q 1031 492 1031 501 q 932 163 1031 307 q 889 108 913 133 q 543 -32 758 -32 q 197 108 328 -32 q 57 451 72 242 q 56 499 56 475 q 178 867 56 717 q 197 889 188 878 q 542 1029 326 1029 m 543 851 q 317 721 393 851 l 292 668 q 264 499 264 593 q 378 203 264 299 q 543 146 447 146 q 767 274 689 146 q 822 493 822 364 q 701 800 822 707 q 543 851 635 851 z "},"ő":{"ha":849,"x_min":49,"x_max":790,"o":"m 515 1051 l 340 847 l 243 847 l 340 1051 l 515 1051 m 776 1051 l 601 847 l 504 847 l 601 1051 l 776 1051 m 418 763 q 740 589 647 763 q 790 360 790 494 q 647 36 790 140 q 419 -32 554 -32 q 107 128 203 -32 q 49 365 49 225 q 197 700 49 596 q 418 763 288 763 m 419 606 q 271 503 318 606 q 243 365 243 444 q 328 154 243 218 q 419 125 368 125 q 567 224 518 125 q 596 363 596 283 q 507 579 596 519 q 419 606 461 603 z "},"Œ":{"ha":1389,"x_min":39,"x_max":1347,"o":"m 867 436 l 867 174 l 1347 174 l 1347 0 l 667 0 l 667 82 q 522 -25 596 -7 q 451 -32 492 -32 q 151 122 268 -32 q 39 499 39 271 q 176 907 39 757 q 457 1029 290 1029 q 635 969 561 1029 q 667 940 650 957 l 667 1013 l 1321 1013 l 1321 839 l 867 839 l 867 610 l 1282 610 l 1282 436 l 867 436 m 658 247 l 658 750 q 510 851 604 846 q 494 851 503 851 q 294 721 363 851 l 271 664 q 247 499 247 590 q 353 200 247 296 q 493 146 413 146 q 654 240 597 146 q 658 247 657 243 z "},"œ":{"ha":1311,"x_min":32,"x_max":1278,"o":"m 1078 211 l 1269 211 q 1090 4 1226 68 q 947 -31 1025 -26 q 922 -32 935 -32 q 674 72 765 -32 q 403 -32 567 -32 q 90 128 186 -32 q 32 365 32 225 q 185 703 32 600 q 403 763 274 763 q 674 657 572 763 q 924 763 764 763 q 1199 635 1101 763 q 1249 544 1231 594 q 1278 347 1278 460 q 1276 314 1278 331 l 774 314 q 803 183 775 228 q 932 117 842 118 q 1060 178 1015 117 q 1078 211 1072 193 m 403 606 q 254 503 301 606 q 226 365 226 444 q 311 154 226 218 q 403 125 351 125 q 550 224 501 125 q 579 363 579 283 q 490 579 579 519 q 403 606 444 603 m 776 443 l 1075 443 q 1043 551 1068 515 q 925 614 994 610 q 808 553 849 614 q 800 539 804 546 q 776 443 782 503 z "},"Ŕ":{"ha":1003,"x_min":111,"x_max":940,"o":"m 686 1300 l 511 1092 l 414 1092 l 511 1300 l 686 1300 m 319 401 l 319 0 l 111 0 l 111 1013 l 654 1013 q 850 943 782 1013 q 926 739 926 864 q 756 489 926 556 q 857 425 835 454 q 893 244 888 383 l 896 121 q 935 42 896 65 q 940 38 938 39 l 940 0 l 717 0 q 685 129 688 53 q 685 174 685 147 q 686 240 685 214 q 688 281 688 258 q 603 397 688 382 q 558 401 583 401 l 319 401 m 319 575 l 571 575 q 681 601 650 575 q 718 710 718 635 q 681 813 718 781 q 571 839 642 838 l 319 839 l 319 575 z "},"ŕ":{"ha":540,"x_min":88,"x_max":514,"o":"m 483 1051 l 308 843 l 211 843 l 308 1051 l 483 1051 m 88 750 l 282 750 l 282 603 q 440 756 333 728 q 490 763 465 763 q 514 761 503 763 l 514 564 q 453 569 479 569 q 282 399 282 569 l 282 0 l 88 0 l 88 750 z "},"Ŗ":{"ha":1003,"x_min":111,"x_max":940,"o":"m 442 -83 l 611 -83 l 611 -226 q 532 -396 611 -340 q 442 -426 493 -425 l 442 -362 q 535 -239 535 -344 l 442 -239 l 442 -83 m 319 401 l 319 0 l 111 0 l 111 1013 l 654 1013 q 850 943 782 1013 q 926 739 926 864 q 756 489 926 556 q 857 425 835 454 q 893 244 888 383 l 896 121 q 935 42 896 65 q 940 38 938 39 l 940 0 l 717 0 q 685 129 688 53 q 685 174 685 147 q 686 240 685 214 q 688 281 688 258 q 603 397 688 382 q 558 401 583 401 l 319 401 m 319 575 l 571 575 q 681 601 650 575 q 718 710 718 635 q 681 813 718 781 q 571 839 642 838 l 319 839 l 319 575 z "},"ŗ":{"ha":540,"x_min":88,"x_max":514,"o":"m 103 -83 l 272 -83 l 272 -226 q 193 -396 272 -340 q 103 -426 154 -425 l 103 -362 q 196 -239 196 -344 l 103 -239 l 103 -83 m 88 750 l 282 750 l 282 603 q 440 756 333 728 q 490 763 465 763 q 514 761 503 763 l 514 564 q 453 569 479 569 q 282 399 282 569 l 282 0 l 88 0 l 88 750 z "},"Ř":{"ha":1003,"x_min":111,"x_max":940,"o":"m 569 1092 l 421 1092 l 278 1300 l 386 1300 l 500 1165 l 614 1300 l 719 1300 l 569 1092 m 319 401 l 319 0 l 111 0 l 111 1013 l 654 1013 q 850 943 782 1013 q 926 739 926 864 q 756 489 926 556 q 857 425 835 454 q 893 244 888 383 l 896 121 q 935 42 896 65 q 940 38 938 39 l 940 0 l 717 0 q 685 129 688 53 q 685 174 685 147 q 686 240 685 214 q 688 281 688 258 q 603 397 688 382 q 558 401 583 401 l 319 401 m 319 575 l 571 575 q 681 601 650 575 q 718 710 718 635 q 681 813 718 781 q 571 839 642 838 l 319 839 l 319 575 z "},"ř":{"ha":540,"x_min":75,"x_max":518,"o":"m 367 843 l 218 843 l 75 1051 l 183 1051 l 297 917 l 411 1051 l 517 1051 l 367 843 m 88 750 l 282 750 l 282 603 q 440 756 333 728 q 490 763 465 763 q 514 761 503 763 l 514 564 q 453 569 479 569 q 282 399 282 569 l 282 0 l 88 0 l 88 750 z "},"Ś":{"ha":926,"x_min":44,"x_max":879,"o":"m 646 1300 l 471 1092 l 374 1092 l 471 1300 l 646 1300 m 843 704 l 649 704 q 475 861 639 844 q 436 863 457 863 q 274 789 311 863 l 263 758 q 261 738 261 749 q 319 644 261 674 q 453 606 361 624 l 611 575 q 861 410 813 536 q 879 296 879 361 q 708 17 879 100 q 464 -32 608 -32 q 76 165 165 -32 q 44 303 49 225 l 247 303 q 410 139 256 164 q 475 135 440 135 q 667 218 625 135 q 679 271 679 242 q 599 388 679 351 q 489 418 558 406 l 347 446 q 92 585 147 483 q 63 718 63 638 q 236 992 63 917 q 446 1029 324 1029 q 772 914 668 1029 q 843 704 843 835 z "},"ś":{"ha":772,"x_min":40,"x_max":722,"o":"m 582 1051 l 407 843 l 310 843 l 407 1051 l 582 1051 m 701 508 l 514 508 q 374 610 513 610 q 265 561 285 610 l 261 540 q 294 494 261 510 q 329 482 307 489 l 575 411 q 722 222 722 368 q 639 40 722 111 q 633 35 636 38 q 394 -32 550 -32 q 43 186 72 -32 q 40 218 40 201 l 231 218 q 268 147 242 168 q 383 121 308 121 q 525 179 508 121 q 528 194 528 186 q 485 247 528 231 q 463 256 475 251 l 231 328 q 113 386 144 356 q 108 390 111 388 q 67 513 67 436 q 200 726 67 663 q 375 763 272 763 q 665 636 586 763 q 701 508 700 582 z "},"Ŝ":{"ha":926,"x_min":44,"x_max":879,"o":"m 481 1360 l 629 1360 l 772 1151 l 664 1151 l 550 1290 l 436 1151 l 331 1151 l 481 1360 m 843 704 l 649 704 q 475 861 639 844 q 436 863 457 863 q 274 789 311 863 l 263 758 q 261 738 261 749 q 319 644 261 674 q 453 606 361 624 l 611 575 q 861 410 813 536 q 879 296 879 361 q 708 17 879 100 q 464 -32 608 -32 q 76 165 165 -32 q 44 303 49 225 l 247 303 q 410 139 256 164 q 475 135 440 135 q 667 218 625 135 q 679 271 679 242 q 599 388 679 351 q 489 418 558 406 l 347 446 q 92 585 147 483 q 63 718 63 638 q 236 992 63 917 q 446 1029 324 1029 q 772 914 668 1029 q 843 704 843 835 z "},"ŝ":{"ha":772,"x_min":40,"x_max":722,"o":"m 317 1097 l 465 1097 l 608 889 l 500 889 l 386 1028 l 272 889 l 167 889 l 317 1097 m 701 508 l 514 508 q 374 610 513 610 q 265 561 285 610 l 261 540 q 294 494 261 510 q 329 482 307 489 l 575 411 q 722 222 722 368 q 639 40 722 111 q 633 35 636 38 q 394 -32 550 -32 q 43 186 72 -32 q 40 218 40 201 l 231 218 q 268 147 242 168 q 383 121 308 121 q 525 179 508 121 q 528 194 528 186 q 485 247 528 231 q 463 256 475 251 l 231 328 q 113 386 144 356 q 108 390 111 388 q 67 513 67 436 q 200 726 67 663 q 375 763 272 763 q 665 636 586 763 q 701 508 700 582 z "},"Ş":{"ha":926,"x_min":44,"x_max":879,"o":"m 472 -32 l 449 -86 q 506 -78 481 -78 q 608 -146 590 -78 q 613 -176 613 -160 q 488 -301 613 -282 q 433 -306 463 -306 q 242 -267 354 -306 l 268 -194 q 414 -236 363 -236 q 488 -200 469 -236 q 493 -179 493 -190 q 447 -133 493 -143 q 422 -131 436 -131 q 354 -147 389 -131 l 413 -32 q 61 208 121 -1 q 44 303 49 251 l 247 303 q 410 139 256 164 q 475 135 440 135 q 667 218 625 135 q 679 271 679 242 q 599 388 679 351 q 489 418 558 406 l 347 446 q 92 585 147 483 q 63 718 63 638 q 236 992 63 917 q 446 1029 324 1029 q 772 914 668 1029 q 843 704 843 835 l 649 704 q 475 861 639 844 q 436 863 457 863 q 274 789 311 863 l 263 758 q 261 738 261 749 q 319 644 261 674 q 453 606 361 624 l 611 575 q 861 410 813 536 q 879 297 879 361 q 472 -32 879 -12 z "},"ş":{"ha":772,"x_min":40,"x_max":722,"o":"m 393 -32 l 367 -87 q 425 -78 396 -78 q 526 -144 508 -78 q 531 -176 531 -160 q 410 -301 531 -281 q 353 -306 383 -306 q 168 -269 276 -306 q 160 -267 164 -268 l 186 -194 q 332 -236 282 -236 q 406 -200 388 -236 q 411 -179 411 -190 q 365 -133 411 -143 q 340 -131 354 -131 q 272 -147 307 -131 l 332 -31 q 65 110 121 -6 q 40 218 43 154 l 231 218 q 268 147 242 168 q 383 121 308 121 q 525 179 508 121 q 528 194 528 186 q 485 247 528 231 q 463 256 475 251 l 231 328 q 113 386 144 356 q 108 390 111 388 q 67 513 67 436 q 200 726 67 663 q 375 763 272 763 q 665 636 586 763 q 701 508 700 582 l 514 508 q 374 610 513 610 q 265 561 285 610 l 261 540 q 294 494 261 510 q 329 482 307 489 l 575 411 q 722 222 722 368 q 608 18 722 89 q 418 -32 529 -32 l 393 -32 z "},"Š":{"ha":926,"x_min":44,"x_max":879,"o":"m 526 1092 l 378 1092 l 235 1300 l 343 1300 l 457 1165 l 571 1300 l 676 1300 l 526 1092 m 843 704 l 649 704 q 475 861 639 844 q 436 863 457 863 q 274 789 311 863 l 263 758 q 261 738 261 749 q 319 644 261 674 q 453 606 361 624 l 611 575 q 861 410 813 536 q 879 296 879 361 q 708 17 879 100 q 464 -32 608 -32 q 76 165 165 -32 q 44 303 49 225 l 247 303 q 410 139 256 164 q 475 135 440 135 q 667 218 625 135 q 679 271 679 242 q 599 388 679 351 q 489 418 558 406 l 347 446 q 92 585 147 483 q 63 718 63 638 q 236 992 63 917 q 446 1029 324 1029 q 772 914 668 1029 q 843 704 843 835 z "},"š":{"ha":772,"x_min":40,"x_max":722,"o":"m 461 843 l 313 843 l 169 1051 l 278 1051 l 392 917 l 506 1051 l 611 1051 l 461 843 m 701 508 l 514 508 q 374 610 513 610 q 265 561 285 610 l 261 540 q 294 494 261 510 q 329 482 307 489 l 575 411 q 722 222 722 368 q 639 40 722 111 q 633 35 636 38 q 394 -32 550 -32 q 43 186 72 -32 q 40 218 40 201 l 231 218 q 268 147 242 168 q 383 121 308 121 q 525 179 508 121 q 528 194 528 186 q 485 247 528 231 q 463 256 475 251 l 231 328 q 113 386 144 356 q 108 390 111 388 q 67 513 67 436 q 200 726 67 663 q 375 763 272 763 q 665 636 586 763 q 701 508 700 582 z "},"Ţ":{"ha":849,"x_min":19,"x_max":831,"o":"m 432 0 l 492 0 l 451 -87 q 510 -78 481 -78 q 611 -144 593 -78 q 615 -176 615 -160 q 490 -301 615 -282 q 436 -306 465 -306 q 250 -268 360 -306 q 244 -267 247 -268 l 271 -194 q 417 -236 367 -236 q 490 -200 472 -236 q 496 -179 496 -190 q 449 -133 496 -142 l 425 -131 q 357 -147 392 -131 l 432 0 m 535 839 l 535 0 l 326 0 l 326 839 l 19 839 l 19 1013 l 831 1013 l 831 839 l 535 839 z "},"ţ":{"ha":463,"x_min":19,"x_max":453,"o":"m 268 -32 l 328 -32 l 288 -119 q 346 -110 317 -110 q 447 -176 429 -110 q 451 -208 451 -192 q 326 -333 451 -314 q 272 -337 301 -337 q 86 -300 196 -337 q 81 -299 83 -300 l 107 -226 q 253 -268 203 -268 q 326 -232 308 -268 q 332 -211 332 -222 q 285 -165 332 -174 l 261 -162 q 193 -179 228 -162 l 268 -32 m 418 735 l 418 606 l 310 606 l 310 197 q 335 121 310 133 q 374 115 349 115 q 418 119 389 115 l 418 -17 q 306 -32 371 -32 q 115 144 115 -32 l 115 606 l 19 606 l 19 735 l 115 735 l 115 936 l 310 936 l 310 735 l 418 735 z "},"Ť":{"ha":849,"x_min":19,"x_max":831,"o":"m 501 1092 l 353 1092 l 210 1300 l 318 1300 l 432 1165 l 546 1300 l 651 1300 l 501 1092 m 535 839 l 535 0 l 326 0 l 326 839 l 19 839 l 19 1013 l 831 1013 l 831 839 l 535 839 z "},"ť":{"ha":463,"x_min":19,"x_max":553,"o":"m 383 1150 l 553 1150 l 553 1007 q 474 838 553 893 q 383 807 435 808 l 383 871 q 476 994 476 889 l 383 994 l 383 1150 m 418 735 l 418 606 l 310 606 l 310 197 q 335 121 310 133 q 374 115 349 115 q 418 119 389 115 l 418 -17 q 306 -32 371 -32 q 115 144 115 -32 l 115 606 l 19 606 l 19 735 l 115 735 l 115 936 l 310 936 l 310 735 l 418 735 z "},"Ŧ":{"ha":849,"x_min":19,"x_max":831,"o":"m 535 839 l 535 0 l 326 0 l 326 839 l 19 839 l 19 1013 l 831 1013 l 831 839 l 535 839 z "},"ŧ":{"ha":463,"x_min":19,"x_max":418,"o":"m 418 735 l 418 606 l 310 606 l 310 197 q 335 121 310 133 q 374 115 349 115 q 418 119 389 115 l 418 -17 q 306 -32 371 -32 q 115 144 115 -32 l 115 606 l 19 606 l 19 735 l 115 735 l 115 936 l 310 936 l 310 735 l 418 735 z "},"Ũ":{"ha":1003,"x_min":106,"x_max":908,"o":"m 665 1329 l 753 1329 q 621 1153 744 1153 q 544 1169 588 1153 l 446 1206 q 404 1214 421 1214 q 351 1165 363 1214 q 349 1151 350 1158 l 261 1151 q 353 1317 268 1288 q 392 1324 371 1324 q 469 1306 419 1324 l 568 1271 q 615 1263 588 1263 q 665 1329 660 1263 m 700 1013 l 908 1013 l 908 326 q 810 71 908 160 q 507 -32 696 -32 q 204 71 318 -32 q 106 326 106 160 l 106 1013 l 314 1013 l 314 326 q 507 146 328 151 q 700 326 694 156 l 700 1013 z "},"ũ":{"ha":849,"x_min":81,"x_max":751,"o":"m 574 1067 l 661 1067 q 529 890 653 890 q 453 907 496 890 l 354 943 q 313 951 329 951 q 260 903 271 951 q 257 889 258 896 l 169 889 q 261 1054 176 1025 q 300 1061 279 1061 q 378 1043 328 1061 l 476 1008 q 524 1000 496 1000 q 574 1067 568 1000 m 751 0 l 557 0 l 557 89 q 350 -32 481 -25 q 332 -32 342 -32 q 100 108 156 -32 q 81 228 81 161 l 81 750 l 275 750 l 275 268 q 400 133 275 133 q 542 211 503 133 q 557 281 557 242 l 557 750 l 751 750 l 751 0 z "},"Ū":{"ha":1003,"x_min":106,"x_max":908,"o":"m 714 1247 l 714 1138 l 299 1138 l 299 1247 l 714 1247 m 700 1013 l 908 1013 l 908 326 q 810 71 908 160 q 507 -32 696 -32 q 204 71 318 -32 q 106 326 106 160 l 106 1013 l 314 1013 l 314 326 q 507 146 328 151 q 700 326 694 156 l 700 1013 z "},"ū":{"ha":849,"x_min":81,"x_max":751,"o":"m 624 999 l 624 889 l 208 889 l 208 999 l 624 999 m 751 0 l 557 0 l 557 89 q 350 -32 481 -25 q 332 -32 342 -32 q 100 108 156 -32 q 81 228 81 161 l 81 750 l 275 750 l 275 268 q 400 133 275 133 q 542 211 503 133 q 557 281 557 242 l 557 750 l 751 750 l 751 0 z "},"Ŭ":{"ha":1003,"x_min":106,"x_max":908,"o":"m 690 1350 l 690 1335 q 611 1182 690 1236 q 507 1151 565 1151 q 354 1231 407 1151 q 324 1336 324 1278 l 324 1350 l 401 1350 q 508 1258 414 1258 q 611 1340 593 1258 q 613 1350 611 1344 l 690 1350 m 700 1013 l 908 1013 l 908 326 q 810 71 908 160 q 507 -32 696 -32 q 204 71 318 -32 q 106 326 106 160 l 106 1013 l 314 1013 l 314 326 q 507 146 328 151 q 700 326 694 156 l 700 1013 z "},"ŭ":{"ha":849,"x_min":81,"x_max":751,"o":"m 599 1088 l 599 1072 q 519 919 599 974 q 415 889 474 889 q 263 968 315 889 q 232 1074 232 1015 l 232 1088 l 310 1088 q 417 996 322 996 q 519 1078 501 996 q 521 1088 519 1082 l 599 1088 m 751 0 l 557 0 l 557 89 q 350 -32 481 -25 q 332 -32 342 -32 q 100 108 156 -32 q 81 228 81 161 l 81 750 l 275 750 l 275 268 q 400 133 275 133 q 542 211 503 133 q 557 281 557 242 l 557 750 l 751 750 l 751 0 z "},"Ů":{"ha":1003,"x_min":106,"x_max":908,"o":"m 508 1318 q 615 1257 579 1318 q 632 1192 632 1228 q 574 1088 632 1124 q 507 1068 543 1068 q 400 1128 436 1068 q 382 1193 382 1158 q 443 1300 382 1264 q 508 1318 472 1318 m 508 1251 q 453 1214 468 1251 q 449 1193 449 1204 q 485 1139 449 1154 q 508 1135 496 1135 q 560 1169 544 1135 q 565 1193 565 1181 q 529 1247 565 1232 q 508 1251 519 1251 m 700 1013 l 908 1013 l 908 326 q 810 71 908 160 q 507 -32 696 -32 q 204 71 318 -32 q 106 326 106 160 l 106 1013 l 314 1013 l 314 326 q 507 146 328 151 q 700 326 694 156 l 700 1013 z "},"ů":{"ha":849,"x_min":81,"x_max":751,"o":"m 415 1069 q 522 1008 486 1069 q 539 943 539 979 q 481 839 539 875 q 414 819 450 819 q 307 879 343 819 q 289 944 289 910 q 350 1051 289 1015 q 415 1069 379 1069 m 415 1003 q 360 965 375 1003 q 356 944 356 956 q 392 890 356 906 q 415 886 403 886 q 467 921 451 886 q 472 944 472 932 q 436 999 472 983 q 415 1003 426 1003 m 751 0 l 557 0 l 557 89 q 350 -32 481 -25 q 332 -32 342 -32 q 100 108 156 -32 q 81 228 81 161 l 81 750 l 275 750 l 275 268 q 400 133 275 133 q 542 211 503 133 q 557 281 557 242 l 557 750 l 751 750 l 751 0 z "},"Ű":{"ha":1003,"x_min":106,"x_max":908,"o":"m 601 1300 l 426 1096 l 329 1096 l 426 1300 l 601 1300 m 863 1300 l 688 1096 l 590 1096 l 688 1300 l 863 1300 m 700 1013 l 908 1013 l 908 326 q 810 71 908 160 q 507 -32 696 -32 q 204 71 318 -32 q 106 326 106 160 l 106 1013 l 314 1013 l 314 326 q 507 146 328 151 q 700 326 694 156 l 700 1013 z "},"ű":{"ha":849,"x_min":81,"x_max":776,"o":"m 514 1051 l 339 847 l 242 847 l 339 1051 l 514 1051 m 775 1051 l 600 847 l 503 847 l 600 1051 l 775 1051 m 751 0 l 557 0 l 557 89 q 350 -32 481 -25 q 332 -32 342 -32 q 100 108 156 -32 q 81 228 81 161 l 81 750 l 275 750 l 275 268 q 400 133 275 133 q 542 211 503 133 q 557 281 557 242 l 557 750 l 751 750 l 751 0 z "},"Ų":{"ha":1003,"x_min":106,"x_max":908,"o":"m 829 -246 l 829 -311 q 718 -325 775 -325 q 613 -308 663 -325 q 518 -192 518 -278 q 600 -53 518 -117 q 663 -10 625 -33 q 511 -32 581 -32 q 204 71 318 -32 q 106 326 106 160 l 106 1013 l 314 1013 l 314 326 q 507 146 328 151 q 700 326 694 156 l 700 1013 l 908 1013 l 908 326 q 836 96 908 190 q 732 -18 813 67 q 642 -183 642 -117 q 749 -254 642 -254 q 829 -246 789 -254 z "},"ų":{"ha":849,"x_min":81,"x_max":783,"o":"m 646 0 l 557 0 l 557 89 q 350 -32 481 -25 q 332 -32 342 -32 q 100 108 156 -32 q 81 228 81 161 l 81 750 l 275 750 l 275 268 q 400 133 275 133 q 542 211 503 133 q 557 281 557 242 l 557 750 l 751 750 l 751 0 q 597 -179 599 -78 q 703 -253 597 -253 q 783 -246 739 -253 l 783 -311 q 679 -324 733 -324 q 481 -235 515 -324 q 472 -192 472 -215 q 551 -50 472 -111 q 582 -29 565 -39 q 646 0 601 -17 z "},"Ŵ":{"ha":1311,"x_min":18,"x_max":1294,"o":"m 585 1360 l 733 1360 l 876 1151 l 768 1151 l 654 1290 l 540 1151 l 435 1151 l 585 1360 m 1014 0 l 826 0 l 657 790 l 492 0 l 304 0 l 18 1013 l 239 1013 l 396 254 l 553 1013 l 758 1013 l 922 253 l 1074 1013 l 1294 1013 l 1014 0 z "},"ŵ":{"ha":1081,"x_min":7,"x_max":1064,"o":"m 464 1097 l 613 1097 l 756 889 l 647 889 l 533 1028 l 419 889 l 314 889 l 464 1097 m 851 0 l 650 0 l 538 529 l 418 0 l 218 0 l 7 750 l 208 750 l 328 225 l 442 750 l 636 750 l 749 225 l 863 750 l 1064 750 l 851 0 z "},"Ŷ":{"ha":926,"x_min":38,"x_max":903,"o":"m 399 1360 l 547 1360 l 690 1151 l 582 1151 l 468 1290 l 354 1151 l 249 1151 l 399 1360 m 582 375 l 582 0 l 374 0 l 374 375 l 38 1013 l 269 1013 l 476 565 l 669 1013 l 903 1013 l 582 375 z "},"ŷ":{"ha":772,"x_min":13,"x_max":747,"o":"m 308 1097 l 457 1097 l 600 889 l 492 889 l 378 1028 l 264 889 l 158 889 l 308 1097 m 547 750 l 747 750 l 439 -137 q 363 -262 404 -233 q 329 -281 349 -272 q 189 -304 272 -304 q 119 -299 158 -304 l 119 -153 q 171 -161 150 -161 q 275 -100 242 -161 q 292 -36 292 -71 l 292 -32 l 292 -31 l 13 750 l 226 750 l 392 204 l 547 750 z "},"Ÿ":{"ha":926,"x_min":38,"x_max":903,"o":"m 422 1281 l 422 1111 l 269 1111 l 269 1281 l 422 1281 m 681 1281 l 681 1111 l 528 1111 l 528 1281 l 681 1281 m 582 375 l 582 0 l 374 0 l 374 375 l 38 1013 l 269 1013 l 476 565 l 669 1013 l 903 1013 l 582 375 z "},"Ź":{"ha":849,"x_min":42,"x_max":803,"o":"m 613 1300 l 438 1092 l 340 1092 l 438 1300 l 613 1300 m 803 1013 l 803 839 l 286 174 l 803 174 l 803 0 l 42 0 l 42 174 l 560 839 l 42 839 l 42 1013 l 803 1013 z "},"ź":{"ha":694,"x_min":29,"x_max":650,"o":"m 538 1051 l 363 843 l 265 843 l 363 1051 l 538 1051 m 638 750 l 638 593 l 269 157 l 650 157 l 650 0 l 29 0 l 29 157 l 400 593 l 54 593 l 54 750 l 638 750 z "},"Ż":{"ha":849,"x_min":42,"x_max":803,"o":"m 503 1281 l 503 1111 l 350 1111 l 350 1281 l 503 1281 m 803 1013 l 803 839 l 286 174 l 803 174 l 803 0 l 42 0 l 42 174 l 560 839 l 42 839 l 42 1013 l 803 1013 z "},"ż":{"ha":694,"x_min":29,"x_max":650,"o":"m 425 1032 l 425 863 l 272 863 l 272 1032 l 425 1032 m 638 750 l 638 593 l 269 157 l 650 157 l 650 0 l 29 0 l 29 157 l 400 593 l 54 593 l 54 750 l 638 750 z "},"Ž":{"ha":849,"x_min":42,"x_max":803,"o":"m 497 1092 l 349 1092 l 206 1300 l 314 1300 l 428 1165 l 542 1300 l 647 1300 l 497 1092 m 803 1013 l 803 839 l 286 174 l 803 174 l 803 0 l 42 0 l 42 174 l 560 839 l 42 839 l 42 1013 l 803 1013 z "},"ž":{"ha":694,"x_min":29,"x_max":650,"o":"m 419 843 l 271 843 l 128 1051 l 236 1051 l 350 917 l 464 1051 l 569 1051 l 419 843 m 638 750 l 638 593 l 269 157 l 650 157 l 650 0 l 29 0 l 29 157 l 400 593 l 54 593 l 54 750 l 638 750 z "},"ſ":{"ha":463,"x_min":19,"x_max":428,"o":"m 319 0 l 125 0 l 125 606 l 19 606 l 19 735 l 125 735 l 125 825 q 317 1013 125 1013 q 428 1008 374 1013 l 428 863 q 372 867 403 867 q 319 808 319 867 l 319 0 z "},"ƒ":{"ha":772,"x_min":29,"x_max":743,"o":"m 694 667 l 694 532 l 504 532 l 422 1 q 328 -239 396 -171 q 154 -306 261 -306 q 29 -275 89 -306 l 63 -115 q 142 -144 111 -144 q 213 -78 190 -144 q 232 10 224 -46 l 315 532 l 144 532 l 144 667 l 336 667 l 351 749 q 531 1022 389 981 q 610 1033 565 1033 q 743 1010 665 1033 l 715 850 q 639 872 665 872 q 533 724 558 872 l 524 667 l 694 667 z "},"Ǆ":{"ha":1851,"x_min":107,"x_max":1806,"o":"m 1500 1092 l 1351 1092 l 1208 1300 l 1317 1300 l 1431 1165 l 1544 1300 l 1650 1300 l 1500 1092 m 1806 1013 l 1806 839 l 1289 174 l 1806 174 l 1806 0 l 1044 0 l 1044 174 l 1563 839 l 1044 839 l 1044 1013 l 1806 1013 m 107 0 l 107 1013 l 503 1013 q 801 918 707 1013 q 822 896 813 907 q 946 507 946 749 q 822 118 946 263 q 535 0 731 7 q 503 0 519 0 l 107 0 m 315 174 l 503 174 q 738 506 738 174 q 503 839 738 839 l 315 839 l 315 174 z "},"ǅ":{"ha":1697,"x_min":107,"x_max":1653,"o":"m 1422 843 l 1274 843 l 1131 1051 l 1239 1051 l 1353 917 l 1467 1051 l 1572 1051 l 1422 843 m 1640 750 l 1640 593 l 1272 157 l 1653 157 l 1653 0 l 1032 0 l 1032 157 l 1403 593 l 1057 593 l 1057 750 l 1640 750 m 107 0 l 107 1013 l 503 1013 q 801 918 707 1013 q 822 896 813 907 q 946 507 946 749 q 822 118 946 263 q 535 0 731 7 q 503 0 519 0 l 107 0 m 315 174 l 503 174 q 738 506 738 174 q 503 839 738 839 l 315 839 l 315 174 z "},"ǆ":{"ha":1543,"x_min":40,"x_max":1499,"o":"m 1268 843 l 1119 843 l 976 1051 l 1085 1051 l 1199 917 l 1313 1051 l 1418 1051 l 1268 843 m 1486 750 l 1486 593 l 1118 157 l 1499 157 l 1499 0 l 878 0 l 878 157 l 1249 593 l 903 593 l 903 750 l 1486 750 m 563 0 l 563 76 q 356 -32 490 -32 q 153 50 239 -32 q 121 88 135 68 q 40 364 40 204 q 150 671 40 554 q 356 763 236 763 q 563 653 492 763 l 563 1013 l 757 1013 l 757 0 l 563 0 m 399 600 q 263 501 307 600 q 235 364 235 443 q 314 160 235 221 q 399 131 351 131 q 536 229 492 131 q 563 361 563 286 q 481 574 563 513 q 399 600 444 600 z "},"Ǉ":{"ha":1621,"x_min":111,"x_max":1524,"o":"m 1315 1013 l 1524 1013 l 1524 264 q 1358 -4 1524 61 q 1199 -32 1290 -32 q 967 49 1056 -32 q 882 250 888 122 q 882 275 882 263 l 882 375 l 1090 375 l 1090 278 q 1165 150 1090 167 q 1203 146 1182 146 q 1314 243 1304 146 q 1315 264 1315 253 l 1315 1013 m 319 1013 l 319 174 l 804 174 l 804 0 l 111 0 l 111 1013 l 319 1013 z "},"ǈ":{"ha":1235,"x_min":111,"x_max":1140,"o":"m 1140 750 l 1140 -131 q 1051 -292 1140 -262 q 969 -303 1018 -303 q 854 -296 919 -303 l 854 -140 q 889 -146 872 -146 q 944 -107 939 -146 q 946 -87 946 -99 l 946 750 l 1140 750 m 1140 1013 l 1140 839 l 946 839 l 946 1013 l 1140 1013 m 319 1013 l 319 174 l 804 174 l 804 0 l 111 0 l 111 1013 l 319 1013 z "},"ǉ":{"ha":772,"x_min":93,"x_max":678,"o":"m 678 750 l 678 -131 q 589 -292 678 -262 q 507 -303 556 -303 q 392 -296 457 -303 l 392 -140 q 426 -146 410 -146 q 482 -107 476 -146 q 483 -87 483 -99 l 483 750 l 678 750 m 678 1013 l 678 839 l 483 839 l 483 1013 l 678 1013 m 288 1013 l 288 0 l 93 0 l 93 1013 l 288 1013 z "},"Ǌ":{"ha":1775,"x_min":94,"x_max":1678,"o":"m 1469 1013 l 1678 1013 l 1678 264 q 1513 -4 1678 61 q 1353 -32 1444 -32 q 1121 49 1210 -32 q 1036 250 1042 122 q 1036 275 1036 263 l 1036 375 l 1244 375 l 1244 278 q 1319 150 1244 167 q 1357 146 1336 146 q 1468 243 1458 146 q 1469 264 1469 253 l 1469 1013 m 710 0 l 303 700 l 303 0 l 94 0 l 94 1013 l 308 1013 l 710 324 l 710 1013 l 918 1013 l 918 0 l 710 0 z "},"ǋ":{"ha":1389,"x_min":94,"x_max":1294,"o":"m 1294 750 l 1294 -131 q 1206 -292 1294 -262 q 1124 -303 1172 -303 q 1008 -296 1074 -303 l 1008 -140 q 1043 -146 1026 -146 q 1099 -107 1093 -146 q 1100 -87 1100 -99 l 1100 750 l 1294 750 m 1294 1013 l 1294 839 l 1100 839 l 1100 1013 l 1294 1013 m 710 0 l 303 700 l 303 0 l 94 0 l 94 1013 l 308 1013 l 710 324 l 710 1013 l 918 1013 l 918 0 l 710 0 z "},"ǌ":{"ha":1235,"x_min":88,"x_max":1140,"o":"m 1140 750 l 1140 -131 q 1051 -292 1140 -262 q 969 -303 1018 -303 q 854 -296 919 -303 l 854 -140 q 889 -146 872 -146 q 944 -107 939 -146 q 946 -87 946 -99 l 946 750 l 1140 750 m 1140 1013 l 1140 839 l 946 839 l 946 1013 l 1140 1013 m 88 750 l 282 750 l 282 642 q 489 763 358 756 q 507 763 497 763 q 739 622 683 763 q 758 503 758 569 l 758 0 l 564 0 l 564 463 q 439 597 564 597 q 297 519 336 597 q 282 450 282 489 l 282 0 l 88 0 l 88 750 z "},"Ǎ":{"ha":1003,"x_min":36,"x_max":976,"o":"m 582 1113 l 433 1113 l 290 1321 l 399 1321 l 513 1186 l 626 1321 l 732 1321 l 582 1113 m 696 204 l 317 204 l 249 0 l 36 0 l 396 1013 l 626 1013 l 976 0 l 763 0 l 696 204 m 639 378 l 507 774 l 375 378 l 639 378 z "},"ǎ":{"ha":772,"x_min":39,"x_max":728,"o":"m 447 846 l 299 846 l 156 1054 l 264 1054 l 378 919 l 492 1054 l 597 1054 l 447 846 m 728 24 l 728 0 l 517 0 q 494 75 494 33 q 267 -32 392 -32 q 92 39 160 -32 q 39 193 39 96 q 260 429 39 392 l 338 443 q 453 468 432 458 q 460 472 454 469 q 493 531 493 490 q 381 606 493 606 q 260 561 286 606 l 247 528 l 243 503 l 56 503 q 376 763 74 763 q 683 532 683 763 l 683 115 q 719 32 683 68 q 728 24 724 28 m 493 301 l 493 354 q 411 331 467 342 l 344 318 q 238 249 253 299 l 233 215 q 301 129 233 147 q 339 125 318 125 q 486 240 460 125 q 493 301 493 268 z "},"Ǐ":{"ha":386,"x_min":-29,"x_max":413,"o":"m 263 1113 l 114 1113 l -29 1321 l 79 1321 l 193 1186 l 307 1321 l 413 1321 l 263 1113 m 296 1013 l 296 0 l 88 0 l 88 1013 l 296 1013 z "},"ǐ":{"ha":386,"x_min":-31,"x_max":411,"o":"m 261 846 l 113 846 l -31 1054 l 78 1054 l 192 919 l 306 1054 l 411 1054 l 261 846 m 288 750 l 288 0 l 93 0 l 93 750 l 288 750 z "},"Ǒ":{"ha":1081,"x_min":56,"x_max":1031,"o":"m 613 1113 l 464 1113 l 321 1321 l 429 1321 l 543 1186 l 657 1321 l 763 1321 l 613 1113 m 542 1029 q 889 889 758 1029 q 1031 510 1025 743 q 1031 492 1031 501 q 932 163 1031 307 q 889 108 913 133 q 543 -32 758 -32 q 197 108 328 -32 q 57 451 72 242 q 56 499 56 475 q 178 867 56 717 q 197 889 188 878 q 542 1029 326 1029 m 543 851 q 317 721 393 851 l 292 668 q 264 499 264 593 q 378 203 264 299 q 543 146 447 146 q 767 274 689 146 q 822 493 822 364 q 701 800 822 707 q 543 851 635 851 z "},"ǒ":{"ha":849,"x_min":49,"x_max":790,"o":"m 489 846 l 340 846 l 197 1054 l 306 1054 l 419 919 l 533 1054 l 639 1054 l 489 846 m 418 763 q 740 589 647 763 q 790 360 790 494 q 647 36 790 140 q 419 -32 554 -32 q 107 128 203 -32 q 49 365 49 225 q 197 700 49 596 q 418 763 288 763 m 419 606 q 271 503 318 606 q 243 365 243 444 q 328 154 243 218 q 419 125 368 125 q 567 224 518 125 q 596 363 596 283 q 507 579 596 519 q 419 606 461 603 z "},"Ǔ":{"ha":1003,"x_min":106,"x_max":908,"o":"m 578 1113 l 429 1113 l 286 1321 l 394 1321 l 508 1186 l 622 1321 l 728 1321 l 578 1113 m 700 1013 l 908 1013 l 908 326 q 810 71 908 160 q 507 -32 696 -32 q 204 71 318 -32 q 106 326 106 160 l 106 1013 l 314 1013 l 314 326 q 507 146 328 151 q 700 326 694 156 l 700 1013 z "},"ǔ":{"ha":849,"x_min":81,"x_max":751,"o":"m 486 846 l 338 846 l 194 1054 l 303 1054 l 417 919 l 531 1054 l 636 1054 l 486 846 m 751 0 l 557 0 l 557 89 q 350 -32 481 -25 q 332 -32 342 -32 q 100 108 156 -32 q 81 228 81 161 l 81 750 l 275 750 l 275 268 q 400 133 275 133 q 542 211 503 133 q 557 281 557 242 l 557 750 l 751 750 l 751 0 z "},"Ǖ":{"ha":1003,"x_min":106,"x_max":908,"o":"m 714 1474 l 714 1364 l 299 1364 l 299 1474 l 714 1474 m 454 1281 l 454 1111 l 301 1111 l 301 1281 l 454 1281 m 713 1281 l 713 1111 l 560 1111 l 560 1281 l 713 1281 m 700 1013 l 908 1013 l 908 326 q 810 71 908 160 q 507 -32 696 -32 q 204 71 318 -32 q 106 326 106 160 l 106 1013 l 314 1013 l 314 326 q 507 146 328 151 q 700 326 694 156 l 700 1013 z "},"ǖ":{"ha":849,"x_min":81,"x_max":751,"o":"m 622 1225 l 622 1115 l 207 1115 l 207 1225 l 622 1225 m 361 1032 l 361 863 l 208 863 l 208 1032 l 361 1032 m 619 1032 l 619 863 l 467 863 l 467 1032 l 619 1032 m 751 0 l 557 0 l 557 89 q 350 -32 481 -25 q 332 -32 342 -32 q 100 108 156 -32 q 81 228 81 161 l 81 750 l 275 750 l 275 268 q 400 133 275 133 q 542 211 503 133 q 557 281 557 242 l 557 750 l 751 750 l 751 0 z "},"Ǘ":{"ha":1003,"x_min":106,"x_max":908,"o":"m 731 1572 l 556 1364 l 458 1364 l 556 1572 l 731 1572 m 454 1281 l 454 1111 l 301 1111 l 301 1281 l 454 1281 m 713 1281 l 713 1111 l 560 1111 l 560 1281 l 713 1281 m 700 1013 l 908 1013 l 908 326 q 810 71 908 160 q 507 -32 696 -32 q 204 71 318 -32 q 106 326 106 160 l 106 1013 l 314 1013 l 314 326 q 507 146 328 151 q 700 326 694 156 l 700 1013 z "},"ǘ":{"ha":849,"x_min":81,"x_max":751,"o":"m 638 1324 l 463 1115 l 365 1115 l 463 1324 l 638 1324 m 361 1032 l 361 863 l 208 863 l 208 1032 l 361 1032 m 619 1032 l 619 863 l 467 863 l 467 1032 l 619 1032 m 751 0 l 557 0 l 557 89 q 350 -32 481 -25 q 332 -32 342 -32 q 100 108 156 -32 q 81 228 81 161 l 81 750 l 275 750 l 275 268 q 400 133 275 133 q 542 211 503 133 q 557 281 557 242 l 557 750 l 751 750 l 751 0 z "},"Ǚ":{"ha":1003,"x_min":106,"x_max":908,"o":"m 578 1364 l 429 1364 l 286 1572 l 394 1572 l 508 1438 l 622 1572 l 728 1572 l 578 1364 m 454 1281 l 454 1111 l 301 1111 l 301 1281 l 454 1281 m 713 1281 l 713 1111 l 560 1111 l 560 1281 l 713 1281 m 700 1013 l 908 1013 l 908 326 q 810 71 908 160 q 507 -32 696 -32 q 204 71 318 -32 q 106 326 106 160 l 106 1013 l 314 1013 l 314 326 q 507 146 328 151 q 700 326 694 156 l 700 1013 z "},"ǚ":{"ha":849,"x_min":81,"x_max":751,"o":"m 485 1115 l 336 1115 l 193 1324 l 301 1324 l 415 1189 l 529 1324 l 635 1324 l 485 1115 m 361 1032 l 361 863 l 208 863 l 208 1032 l 361 1032 m 619 1032 l 619 863 l 467 863 l 467 1032 l 619 1032 m 751 0 l 557 0 l 557 89 q 350 -32 481 -25 q 332 -32 342 -32 q 100 108 156 -32 q 81 228 81 161 l 81 750 l 275 750 l 275 268 q 400 133 275 133 q 542 211 503 133 q 557 281 557 242 l 557 750 l 751 750 l 751 0 z "},"Ǜ":{"ha":1003,"x_min":106,"x_max":908,"o":"m 283 1572 l 458 1572 l 556 1364 l 458 1364 l 283 1572 m 454 1281 l 454 1111 l 301 1111 l 301 1281 l 454 1281 m 713 1281 l 713 1111 l 560 1111 l 560 1281 l 713 1281 m 700 1013 l 908 1013 l 908 326 q 810 71 908 160 q 507 -32 696 -32 q 204 71 318 -32 q 106 326 106 160 l 106 1013 l 314 1013 l 314 326 q 507 146 328 151 q 700 326 694 156 l 700 1013 z "},"ǜ":{"ha":849,"x_min":81,"x_max":751,"o":"m 190 1324 l 365 1324 l 463 1115 l 365 1115 l 190 1324 m 361 1032 l 361 863 l 208 863 l 208 1032 l 361 1032 m 619 1032 l 619 863 l 467 863 l 467 1032 l 619 1032 m 751 0 l 557 0 l 557 89 q 350 -32 481 -25 q 332 -32 342 -32 q 100 108 156 -32 q 81 228 81 161 l 81 750 l 275 750 l 275 268 q 400 133 275 133 q 542 211 503 133 q 557 281 557 242 l 557 750 l 751 750 l 751 0 z "},"Ǟ":{"ha":1003,"x_min":36,"x_max":976,"o":"m 714 1474 l 714 1364 l 299 1364 l 299 1474 l 714 1474 m 453 1281 l 453 1111 l 300 1111 l 300 1281 l 453 1281 m 711 1281 l 711 1111 l 558 1111 l 558 1281 l 711 1281 m 696 204 l 317 204 l 249 0 l 36 0 l 396 1013 l 626 1013 l 976 0 l 763 0 l 696 204 m 639 378 l 507 774 l 375 378 l 639 378 z "},"ǟ":{"ha":772,"x_min":39,"x_max":728,"o":"m 585 1225 l 585 1115 l 169 1115 l 169 1225 l 585 1225 m 325 1032 l 325 863 l 172 863 l 172 1032 l 325 1032 m 583 1032 l 583 863 l 431 863 l 431 1032 l 583 1032 m 728 24 l 728 0 l 517 0 q 494 75 494 33 q 267 -32 392 -32 q 92 39 160 -32 q 39 193 39 96 q 260 429 39 392 l 338 443 q 453 468 432 458 q 460 472 454 469 q 493 531 493 490 q 381 606 493 606 q 260 561 286 606 l 247 528 l 243 503 l 56 503 q 376 763 74 763 q 683 532 683 763 l 683 115 q 719 32 683 68 q 728 24 724 28 m 493 301 l 493 354 q 411 331 467 342 l 344 318 q 238 249 253 299 l 233 215 q 301 129 233 147 q 339 125 318 125 q 486 240 460 125 q 493 301 493 268 z "},"Ǣ":{"ha":1389,"x_min":1,"x_max":1342,"o":"m 1047 1222 l 1047 1113 l 632 1113 l 632 1222 l 1047 1222 m 597 211 l 288 211 l 214 0 l 1 0 l 367 1013 l 1314 1013 l 1314 839 l 806 839 l 806 610 l 1276 610 l 1276 436 l 806 436 l 806 174 l 1342 174 l 1342 0 l 597 0 l 597 211 m 597 385 l 597 839 l 504 839 l 346 385 l 597 385 z "},"ǣ":{"ha":1235,"x_min":38,"x_max":1190,"o":"m 813 956 l 813 846 l 397 846 l 397 956 l 813 956 m 989 211 l 1181 211 q 1001 4 1139 68 q 833 -32 925 -32 q 556 113 644 -32 q 299 -32 440 -22 q 271 -33 285 -33 q 67 74 125 -33 q 38 196 38 126 q 233 428 38 385 q 258 433 246 431 l 336 447 q 451 472 431 463 q 458 476 453 474 q 492 532 492 494 q 374 606 492 606 q 254 551 279 606 q 242 503 246 532 l 60 503 q 376 763 64 763 q 619 693 539 763 q 835 763 706 763 q 1118 625 1021 763 l 1147 576 q 1161 544 1154 561 q 1190 347 1190 461 q 1189 314 1190 331 l 686 314 q 714 185 686 228 q 844 117 758 117 q 968 174 924 117 q 989 211 983 192 m 492 300 l 492 353 q 410 326 461 335 l 343 317 q 232 215 232 301 q 301 128 232 144 q 338 124 318 124 q 489 257 469 124 q 492 300 492 278 m 688 443 l 988 443 q 836 614 972 614 q 688 443 700 614 z "},"Ǧ":{"ha":1081,"x_min":58,"x_max":988,"o":"m 619 1113 l 471 1113 l 328 1321 l 436 1321 l 550 1186 l 664 1321 l 769 1321 l 619 1113 m 988 544 l 988 -3 l 863 -3 l 838 131 q 596 -28 743 -8 q 532 -32 565 -32 q 192 119 325 -32 q 58 499 58 269 q 213 900 58 753 q 549 1029 346 1029 q 901 889 779 1029 l 935 844 q 988 689 978 775 l 792 689 q 729 790 768 757 q 550 851 660 851 q 307 701 379 851 q 267 501 267 619 q 376 215 267 317 q 556 146 451 146 q 757 236 676 146 q 763 243 760 239 q 813 371 806 293 l 582 371 l 582 544 l 988 544 z "},"ǧ":{"ha":849,"x_min":47,"x_max":751,"o":"m 429 846 l 281 846 l 138 1054 l 246 1054 l 360 919 l 474 1054 l 579 1054 l 429 846 m 567 750 l 751 750 l 751 -25 q 582 -272 751 -206 q 463 -300 529 -293 q 394 -303 431 -303 q 136 -231 225 -303 q 63 -90 64 -171 l 264 -90 q 401 -178 288 -178 q 547 -101 504 -178 q 567 -25 567 -68 l 567 76 q 414 -26 489 -11 q 354 -32 388 -32 q 110 106 194 -32 q 47 357 47 208 q 157 671 47 553 q 358 763 242 763 q 561 643 479 763 q 567 635 564 639 l 567 750 m 400 600 q 267 499 310 600 q 242 360 242 439 q 318 158 242 218 q 397 131 354 131 q 542 228 494 131 q 569 360 569 283 q 493 564 569 496 q 400 600 451 600 z "},"Ǩ":{"ha":1003,"x_min":103,"x_max":996,"o":"m 599 1113 l 450 1113 l 307 1321 l 415 1321 l 529 1186 l 643 1321 l 749 1321 l 599 1113 m 311 339 l 311 0 l 103 0 l 103 1013 l 311 1013 l 311 568 l 707 1013 l 953 1013 l 549 576 l 996 0 l 747 0 l 415 447 l 311 339 z "},"ǩ":{"ha":772,"x_min":-42,"x_max":761,"o":"m 250 1096 l 101 1096 l -42 1304 l 67 1304 l 181 1169 l 294 1304 l 400 1304 l 250 1096 m 276 458 l 522 750 l 743 750 l 488 467 l 761 0 l 533 0 l 354 331 l 276 246 l 276 0 l 82 0 l 82 1013 l 276 1013 l 276 458 z "},"Ǫ":{"ha":1081,"x_min":56,"x_max":1031,"o":"m 490 -21 l 594 -21 q 456 -143 481 -92 q 443 -206 443 -169 q 549 -275 443 -275 q 628 -267 590 -275 l 628 -332 q 518 -346 574 -346 q 331 -267 374 -346 q 318 -214 318 -243 q 431 -49 318 -112 q 490 -21 458 -32 m 542 1029 q 889 889 758 1029 q 1031 510 1025 743 q 1031 492 1031 501 q 932 163 1031 307 q 889 108 913 133 q 543 -32 758 -32 q 197 108 328 -32 q 57 451 72 242 q 56 499 56 475 q 178 867 56 717 q 197 889 188 878 q 542 1029 326 1029 m 543 851 q 317 721 393 851 l 292 668 q 264 499 264 593 q 378 203 264 299 q 543 146 447 146 q 767 274 689 146 q 822 493 822 364 q 701 800 822 707 q 543 851 635 851 z "},"ǫ":{"ha":849,"x_min":49,"x_max":790,"o":"m 367 -21 l 471 -21 q 332 -143 357 -92 q 319 -206 319 -169 q 425 -275 319 -275 q 504 -267 467 -275 l 504 -332 q 394 -346 450 -346 q 207 -267 250 -346 q 194 -214 194 -243 q 307 -49 194 -112 q 367 -21 335 -32 m 418 763 q 740 589 647 763 q 790 360 790 494 q 647 36 790 140 q 419 -32 554 -32 q 107 128 203 -32 q 49 365 49 225 q 197 700 49 596 q 418 763 288 763 m 419 606 q 271 503 318 606 q 243 365 243 444 q 328 154 243 218 q 419 125 368 125 q 567 224 518 125 q 596 363 596 283 q 507 579 596 519 q 419 606 461 603 z "},"Ǭ":{"ha":1081,"x_min":56,"x_max":1031,"o":"m 749 1222 l 749 1113 l 333 1113 l 333 1222 l 749 1222 m 490 -21 l 594 -21 q 456 -143 481 -92 q 443 -206 443 -169 q 549 -275 443 -275 q 628 -267 590 -275 l 628 -332 q 518 -346 574 -346 q 331 -267 374 -346 q 318 -214 318 -243 q 431 -49 318 -112 q 490 -21 458 -32 m 542 1029 q 889 889 758 1029 q 1031 510 1025 743 q 1031 492 1031 501 q 932 163 1031 307 q 889 108 913 133 q 543 -32 758 -32 q 197 108 328 -32 q 57 451 72 242 q 56 499 56 475 q 178 867 56 717 q 197 889 188 878 q 542 1029 326 1029 m 543 851 q 317 721 393 851 l 292 668 q 264 499 264 593 q 378 203 264 299 q 543 146 447 146 q 767 274 689 146 q 822 493 822 364 q 701 800 822 707 q 543 851 635 851 z "},"ǭ":{"ha":849,"x_min":49,"x_max":790,"o":"m 625 956 l 625 846 l 210 846 l 210 956 l 625 956 m 367 -21 l 471 -21 q 332 -143 357 -92 q 319 -206 319 -169 q 425 -275 319 -275 q 504 -267 467 -275 l 504 -332 q 394 -346 450 -346 q 207 -267 250 -346 q 194 -214 194 -243 q 307 -49 194 -112 q 367 -21 335 -32 m 418 763 q 740 589 647 763 q 790 360 790 494 q 647 36 790 140 q 419 -32 554 -32 q 107 128 203 -32 q 49 365 49 225 q 197 700 49 596 q 418 763 288 763 m 419 606 q 271 503 318 606 q 243 365 243 444 q 328 154 243 218 q 419 125 368 125 q 567 224 518 125 q 596 363 596 283 q 507 579 596 519 q 419 606 461 603 z "},"Ǳ":{"ha":1851,"x_min":107,"x_max":1806,"o":"m 1806 1013 l 1806 839 l 1289 174 l 1806 174 l 1806 0 l 1044 0 l 1044 174 l 1563 839 l 1044 839 l 1044 1013 l 1806 1013 m 107 0 l 107 1013 l 503 1013 q 801 918 707 1013 q 822 896 813 907 q 946 507 946 749 q 822 118 946 263 q 535 0 731 7 q 503 0 519 0 l 107 0 m 315 174 l 503 174 q 738 506 738 174 q 503 839 738 839 l 315 839 l 315 174 z "},"ǲ":{"ha":1697,"x_min":107,"x_max":1653,"o":"m 1640 750 l 1640 593 l 1272 157 l 1653 157 l 1653 0 l 1032 0 l 1032 157 l 1403 593 l 1057 593 l 1057 750 l 1640 750 m 107 0 l 107 1013 l 503 1013 q 801 918 707 1013 q 822 896 813 907 q 946 507 946 749 q 822 118 946 263 q 535 0 731 7 q 503 0 519 0 l 107 0 m 315 174 l 503 174 q 738 506 738 174 q 503 839 738 839 l 315 839 l 315 174 z "},"ǳ":{"ha":1543,"x_min":40,"x_max":1499,"o":"m 1486 750 l 1486 593 l 1118 157 l 1499 157 l 1499 0 l 878 0 l 878 157 l 1249 593 l 903 593 l 903 750 l 1486 750 m 563 0 l 563 76 q 356 -32 490 -32 q 153 50 239 -32 q 121 88 135 68 q 40 364 40 204 q 150 671 40 554 q 356 763 236 763 q 563 653 492 763 l 563 1013 l 757 1013 l 757 0 l 563 0 m 399 600 q 263 501 307 600 q 235 364 235 443 q 314 160 235 221 q 399 131 351 131 q 536 229 492 131 q 563 361 563 286 q 481 574 563 513 q 399 600 444 600 z "},"Ǹ":{"ha":1003,"x_min":94,"x_max":918,"o":"m 282 1321 l 457 1321 l 554 1113 l 457 1113 l 282 1321 m 710 0 l 303 700 l 303 0 l 94 0 l 94 1013 l 308 1013 l 710 324 l 710 1013 l 918 1013 l 918 0 l 710 0 z "},"ǹ":{"ha":849,"x_min":88,"x_max":758,"o":"m 199 1054 l 374 1054 l 471 846 l 374 846 l 199 1054 m 88 750 l 282 750 l 282 642 q 489 763 358 756 q 507 763 497 763 q 739 622 683 763 q 758 503 758 569 l 758 0 l 564 0 l 564 463 q 439 597 564 597 q 297 519 336 597 q 282 450 282 489 l 282 0 l 88 0 l 88 750 z "},"Ǻ":{"ha":1003,"x_min":36,"x_max":976,"o":"m 729 1610 l 554 1401 l 457 1401 l 554 1610 l 729 1610 m 506 1318 q 613 1257 576 1318 q 629 1192 629 1228 q 571 1088 629 1124 q 504 1068 540 1068 q 397 1128 433 1068 q 379 1193 379 1158 q 440 1300 379 1264 q 506 1318 469 1318 m 506 1251 q 450 1214 465 1251 q 446 1193 446 1204 q 482 1139 446 1154 q 506 1135 493 1135 q 557 1169 542 1135 q 563 1193 563 1181 q 526 1247 563 1232 q 506 1251 517 1251 m 696 204 l 317 204 l 249 0 l 36 0 l 396 1013 l 626 1013 l 976 0 l 763 0 l 696 204 m 639 378 l 507 774 l 375 378 l 639 378 z "},"ǻ":{"ha":772,"x_min":39,"x_max":728,"o":"m 603 1361 l 428 1153 l 331 1153 l 428 1361 l 603 1361 m 379 1069 q 486 1008 450 1069 q 503 943 503 979 q 444 839 503 875 q 378 819 414 819 q 271 879 307 819 q 253 944 253 910 q 314 1051 253 1015 q 379 1069 343 1069 m 379 1003 q 324 965 339 1003 q 319 944 319 956 q 356 890 319 906 q 379 886 367 886 q 431 921 415 886 q 436 944 436 932 q 400 999 436 983 q 379 1003 390 1003 m 728 24 l 728 0 l 517 0 q 494 75 494 33 q 267 -32 392 -32 q 92 39 160 -32 q 39 193 39 96 q 260 429 39 392 l 338 443 q 453 468 432 458 q 460 472 454 469 q 493 531 493 490 q 381 606 493 606 q 260 561 286 606 l 247 528 l 243 503 l 56 503 q 376 763 74 763 q 683 532 683 763 l 683 115 q 719 32 683 68 q 728 24 724 28 m 493 301 l 493 354 q 411 331 467 342 l 344 318 q 238 249 253 299 l 233 215 q 301 129 233 147 q 339 125 318 125 q 486 240 460 125 q 493 301 493 268 z "},"Ǽ":{"ha":1389,"x_min":1,"x_max":1342,"o":"m 1064 1321 l 889 1113 l 792 1113 l 889 1321 l 1064 1321 m 597 211 l 288 211 l 214 0 l 1 0 l 367 1013 l 1314 1013 l 1314 839 l 806 839 l 806 610 l 1276 610 l 1276 436 l 806 436 l 806 174 l 1342 174 l 1342 0 l 597 0 l 597 211 m 597 385 l 597 839 l 504 839 l 346 385 l 597 385 z "},"ǽ":{"ha":1235,"x_min":38,"x_max":1190,"o":"m 829 1054 l 654 846 l 557 846 l 654 1054 l 829 1054 m 989 211 l 1181 211 q 1001 4 1139 68 q 833 -32 925 -32 q 556 113 644 -32 q 299 -32 440 -22 q 271 -33 285 -33 q 67 74 125 -33 q 38 196 38 126 q 233 428 38 385 q 258 433 246 431 l 336 447 q 451 472 431 463 q 458 476 453 474 q 492 532 492 494 q 374 606 492 606 q 254 551 279 606 q 242 503 246 532 l 60 503 q 376 763 64 763 q 619 693 539 763 q 835 763 706 763 q 1118 625 1021 763 l 1147 576 q 1161 544 1154 561 q 1190 347 1190 461 q 1189 314 1190 331 l 686 314 q 714 185 686 228 q 844 117 758 117 q 968 174 924 117 q 989 211 983 192 m 492 300 l 492 353 q 410 326 461 335 l 343 317 q 232 215 232 301 q 301 128 232 144 q 338 124 318 124 q 489 257 469 124 q 492 300 492 278 m 688 443 l 988 443 q 836 614 972 614 q 688 443 700 614 z "},"Ǿ":{"ha":1081,"x_min":43,"x_max":1049,"o":"m 767 1332 l 592 1124 l 494 1124 l 592 1332 l 767 1332 m 229 72 l 114 -54 l 43 10 l 163 142 q 49 499 49 294 q 167 860 49 713 q 192 889 179 875 q 539 1029 322 1029 q 847 924 721 1029 q 861 913 854 918 l 976 1040 l 1049 978 l 925 840 q 1026 526 1018 713 q 1028 496 1028 511 q 918 149 1028 294 q 885 108 903 126 q 539 -32 754 -32 q 229 72 350 -32 m 788 690 l 356 213 q 539 146 425 146 q 767 279 690 146 q 819 501 819 369 q 788 690 819 606 m 297 290 l 733 771 q 539 851 657 851 q 307 714 383 851 q 257 494 257 624 q 297 290 257 379 z "},"ǿ":{"ha":849,"x_min":15,"x_max":831,"o":"m 643 1065 l 468 857 l 371 857 l 468 1065 l 643 1065 m 175 49 l 75 -53 l 15 3 l 119 110 q 50 365 50 210 q 204 703 50 600 q 424 763 294 763 q 676 676 572 763 l 771 774 l 831 717 l 731 615 q 796 365 796 514 q 646 31 796 135 q 425 -32 556 -32 q 188 38 279 -32 q 175 49 181 43 m 585 467 l 306 183 q 425 125 356 125 q 569 221 519 125 q 601 361 601 281 q 585 467 601 417 m 264 256 l 544 542 q 421 607 490 607 q 275 508 324 607 q 244 369 244 449 q 264 256 244 306 z "},"Ȃ":{"ha":1003,"x_min":36,"x_max":976,"o":"m 694 1113 l 694 1128 q 615 1281 694 1226 q 511 1311 569 1311 q 358 1232 411 1311 q 328 1126 328 1185 l 328 1113 l 406 1113 q 513 1204 418 1204 q 615 1122 597 1204 q 617 1113 615 1118 l 694 1113 m 696 204 l 317 204 l 249 0 l 36 0 l 396 1013 l 626 1013 l 976 0 l 763 0 l 696 204 m 639 378 l 507 774 l 375 378 l 639 378 z "},"ȃ":{"ha":772,"x_min":39,"x_max":728,"o":"m 560 846 l 560 861 q 481 1014 560 960 q 376 1044 435 1044 q 224 965 276 1044 q 193 860 193 918 l 193 846 l 271 846 q 378 938 283 938 q 481 856 463 938 q 482 846 481 851 l 560 846 m 728 24 l 728 0 l 517 0 q 494 75 494 33 q 267 -32 392 -32 q 92 39 160 -32 q 39 193 39 96 q 260 429 39 392 l 338 443 q 453 468 432 458 q 460 472 454 469 q 493 531 493 490 q 381 606 493 606 q 260 561 286 606 l 247 528 l 243 503 l 56 503 q 376 763 74 763 q 683 532 683 763 l 683 115 q 719 32 683 68 q 728 24 724 28 m 493 301 l 493 354 q 411 331 467 342 l 344 318 q 238 249 253 299 l 233 215 q 301 129 233 147 q 339 125 318 125 q 486 240 460 125 q 493 301 493 268 z "},"Ȇ":{"ha":926,"x_min":110,"x_max":867,"o":"m 658 1113 l 658 1128 q 579 1281 658 1226 q 475 1311 533 1311 q 322 1232 375 1311 q 292 1126 292 1185 l 292 1113 l 369 1113 q 476 1204 382 1204 q 579 1122 561 1204 q 581 1113 579 1118 l 658 1113 m 318 436 l 318 174 l 867 174 l 867 0 l 110 0 l 110 1013 l 842 1013 l 842 839 l 318 839 l 318 610 l 803 610 l 803 436 l 318 436 z "},"ȇ":{"ha":772,"x_min":31,"x_max":729,"o":"m 561 846 l 561 861 q 482 1014 561 960 q 378 1044 436 1044 q 225 965 278 1044 q 194 860 194 918 l 194 846 l 272 846 q 379 938 285 938 q 482 856 464 938 q 483 846 482 851 l 561 846 m 728 314 l 225 314 q 253 182 229 219 q 381 117 296 117 q 525 201 485 117 q 529 211 528 206 l 721 211 q 546 7 681 71 q 374 -32 468 -32 q 86 121 176 -32 q 31 356 31 217 q 175 701 31 596 q 378 763 258 763 q 649 638 551 763 q 696 554 678 600 q 700 544 699 549 q 729 347 729 460 q 728 314 729 331 m 228 443 l 526 443 q 496 551 521 513 q 375 614 451 614 q 228 443 247 614 z "},"Ȋ":{"ha":386,"x_min":8,"x_max":375,"o":"m 375 1113 l 375 1128 q 296 1281 375 1226 q 192 1311 250 1311 q 39 1232 92 1311 q 8 1126 8 1185 l 8 1113 l 86 1113 q 193 1204 99 1204 q 296 1122 278 1204 q 297 1113 296 1118 l 375 1113 m 296 1013 l 296 0 l 88 0 l 88 1013 l 296 1013 z "},"ȋ":{"ha":386,"x_min":7,"x_max":374,"o":"m 374 846 l 374 861 q 294 1014 374 960 q 190 1044 249 1044 q 38 965 90 1044 q 7 860 7 918 l 7 846 l 85 846 q 192 938 97 938 q 294 856 276 938 q 296 846 294 851 l 374 846 m 288 750 l 288 0 l 93 0 l 93 750 l 288 750 z "},"Ȏ":{"ha":1081,"x_min":56,"x_max":1031,"o":"m 725 1113 l 725 1128 q 646 1281 725 1226 q 542 1311 600 1311 q 389 1232 442 1311 q 358 1126 358 1185 l 358 1113 l 436 1113 q 543 1204 449 1204 q 646 1122 628 1204 q 647 1113 646 1118 l 725 1113 m 542 1029 q 889 889 758 1029 q 1031 510 1025 743 q 1031 492 1031 501 q 932 163 1031 307 q 889 108 913 133 q 543 -32 758 -32 q 197 108 328 -32 q 57 451 72 242 q 56 499 56 475 q 178 867 56 717 q 197 889 188 878 q 542 1029 326 1029 m 543 851 q 317 721 393 851 l 292 668 q 264 499 264 593 q 378 203 264 299 q 543 146 447 146 q 767 274 689 146 q 822 493 822 364 q 701 800 822 707 q 543 851 635 851 z "},"ȏ":{"ha":849,"x_min":49,"x_max":790,"o":"m 601 846 l 601 861 q 522 1014 601 960 q 418 1044 476 1044 q 265 965 318 1044 q 235 860 235 918 l 235 846 l 313 846 q 419 938 325 938 q 522 856 504 938 q 524 846 522 851 l 601 846 m 418 763 q 740 589 647 763 q 790 360 790 494 q 647 36 790 140 q 419 -32 554 -32 q 107 128 203 -32 q 49 365 49 225 q 197 700 49 596 q 418 763 288 763 m 419 606 q 271 503 318 606 q 243 365 243 444 q 328 154 243 218 q 419 125 368 125 q 567 224 518 125 q 596 363 596 283 q 507 579 596 519 q 419 606 461 603 z "},"Ȓ":{"ha":1003,"x_min":111,"x_max":940,"o":"m 565 1113 l 565 1128 q 486 1281 565 1226 q 382 1311 440 1311 q 229 1232 282 1311 q 199 1126 199 1185 l 199 1113 l 276 1113 q 383 1204 289 1204 q 486 1122 468 1204 q 488 1113 486 1118 l 565 1113 m 319 401 l 319 0 l 111 0 l 111 1013 l 654 1013 q 850 943 782 1013 q 926 739 926 864 q 756 489 926 556 q 857 425 835 454 q 893 244 888 383 l 896 121 q 935 42 896 65 q 940 38 938 39 l 940 0 l 717 0 q 685 129 688 53 q 685 174 685 147 q 686 240 685 214 q 688 281 688 258 q 603 397 688 382 q 558 401 583 401 l 319 401 m 319 575 l 571 575 q 681 601 650 575 q 718 710 718 635 q 681 813 718 781 q 571 839 642 838 l 319 839 l 319 575 z "},"ȓ":{"ha":540,"x_min":88,"x_max":514,"o":"m 483 846 l 483 861 q 404 1014 483 960 q 300 1044 358 1044 q 147 965 200 1044 q 117 860 117 918 l 117 846 l 194 846 q 301 938 207 938 q 404 856 386 938 q 406 846 404 851 l 483 846 m 88 750 l 282 750 l 282 603 q 440 756 333 728 q 490 763 465 763 q 514 761 503 763 l 514 564 q 453 569 479 569 q 282 399 282 569 l 282 0 l 88 0 l 88 750 z "},"Ȗ":{"ha":1003,"x_min":106,"x_max":908,"o":"m 690 1113 l 690 1128 q 611 1281 690 1226 q 507 1311 565 1311 q 354 1232 407 1311 q 324 1126 324 1185 l 324 1113 l 401 1113 q 508 1204 414 1204 q 611 1122 593 1204 q 613 1113 611 1118 l 690 1113 m 700 1013 l 908 1013 l 908 326 q 810 71 908 160 q 507 -32 696 -32 q 204 71 318 -32 q 106 326 106 160 l 106 1013 l 314 1013 l 314 326 q 507 146 328 151 q 700 326 694 156 l 700 1013 z "},"ȗ":{"ha":849,"x_min":81,"x_max":751,"o":"m 599 846 l 599 861 q 519 1014 599 960 q 415 1044 474 1044 q 263 965 315 1044 q 232 860 232 918 l 232 846 l 310 846 q 417 938 322 938 q 519 856 501 938 q 521 846 519 851 l 599 846 m 751 0 l 557 0 l 557 89 q 350 -32 481 -25 q 332 -32 342 -32 q 100 108 156 -32 q 81 228 81 161 l 81 750 l 275 750 l 275 268 q 400 133 275 133 q 542 211 503 133 q 557 281 557 242 l 557 750 l 751 750 l 751 0 z "},"Ș":{"ha":926,"x_min":44,"x_max":879,"o":"m 392 -83 l 561 -83 l 561 -226 q 482 -396 561 -340 q 392 -426 443 -425 l 392 -362 q 485 -239 485 -344 l 392 -239 l 392 -83 m 843 704 l 649 704 q 475 861 639 844 q 436 863 457 863 q 274 789 311 863 l 263 758 q 261 738 261 749 q 319 644 261 674 q 453 606 361 624 l 611 575 q 861 410 813 536 q 879 296 879 361 q 708 17 879 100 q 464 -32 608 -32 q 76 165 165 -32 q 44 303 49 225 l 247 303 q 410 139 256 164 q 475 135 440 135 q 667 218 625 135 q 679 271 679 242 q 599 388 679 351 q 489 418 558 406 l 347 446 q 92 585 147 483 q 63 718 63 638 q 236 992 63 917 q 446 1029 324 1029 q 772 914 668 1029 q 843 704 843 835 z "},"ș":{"ha":772,"x_min":40,"x_max":722,"o":"m 315 -83 l 485 -83 l 485 -226 q 406 -396 485 -340 q 315 -426 367 -425 l 315 -362 q 408 -239 408 -344 l 315 -239 l 315 -83 m 701 508 l 514 508 q 374 610 513 610 q 265 561 285 610 l 261 540 q 294 494 261 510 q 329 482 307 489 l 575 411 q 722 222 722 368 q 639 40 722 111 q 633 35 636 38 q 394 -32 550 -32 q 43 186 72 -32 q 40 218 40 201 l 231 218 q 268 147 242 168 q 383 121 308 121 q 525 179 508 121 q 528 194 528 186 q 485 247 528 231 q 463 256 475 251 l 231 328 q 113 386 144 356 q 108 390 111 388 q 67 513 67 436 q 200 726 67 663 q 375 763 272 763 q 665 636 586 763 q 701 508 700 582 z "},"Ț":{"ha":849,"x_min":19,"x_max":831,"o":"m 350 -83 l 519 -83 l 519 -226 q 440 -396 519 -340 q 350 -426 401 -425 l 350 -362 q 443 -239 443 -344 l 350 -239 l 350 -83 m 535 839 l 535 0 l 326 0 l 326 839 l 19 839 l 19 1013 l 831 1013 l 831 839 l 535 839 z "},"ț":{"ha":463,"x_min":19,"x_max":418,"o":"m 176 -83 l 346 -83 l 346 -226 q 267 -396 346 -340 q 176 -426 228 -425 l 176 -362 q 269 -239 269 -344 l 176 -239 l 176 -83 m 418 735 l 418 606 l 310 606 l 310 197 q 335 121 310 133 q 374 115 349 115 q 418 119 389 115 l 418 -17 q 306 -32 371 -32 q 115 144 115 -32 l 115 606 l 19 606 l 19 735 l 115 735 l 115 936 l 310 936 l 310 735 l 418 735 z "},"ˆ":{"ha":463,"x_min":11,"x_max":453,"o":"m 161 1051 l 310 1051 l 453 843 l 344 843 l 231 982 l 117 843 l 11 843 l 161 1051 z "},"ˇ":{"ha":463,"x_min":13,"x_max":454,"o":"m 304 843 l 156 843 l 13 1051 l 121 1051 l 235 917 l 349 1051 l 454 1051 l 304 843 z "},"˘":{"ha":463,"x_min":49,"x_max":415,"o":"m 415 1039 l 415 1024 q 336 871 415 925 q 232 840 290 840 q 79 919 132 840 q 49 1025 49 967 l 49 1039 l 126 1039 q 233 947 139 947 q 336 1029 318 947 q 338 1039 336 1033 l 415 1039 z "},"˙":{"ha":463,"x_min":156,"x_max":308,"o":"m 308 1032 l 308 863 l 156 863 l 156 1032 l 308 1032 z "},"˚":{"ha":463,"x_min":107,"x_max":357,"o":"m 233 1069 q 340 1008 304 1069 q 357 943 357 979 q 299 839 357 875 q 232 819 268 819 q 125 879 161 819 q 107 944 107 910 q 168 1051 107 1015 q 233 1069 197 1069 m 233 1003 q 178 965 193 1003 q 174 944 174 956 q 210 890 174 906 q 233 886 221 886 q 285 921 269 886 q 290 944 290 932 q 254 999 290 983 q 233 1003 244 1003 z "},"˛":{"ha":463,"x_min":63,"x_max":372,"o":"m 235 0 l 339 0 q 200 -122 225 -71 q 188 -185 188 -149 q 293 -254 188 -254 q 372 -246 335 -254 l 372 -311 q 263 -325 318 -325 q 75 -246 118 -325 q 63 -193 63 -222 q 175 -28 63 -92 q 235 0 203 -11 z "},"˜":{"ha":463,"x_min":-12,"x_max":479,"o":"m 392 1040 l 479 1040 q 347 864 471 864 q 271 881 314 864 l 172 917 q 131 925 147 925 q 78 876 89 925 q 75 863 76 869 l -12 863 q 79 1028 -6 999 q 118 1035 97 1035 q 196 1017 146 1035 l 294 982 q 342 974 314 974 q 392 1040 386 974 z "},"˝":{"ha":463,"x_min":-61,"x_max":472,"o":"m 211 1051 l 36 847 l -61 847 l 36 1051 l 211 1051 m 472 1051 l 297 847 l 200 847 l 297 1051 l 472 1051 z "},"ʹ":{"ha":526,"x_min":78,"x_max":457,"o":"m 457 1096 l 167 838 l 78 838 l 204 1096 l 457 1096 z "},"͵":{"ha":526,"x_min":81,"x_max":460,"o":"m 81 -258 l 371 0 l 460 0 l 333 -258 l 81 -258 z "},"ͺ":{"ha":461,"x_min":179,"x_max":440,"o":"m 439 -267 q 399 -344 439 -331 l 357 -350 q 303 -351 340 -351 q 181 -242 181 -351 l 181 -104 l 307 -104 l 308 -249 q 351 -300 313 -299 q 389 -290 386 -299 l 399 -267 l 439 -267 z "},";":{"ha":463,"x_min":157,"x_max":365,"o":"m 157 203 l 365 203 l 365 13 q 318 -165 365 -112 q 290 -190 306 -178 q 157 -242 236 -232 l 157 -164 q 275 -36 263 -142 q 276 -4 276 -21 l 276 0 l 157 0 l 157 203 m 365 722 l 365 519 l 157 519 l 157 722 l 365 722 z "},"΄":{"ha":451,"x_min":46,"x_max":231,"o":"m 231 1096 l 183 817 l 78 817 l 46 1096 l 231 1096 z "},"΅":{"ha":914,"x_min":25,"x_max":436,"o":"m 335 1313 l 288 1033 l 182 1033 l 150 1313 l 335 1313 m 178 1032 l 178 863 l 25 863 l 25 1032 l 178 1032 m 436 1032 l 436 863 l 283 863 l 283 1032 l 436 1032 z "},"Ά":{"ha":1057,"x_min":-11,"x_max":976,"o":"m 174 1042 l 126 763 l 21 763 l -11 1042 l 174 1042 m 696 204 l 317 204 l 249 0 l 36 0 l 396 1013 l 626 1013 l 976 0 l 763 0 l 696 204 m 639 378 l 507 774 l 375 378 l 639 378 z "},"·":{"ha":658,"x_min":238,"x_max":456,"o":"m 239 399 q 297 493 239 467 q 347 503 321 503 q 447 443 421 503 q 456 399 456 422 q 399 306 456 333 q 347 296 375 296 q 247 356 274 296 q 239 399 239 376 z "},"Έ":{"ha":981,"x_min":-210,"x_max":867,"o":"m -25 1040 l -72 761 l -178 761 l -210 1040 l -25 1040 m 318 436 l 318 174 l 867 174 l 867 0 l 110 0 l 110 1013 l 842 1013 l 842 839 l 318 839 l 318 610 l 803 610 l 803 436 l 318 436 z "},"Ή":{"ha":1018,"x_min":-214,"x_max":913,"o":"m -29 1033 l -76 754 l -182 754 l -214 1033 l -29 1033 m 704 460 l 303 460 l 303 0 l 94 0 l 94 1013 l 303 1013 l 303 633 l 703 633 l 703 1013 l 913 1013 l 913 0 l 704 0 l 704 460 z "},"Ί":{"ha":396,"x_min":-211,"x_max":296,"o":"m -26 1036 l -74 757 l -179 757 l -211 1036 l -26 1036 m 296 1013 l 296 0 l 88 0 l 88 1013 l 296 1013 z "},"Ό":{"ha":1090,"x_min":-133,"x_max":1001,"o":"m 51 1033 l 4 754 l -101 754 l -133 1033 l 51 1033 m 1000 501 q 871 121 1000 258 q 538 -17 743 -17 q 204 121 329 -17 q 75 501 75 258 q 204 875 75 739 q 538 1014 329 1014 q 871 875 746 1014 q 1000 501 1000 739 m 817 499 q 733 768 817 688 q 538 846 649 846 q 342 768 426 846 q 258 499 258 688 q 342 229 258 308 q 538 150 426 150 q 733 229 649 150 q 817 499 817 308 z "},"Ύ":{"ha":1143,"x_min":-231,"x_max":1063,"o":"m -46 1036 l -93 757 l -199 757 l -231 1036 l -46 1036 m 1063 1017 l 633 426 l 633 0 l 433 0 l 433 426 l 19 1017 l 263 1017 l 469 715 l 542 603 l 619 722 l 824 1017 l 1063 1017 z "},"Ώ":{"ha":1138,"x_min":-185,"x_max":1018,"o":"m 0 1032 l -47 753 l -153 753 l -185 1032 l 0 1032 m 1018 508 q 849 146 1018 276 l 1015 146 l 1015 -24 l 560 -24 l 560 139 q 760 289 700 196 q 819 506 819 388 q 739 747 819 646 q 511 847 653 847 q 267 700 349 847 q 253 674 260 686 q 218 501 218 596 q 274 293 218 385 q 460 140 329 196 l 460 -24 l 19 -24 l 19 146 l 190 146 q 26 503 26 283 q 169 874 26 721 q 247 943 206 913 q 508 1017 360 1017 q 790 943 674 1017 q 963 751 906 868 q 1018 508 1018 633 z "},"Α":{"ha":1003,"x_min":36,"x_max":976,"o":"m 696 204 l 317 204 l 249 0 l 36 0 l 396 1013 l 626 1013 l 976 0 l 763 0 l 696 204 m 639 378 l 507 774 l 375 378 l 639 378 z "},"Β":{"ha":1003,"x_min":114,"x_max":925,"o":"m 114 0 l 114 1013 l 565 1013 q 804 939 718 1013 q 896 763 888 867 q 896 746 896 754 q 808 574 896 646 l 757 538 q 925 292 925 439 q 850 99 925 182 l 825 74 q 569 0 738 0 l 114 0 m 322 839 l 322 610 l 549 610 q 696 724 689 619 q 564 839 696 832 l 549 839 l 322 839 m 322 436 l 322 174 l 571 174 q 725 304 721 181 q 571 436 725 436 l 322 436 z "},"Γ":{"ha":892,"x_min":79,"x_max":821,"o":"m 821 826 l 282 826 l 282 0 l 79 0 l 79 1013 l 821 1013 l 821 826 z "},"Δ":{"ha":1008,"x_min":0,"x_max":1006,"o":"m 0 0 l 390 1013 l 592 1013 l 1006 0 l 0 0 m 718 174 l 493 763 l 282 174 l 718 174 z "},"Ε":{"ha":926,"x_min":110,"x_max":867,"o":"m 318 436 l 318 174 l 867 174 l 867 0 l 110 0 l 110 1013 l 842 1013 l 842 839 l 318 839 l 318 610 l 803 610 l 803 436 l 318 436 z "},"Ζ":{"ha":849,"x_min":42,"x_max":803,"o":"m 803 1013 l 803 839 l 286 174 l 803 174 l 803 0 l 42 0 l 42 174 l 560 839 l 42 839 l 42 1013 l 803 1013 z "},"Η":{"ha":1003,"x_min":94,"x_max":913,"o":"m 704 460 l 303 460 l 303 0 l 94 0 l 94 1013 l 303 1013 l 303 633 l 703 633 l 703 1013 l 913 1013 l 913 0 l 704 0 l 704 460 z "},"Θ":{"ha":1125,"x_min":38,"x_max":1033,"o":"m 1032 506 q 828 90 1032 231 q 788 65 808 78 q 535 4 675 4 q 297 54 413 4 q 46 394 83 151 q 38 494 38 443 q 161 854 38 721 q 176 871 168 863 q 504 1008 297 997 q 535 1008 519 1008 q 876 888 740 1008 q 1032 531 1024 765 q 1032 506 1032 518 m 832 506 q 690 801 832 717 l 657 818 q 535 842 600 842 q 260 653 325 842 q 236 493 236 583 q 321 257 236 344 q 532 172 396 172 q 789 313 711 172 q 793 322 792 318 q 832 506 832 396 m 793 436 l 271 436 l 271 606 l 793 606 l 793 436 z "},"Ι":{"ha":386,"x_min":88,"x_max":296,"o":"m 296 1013 l 296 0 l 88 0 l 88 1013 l 296 1013 z "},"Κ":{"ha":1003,"x_min":103,"x_max":996,"o":"m 311 339 l 311 0 l 103 0 l 103 1013 l 311 1013 l 311 568 l 707 1013 l 953 1013 l 549 576 l 996 0 l 747 0 l 415 447 l 311 339 z "},"Λ":{"ha":1033,"x_min":46,"x_max":1010,"o":"m 518 749 l 247 4 l 47 4 l 429 996 l 604 996 l 1010 4 l 803 4 l 518 749 z "},"Μ":{"ha":1194,"x_min":42,"x_max":1086,"o":"m 1085 -10 l 883 -10 l 883 622 l 649 -10 l 475 -10 l 244 631 l 244 -10 l 43 -10 l 43 1007 l 308 1007 q 576 285 336 988 q 779 836 604 365 q 842 1007 815 931 l 1085 1007 l 1085 -10 z "},"Ν":{"ha":992,"x_min":43,"x_max":896,"o":"m 896 -11 l 708 -11 l 240 657 l 240 -11 l 43 -11 l 43 1006 l 233 1006 l 701 336 l 701 1006 l 896 1006 l 896 -11 z "},"Ξ":{"ha":958,"x_min":63,"x_max":874,"o":"m 851 833 l 63 833 l 63 1010 l 851 1010 l 851 833 m 774 431 l 149 431 l 149 607 l 774 607 l 774 431 m 874 1 l 63 1 l 63 178 l 874 178 l 874 1 z "},"Ο":{"ha":1142,"x_min":74,"x_max":1001,"o":"m 1000 501 q 871 121 1000 258 q 538 -17 743 -17 q 204 121 329 -17 q 75 501 75 258 q 204 875 75 739 q 538 1014 329 1014 q 871 875 746 1014 q 1000 501 1000 739 m 817 499 q 733 768 817 688 q 538 846 649 846 q 342 768 426 846 q 258 499 258 688 q 342 229 258 308 q 538 150 426 150 q 733 229 649 150 q 817 499 817 308 z "},"Π":{"ha":1085,"x_min":76,"x_max":924,"o":"m 924 -10 l 724 -10 l 724 828 l 276 828 l 276 -10 l 76 -10 l 76 1006 l 924 1006 l 924 -10 z "},"Ρ":{"ha":969,"x_min":74,"x_max":901,"o":"m 901 699 q 863 536 901 606 q 729 417 822 461 q 494 376 638 376 l 274 376 l 274 -11 l 74 -11 l 74 1006 l 483 1006 q 650 996 597 1006 q 796 932 739 979 q 876 824 853 885 q 901 699 901 764 m 696 693 q 607 821 696 794 q 494 826 568 826 l 274 826 l 274 554 l 497 554 q 654 589 606 554 q 696 693 696 619 z "},"Σ":{"ha":956,"x_min":21,"x_max":876,"o":"m 876 -14 l 21 -14 l 21 149 l 339 531 l 68 847 l 68 1004 l 849 1004 l 849 826 l 338 826 q 363 796 354 806 q 388 767 379 778 l 590 531 l 293 178 l 281 164 l 876 164 l 876 -14 z "},"Τ":{"ha":956,"x_min":19,"x_max":878,"o":"m 878 839 l 547 839 l 547 1 l 347 1 l 347 839 l 19 839 l 19 1017 l 878 1017 l 878 839 z "},"Υ":{"ha":1117,"x_min":19,"x_max":1063,"o":"m 1063 1017 l 633 426 l 633 0 l 433 0 l 433 426 l 19 1017 l 263 1017 l 469 715 l 542 603 l 619 722 l 824 1017 l 1063 1017 z "},"Φ":{"ha":1079,"x_min":6,"x_max":990,"o":"m 990 483 q 865 192 990 306 q 590 81 757 90 l 590 -18 l 406 -18 l 406 81 q 131 192 239 90 q 6 483 6 306 q 131 779 6 660 q 407 894 242 883 l 407 1004 l 589 1004 l 589 894 q 864 779 756 883 q 990 483 990 660 m 794 490 q 675 694 794 628 q 590 726 636 717 l 590 243 q 774 386 726 272 q 794 490 794 433 m 406 243 l 406 726 q 221 588 268 696 q 201 507 204 550 q 201 490 201 499 q 268 315 201 383 q 406 243 326 260 z "},"Χ":{"ha":1088,"x_min":3,"x_max":1067,"o":"m 1065 -10 l 814 -10 l 564 326 q 535 367 549 347 q 271 15 529 358 q 251 -10 258 -1 l 4 -10 l 421 522 l 53 1011 l 296 1011 q 450 808 315 982 q 542 679 508 732 q 771 967 556 697 q 806 1011 790 992 l 1039 1011 l 658 528 l 1065 -10 z "},"Ψ":{"ha":1118,"x_min":38,"x_max":999,"o":"m 999 513 q 936 301 999 381 q 772 197 872 221 q 617 183 725 183 l 618 183 l 618 -14 l 418 -14 l 418 183 l 419 183 q 194 221 265 183 q 147 253 171 233 q 38 513 38 339 l 38 1017 l 232 1011 l 232 529 q 288 388 232 421 q 303 379 294 383 q 422 361 344 361 l 424 361 l 424 1013 l 613 1013 l 613 361 l 614 361 q 786 428 756 361 q 804 529 804 464 l 804 1011 l 999 1017 l 999 513 z "},"Ω":{"ha":1083,"x_min":18,"x_max":1018,"o":"m 1018 508 q 849 146 1018 276 l 1015 146 l 1015 -24 l 560 -24 l 560 139 q 760 289 700 196 q 819 506 819 388 q 739 747 819 646 q 511 847 653 847 q 267 700 349 847 q 253 674 260 686 q 218 501 218 596 q 274 293 218 385 q 460 140 329 196 l 460 -24 l 19 -24 l 19 146 l 190 146 q 26 503 26 283 q 169 874 26 721 q 247 943 206 913 q 508 1017 360 1017 q 790 943 674 1017 q 963 751 906 868 q 1018 508 1018 633 z "},"Ϊ":{"ha":386,"x_min":-14,"x_max":397,"o":"m 139 1282 l 139 1113 l -14 1113 l -14 1282 l 139 1282 m 397 1282 l 397 1113 l 244 1113 l 244 1282 l 397 1282 m 296 1013 l 296 0 l 88 0 l 88 1013 l 296 1013 z "},"Ϋ":{"ha":1117,"x_min":19,"x_max":1063,"o":"m 488 1282 l 488 1113 l 335 1113 l 335 1282 l 488 1282 m 746 1282 l 746 1113 l 593 1113 l 593 1282 l 746 1282 m 1063 1017 l 633 426 l 633 0 l 433 0 l 433 426 l 19 1017 l 263 1017 l 469 715 l 542 603 l 619 722 l 824 1017 l 1063 1017 z "},"ά":{"ha":917,"x_min":33,"x_max":857,"o":"m 483 1104 l 436 825 l 331 825 l 299 1104 l 483 1104 m 547 371 q 504 532 547 469 q 383 589 465 589 q 217 365 217 589 q 381 147 217 147 q 547 371 547 147 m 586 38 q 383 -19 503 -19 q 35 371 35 -19 q 135 660 35 563 q 383 753 235 753 q 582 689 510 750 q 588 683 585 686 l 588 740 l 758 740 l 758 150 l 806 181 l 857 22 q 701 -21 761 -21 q 594 26 639 -21 q 586 38 589 32 z "},"έ":{"ha":776,"x_min":19,"x_max":701,"o":"m 451 1088 l 404 808 l 299 808 l 267 1088 l 451 1088 m 701 242 q 544 15 674 63 q 533 11 539 13 q 351 -14 463 -14 q 19 210 19 -14 q 92 361 19 307 q 110 372 100 367 q 19 536 19 428 q 239 751 19 718 q 351 760 289 758 l 364 760 q 647 654 574 760 q 701 503 688 597 l 525 503 q 469 582 517 563 q 347 603 424 603 q 203 528 206 603 q 275 450 211 464 q 346 443 301 443 l 444 443 l 444 301 l 346 301 q 219 264 246 301 q 203 217 207 247 q 347 143 206 143 q 469 164 424 143 q 525 242 517 183 l 701 242 z "},"ή":{"ha":778,"x_min":26,"x_max":761,"o":"m 465 1100 l 418 821 l 313 821 l 281 1100 l 465 1100 m 271 678 l 279 692 q 317 719 286 703 q 389 747 347 736 q 478 760 433 760 q 619 732 558 760 q 718 647 682 706 q 758 514 754 592 q 760 443 760 504 l 760 -278 l 568 -226 l 568 438 q 556 533 568 503 q 453 589 531 589 q 296 394 296 589 l 296 -22 l 104 -22 l 104 569 q 106 579 104 575 q 108 586 108 586 l 58 575 l 26 733 q 151 761 104 761 q 244 719 208 761 q 271 678 261 701 z "},"ί":{"ha":494,"x_min":43,"x_max":419,"o":"m 236 1088 l 189 808 l 83 808 l 51 1088 l 236 1088 m 419 19 q 250 -24 314 -24 q 100 32 161 -24 q 43 200 43 88 l 43 756 l 235 756 l 235 224 l 235 206 l 235 197 q 238 188 235 197 q 253 164 239 174 q 263 161 256 161 l 269 161 q 353 196 292 164 l 419 19 z "},"ΰ":{"ha":799,"x_min":21,"x_max":699,"o":"m 464 1296 l 417 1017 l 311 1017 l 279 1296 l 464 1296 m 307 1015 l 307 846 l 154 846 l 154 1015 l 307 1015 m 565 1015 l 565 846 l 413 846 l 413 1015 l 565 1015 m 699 294 q 686 165 699 211 q 647 76 675 119 q 553 10 626 51 q 364 -22 493 -22 q 165 10 225 -22 q 72 76 93 53 q 33 165 44 117 q 21 294 21 211 l 21 754 l 213 754 l 213 339 q 222 215 213 254 q 246 176 233 183 q 286 156 269 160 q 361 146 311 146 q 433 156 408 146 q 472 176 453 161 q 497 215 488 188 q 507 339 507 254 l 507 754 l 699 754 l 699 294 z "},"α":{"ha":911,"x_min":33,"x_max":857,"o":"m 547 371 q 504 532 547 469 q 383 589 465 589 q 217 365 217 589 q 381 147 217 147 q 547 371 547 147 m 586 38 q 383 -19 503 -19 q 35 371 35 -19 q 135 660 35 563 q 383 753 235 753 q 582 689 510 750 q 588 683 585 686 l 588 740 l 758 740 l 758 150 l 806 181 l 857 22 q 701 -21 761 -21 q 594 26 639 -21 q 586 38 589 32 z "},"β":{"ha":800,"x_min":38,"x_max":732,"o":"m 731 283 q 613 35 731 121 q 585 17 600 25 q 414 -25 513 -25 q 225 21 296 -25 l 225 -264 l 38 -264 l 38 657 q 93 890 38 814 q 132 933 108 913 q 347 1003 213 1003 q 622 869 547 1003 l 642 824 l 654 769 q 657 728 657 749 q 568 538 650 603 l 567 536 l 567 535 q 731 283 731 471 m 539 286 q 499 390 539 361 q 350 429 444 429 l 247 429 l 247 589 l 339 589 q 453 629 418 589 q 489 731 489 671 q 418 836 489 808 q 365 844 394 844 q 253 801 296 844 q 225 653 225 775 l 226 215 q 279 158 240 179 q 389 135 315 135 q 518 199 478 135 q 539 286 539 232 z "},"γ":{"ha":821,"x_min":3,"x_max":774,"o":"m 772 744 l 499 58 l 499 -276 l 313 -276 l 313 57 l 115 518 q 86 590 97 572 q 82 593 83 593 q 17 571 71 593 l 4 710 q 15 732 4 718 q 50 753 25 747 q 96 761 78 761 q 211 728 178 761 q 274 619 247 689 l 404 294 l 579 744 l 772 744 z "},"δ":{"ha":861,"x_min":17,"x_max":769,"o":"m 578 374 q 560 474 578 431 q 500 546 542 517 q 390 575 461 575 q 299 549 338 575 q 236 479 257 524 q 211 372 211 432 q 382 167 211 167 q 500 196 457 167 q 560 271 542 224 q 578 374 578 321 m 288 721 l 67 867 l 67 1010 l 689 1010 l 689 851 l 388 851 l 544 746 q 654 661 618 694 q 769 372 769 550 q 729 165 769 247 q 599 36 690 78 q 382 -4 514 -4 q 114 90 215 -4 q 17 361 17 182 q 49 535 17 460 q 133 649 82 608 q 246 711 183 689 q 288 721 267 717 z "},"ε":{"ha":792,"x_min":19,"x_max":701,"o":"m 701 242 q 544 15 674 63 q 533 11 539 13 q 351 -14 463 -14 q 19 210 19 -14 q 92 361 19 307 q 110 372 100 367 q 19 536 19 428 q 239 751 19 718 q 351 760 289 758 l 364 760 q 647 654 574 760 q 701 503 688 597 l 525 503 q 469 582 517 563 q 347 603 424 603 q 203 528 206 603 q 275 450 211 464 q 346 443 301 443 l 444 443 l 444 301 l 346 301 q 219 264 246 301 q 203 217 207 247 q 347 143 206 143 q 469 164 424 143 q 525 242 517 183 l 701 242 z "},"ζ":{"ha":725,"x_min":49,"x_max":676,"o":"m 676 -46 q 608 -297 676 -131 l 436 -235 q 496 -76 496 -111 q 478 -32 496 -37 q 439 -29 468 -29 q 171 60 310 -29 q 49 310 49 138 q 143 657 49 499 q 311 856 215 776 l 71 856 l 71 1022 l 635 1022 l 635 886 q 325 600 429 772 q 246 332 246 471 q 297 203 246 247 q 433 149 357 156 q 536 135 510 140 q 624 92 592 124 q 676 -46 672 35 z "},"η":{"ha":814,"x_min":26,"x_max":761,"o":"m 271 678 l 279 692 q 317 719 286 703 q 389 747 347 736 q 478 760 433 760 q 619 732 558 760 q 718 647 682 706 q 758 514 754 592 q 760 443 760 504 l 760 -278 l 568 -226 l 568 438 q 556 533 568 503 q 453 589 531 589 q 296 394 296 589 l 296 -22 l 104 -22 l 104 569 q 106 579 104 575 q 108 586 108 586 l 58 575 l 26 733 q 151 761 104 761 q 244 719 208 761 q 271 678 261 701 z "},"θ":{"ha":814,"x_min":32,"x_max":749,"o":"m 749 496 q 608 42 749 150 q 588 28 599 33 q 392 -22 504 -22 q 124 96 207 -22 q 56 260 75 164 q 33 496 33 349 q 182 942 33 815 q 392 1011 263 1011 q 681 843 589 1011 q 715 758 701 804 q 749 496 749 650 m 554 583 q 515 779 550 699 q 392 853 482 853 q 275 788 313 853 q 229 583 233 719 l 554 583 m 554 424 l 229 424 q 297 174 235 243 q 392 139 331 139 q 539 282 508 139 q 554 424 550 333 z "},"ι":{"ha":481,"x_min":43,"x_max":419,"o":"m 419 19 q 250 -24 314 -24 q 100 32 161 -24 q 43 200 43 88 l 43 756 l 235 756 l 235 224 l 235 206 l 235 197 q 238 188 235 197 q 253 164 239 174 q 263 161 256 161 l 269 161 q 353 196 292 164 l 419 19 z "},"κ":{"ha":800,"x_min":58,"x_max":750,"o":"m 750 -11 l 517 -11 l 293 328 l 249 286 l 249 -11 l 60 -11 l 60 754 l 249 754 l 249 519 l 486 754 l 742 754 l 429 457 l 750 -11 z "},"λ":{"ha":861,"x_min":24,"x_max":814,"o":"m 393 464 l 224 -3 l 24 -3 l 300 715 l 294 732 q 247 828 272 804 q 228 842 239 835 q 192 847 217 847 q 131 839 179 847 q 119 836 125 838 l 82 832 l 103 1001 q 208 1026 169 1026 q 343 978 292 1026 l 371 950 q 446 813 413 901 l 474 739 l 676 199 l 693 164 q 701 157 700 157 q 768 186 713 157 l 814 31 q 665 -18 721 -18 q 544 67 574 -18 q 526 106 535 86 l 410 417 q 393 464 399 449 z "},"μ":{"ha":926,"x_min":72,"x_max":826,"o":"m 553 303 l 553 754 l 742 754 l 742 228 q 754 161 742 182 q 776 144 760 153 l 826 50 q 754 8 781 19 q 708 0 733 0 q 586 64 618 0 q 431 -12 528 -4 q 410 -12 419 -12 q 288 15 340 -12 q 264 31 285 17 l 264 -281 l 72 -281 l 72 754 l 264 754 l 264 303 q 353 154 264 204 q 414 142 372 142 q 504 174 465 142 q 553 286 550 213 q 553 303 553 294 z "},"ν":{"ha":783,"x_min":-31,"x_max":728,"o":"m 728 754 l 429 -35 l 268 -35 l -31 754 l 172 754 l 349 261 l 528 754 l 728 754 z "},"ξ":{"ha":736,"x_min":22,"x_max":690,"o":"m 689 -37 q 619 -290 689 -125 l 453 -229 q 508 -60 507 -89 q 510 -47 510 -58 q 504 -28 510 -29 q 414 -19 488 -19 l 386 -19 q 74 99 167 -19 q 24 269 24 164 q 78 436 33 382 q 110 469 90 453 q 189 524 144 499 q 144 560 164 536 q 88 710 88 618 q 125 838 88 781 q 139 854 125 838 l 54 854 l 54 1015 l 646 1015 l 646 854 l 378 854 q 289 793 324 854 l 283 778 q 264 710 264 747 q 367 601 264 632 q 460 593 390 593 l 610 593 l 610 439 l 421 439 q 238 361 297 439 q 211 281 211 329 q 238 206 211 233 q 311 158 269 169 q 403 143 360 143 q 610 117 558 143 q 654 78 638 101 q 689 -37 689 32 z "},"ο":{"ha":847,"x_min":13,"x_max":754,"o":"m 754 364 q 707 157 754 240 q 575 21 661 68 q 383 -25 489 -24 q 197 18 283 -25 q 63 150 111 63 q 13 364 13 238 q 117 651 13 554 q 383 749 222 749 q 650 651 544 749 q 754 364 754 554 m 560 364 q 547 461 560 417 q 510 533 536 500 q 456 575 490 561 q 383 589 425 589 q 311 575 342 589 q 257 533 276 561 q 221 461 232 500 q 207 364 207 413 q 257 193 207 247 q 383 138 303 138 q 510 193 461 138 q 560 364 560 247 z "},"π":{"ha":1001,"x_min":42,"x_max":894,"o":"m 786 132 q 851 176 790 132 l 894 14 q 751 -25 794 -25 q 604 69 632 -25 q 593 169 593 108 l 593 593 l 338 593 l 338 -18 l 140 -18 l 140 593 l 44 593 l 43 757 l 871 757 l 871 593 l 782 593 l 782 172 q 786 132 782 138 z "},"ρ":{"ha":869,"x_min":44,"x_max":786,"o":"m 786 385 q 750 192 786 261 q 685 96 717 126 q 588 26 654 64 q 413 -11 515 -11 q 278 15 340 -11 q 236 39 263 22 l 236 -282 l 44 -282 l 44 385 q 156 681 44 586 q 413 772 263 772 q 683 667 579 772 q 786 385 786 563 m 592 378 q 539 551 592 493 q 413 607 489 607 q 288 553 333 607 q 236 375 236 499 q 288 211 236 265 q 413 156 336 156 q 539 210 488 156 q 592 378 592 271 z "},"ς":{"ha":826,"x_min":7,"x_max":721,"o":"m 719 414 l 531 414 q 492 557 531 518 q 375 596 449 596 q 229 508 275 596 q 204 379 204 463 q 219 285 204 325 q 367 175 251 213 q 506 160 378 172 q 696 67 654 140 q 718 -32 718 28 q 703 -119 718 -71 q 640 -285 690 -157 l 451 -218 q 521 -39 489 -136 q 496 -33 521 -33 l 331 -17 q 294 -10 311 -14 q 160 64 238 6 q 49 197 96 108 q 7 382 7 272 q 57 592 7 506 q 333 768 149 746 q 386 771 358 771 q 624 685 529 771 q 719 414 719 596 z "},"σ":{"ha":939,"x_min":8,"x_max":860,"o":"m 858 585 l 699 585 q 758 375 758 490 q 626 64 758 171 q 383 -17 531 -17 q 63 153 161 -17 q 60 160 61 157 q 8 375 8 247 q 114 667 8 568 q 383 764 219 764 q 456 760 426 764 l 858 760 l 858 585 m 561 375 q 511 547 561 485 q 383 604 469 604 q 256 547 294 604 q 206 375 206 476 q 311 161 206 206 q 383 147 343 147 q 511 203 463 147 q 561 375 561 258 z "},"τ":{"ha":822,"x_min":13,"x_max":732,"o":"m 731 594 l 444 594 l 444 226 q 447 176 444 186 q 457 167 450 171 q 481 164 463 164 q 492 165 489 164 q 556 178 501 165 l 599 4 q 510 -12 521 -11 q 458 -17 479 -17 q 335 8 383 -17 q 267 81 283 35 q 251 133 257 99 q 247 217 247 158 l 247 594 l 13 594 l 13 754 l 731 754 l 731 594 z "},"υ":{"ha":799,"x_min":21,"x_max":699,"o":"m 699 294 q 686 165 699 211 q 647 76 675 119 q 553 10 626 51 q 364 -22 493 -22 q 165 10 225 -22 q 72 76 93 53 q 33 165 44 117 q 21 294 21 211 l 21 754 l 213 754 l 213 339 q 222 215 213 254 q 246 176 233 183 q 286 156 269 160 q 361 146 311 146 q 433 156 408 146 q 472 176 453 161 q 497 215 488 188 q 507 339 507 254 l 507 754 l 699 754 l 699 294 z "},"φ":{"ha":1113,"x_min":24,"x_max":1008,"o":"m 819 361 q 738 533 819 475 q 619 571 688 571 l 619 156 q 796 260 746 156 q 819 361 819 303 m 247 732 l 360 593 q 249 488 282 540 q 213 367 213 425 q 319 183 213 250 q 433 156 371 156 l 433 757 l 585 757 q 929 600 811 757 q 960 551 946 578 q 1007 360 1007 463 q 835 35 1007 150 q 631 -19 747 -19 l 621 -19 l 621 -272 l 426 -272 l 426 -19 l 431 -19 q 129 97 243 -19 q 26 317 42 181 q 24 361 24 339 q 133 642 24 519 q 247 732 172 688 z "},"χ":{"ha":878,"x_min":-32,"x_max":818,"o":"m 818 -250 q 715 -276 758 -276 l 706 -276 q 596 -235 647 -276 q 521 -142 554 -203 l 415 67 l 190 -261 l -31 -261 l 307 249 l 117 574 q 94 603 100 600 q 72 607 90 607 q 1 601 51 601 l 1 767 q 74 776 64 776 l 111 779 q 204 754 165 779 q 271 683 242 735 l 419 414 l 606 753 l 811 753 l 529 247 l 699 -68 q 718 -94 710 -86 q 739 -99 722 -99 q 756 -96 743 -99 q 818 -75 765 -96 l 818 -250 z "},"ψ":{"ha":1003,"x_min":24,"x_max":896,"o":"m 896 307 q 725 21 896 99 l 667 0 q 554 -17 615 -14 l 554 -285 l 365 -285 l 365 -17 q 57 151 135 -7 q 24 307 24 218 l 24 750 l 218 750 l 218 344 q 278 176 218 215 q 289 169 283 172 q 365 150 322 154 l 365 726 l 554 726 l 554 150 q 672 210 643 158 q 679 222 676 215 q 701 344 701 263 l 701 750 l 896 750 l 896 307 z "},"ω":{"ha":1111,"x_min":15,"x_max":1013,"o":"m 1013 343 q 869 24 1013 118 q 844 8 857 15 q 714 -21 789 -21 q 514 69 585 -21 q 314 -21 443 -21 q 88 89 171 -21 q 15 343 15 190 q 92 625 15 481 q 100 640 96 633 q 200 756 142 714 l 379 701 q 236 511 272 590 q 201 335 201 431 q 232 189 201 250 q 317 140 258 140 q 374 151 363 143 q 392 165 376 153 q 421 226 421 192 l 421 554 l 607 554 l 607 226 q 665 144 607 178 q 710 140 667 143 q 796 189 769 140 q 826 335 826 250 q 769 556 826 450 q 650 700 743 603 l 829 757 q 989 493 936 669 q 1013 343 1013 414 z "},"ϊ":{"ha":481,"x_min":-67,"x_max":419,"o":"m 86 1015 l 86 846 l -67 846 l -67 1015 l 86 1015 m 344 1015 l 344 846 l 192 846 l 192 1015 l 344 1015 m 419 19 q 250 -24 314 -24 q 100 32 161 -24 q 43 200 43 88 l 43 756 l 235 756 l 235 224 l 235 206 l 235 197 q 238 188 235 197 q 253 164 239 174 q 263 161 256 161 l 269 161 q 353 196 292 164 l 419 19 z "},"ϋ":{"ha":799,"x_min":21,"x_max":699,"o":"m 307 1015 l 307 846 l 154 846 l 154 1015 l 307 1015 m 565 1015 l 565 846 l 413 846 l 413 1015 l 565 1015 m 699 294 q 686 165 699 211 q 647 76 675 119 q 553 10 626 51 q 364 -22 493 -22 q 165 10 225 -22 q 72 76 93 53 q 33 165 44 117 q 21 294 21 211 l 21 754 l 213 754 l 213 339 q 222 215 213 254 q 246 176 233 183 q 286 156 269 160 q 361 146 311 146 q 433 156 408 146 q 472 176 453 161 q 497 215 488 188 q 507 339 507 254 l 507 754 l 699 754 l 699 294 z "},"ό":{"ha":832,"x_min":13,"x_max":754,"o":"m 478 1096 l 431 817 l 325 817 l 293 1096 l 478 1096 m 754 364 q 707 157 754 240 q 575 21 661 68 q 383 -25 489 -24 q 197 18 283 -25 q 63 150 111 63 q 13 364 13 238 q 117 651 13 554 q 383 749 222 749 q 650 651 544 749 q 754 364 754 554 m 560 364 q 547 461 560 417 q 510 533 536 500 q 456 575 490 561 q 383 589 425 589 q 311 575 342 589 q 257 533 276 561 q 221 461 232 500 q 207 364 207 413 q 257 193 207 247 q 383 138 303 138 q 510 193 461 138 q 560 364 560 247 z "},"ύ":{"ha":788,"x_min":21,"x_max":699,"o":"m 458 1113 l 411 833 l 306 833 l 274 1113 l 458 1113 m 699 294 q 686 165 699 211 q 647 76 675 119 q 553 10 626 51 q 364 -22 493 -22 q 165 10 225 -22 q 72 76 93 53 q 33 165 44 117 q 21 294 21 211 l 21 754 l 213 754 l 213 339 q 222 215 213 254 q 246 176 233 183 q 286 156 269 160 q 361 146 311 146 q 433 156 408 146 q 472 176 453 161 q 497 215 488 188 q 507 339 507 254 l 507 754 l 699 754 l 699 294 z "},"ώ":{"ha":1563,"x_min":15,"x_max":1013,"o":"m 617 1096 l 569 817 l 464 817 l 432 1096 l 617 1096 m 1013 343 q 869 24 1013 118 q 844 8 857 15 q 714 -21 789 -21 q 514 69 585 -21 q 314 -21 443 -21 q 88 89 171 -21 q 15 343 15 190 q 92 625 15 481 q 100 640 96 633 q 200 756 142 714 l 379 701 q 236 511 272 590 q 201 335 201 431 q 232 189 201 250 q 317 140 258 140 q 374 151 363 143 q 392 165 376 153 q 421 226 421 192 l 421 554 l 607 554 l 607 226 q 665 144 607 178 q 710 140 667 143 q 796 189 769 140 q 826 335 826 250 q 769 556 826 450 q 650 700 743 603 l 829 757 q 989 493 936 669 q 1013 343 1013 414 z "},"Ѐ":{"ha":926,"x_min":110,"x_max":867,"o":"m 340 1360 l 515 1360 l 613 1151 l 515 1151 l 340 1360 m 318 436 l 318 174 l 867 174 l 867 0 l 110 0 l 110 1013 l 842 1013 l 842 839 l 318 839 l 318 610 l 803 610 l 803 436 l 318 436 z "},"Ё":{"ha":985,"x_min":114,"x_max":871,"o":"m 322 436 l 322 174 l 871 174 l 871 0 l 114 0 l 114 1013 l 846 1013 l 846 839 l 322 839 l 322 610 l 807 610 l 807 436 l 322 436 m 431 1281 l 431 1111 l 278 1111 l 278 1281 l 431 1281 m 689 1281 l 689 1111 l 536 1111 l 536 1281 l 689 1281 z "},"Ђ":{"ha":1097,"x_min":19,"x_max":1053,"o":"m 489 700 l 750 700 q 982 610 890 700 q 1053 450 1053 540 l 1053 449 l 1053 0 q 1019 -128 1040 -93 q 928 -203 992 -176 q 776 -225 850 -221 q 747 -226 763 -225 l 650 -228 l 650 -97 l 733 -97 q 842 -22 825 -96 q 844 0 843 -12 l 844 440 q 768 522 844 507 l 733 526 l 490 526 l 490 0 l 281 0 l 281 840 l 19 840 l 19 1013 l 744 1013 l 744 840 l 489 840 l 489 700 z "},"Ѓ":{"ha":849,"x_min":103,"x_max":814,"o":"m 311 0 l 103 0 l 103 1013 l 814 1013 l 814 839 l 311 839 l 311 0 m 594 1360 l 419 1151 l 322 1151 l 419 1360 l 594 1360 z "},"Є":{"ha":1003,"x_min":61,"x_max":951,"o":"m 678 432 l 272 432 q 433 160 292 215 q 525 143 475 143 q 731 268 679 143 q 749 346 744 303 l 951 346 q 782 38 940 140 q 519 -32 674 -32 q 157 146 281 -32 q 61 497 61 285 q 228 928 61 786 q 525 1029 347 1029 q 869 882 749 1029 q 879 869 875 875 q 947 669 938 793 l 749 669 q 703 778 732 742 q 532 851 644 851 q 310 714 379 851 q 274 606 285 667 l 678 606 l 678 432 z "},"Ѕ":{"ha":926,"x_min":44,"x_max":879,"o":"m 843 704 l 649 704 q 475 861 639 844 q 436 863 457 863 q 274 789 311 863 l 263 758 q 261 738 261 749 q 319 644 261 674 q 453 606 361 624 l 611 575 q 861 410 813 536 q 879 296 879 361 q 708 17 879 100 q 464 -32 608 -32 q 76 165 165 -32 q 44 303 49 225 l 247 303 q 410 139 256 164 q 475 135 440 135 q 667 218 625 135 q 679 271 679 242 q 599 388 679 351 q 489 418 558 406 l 347 446 q 92 585 147 483 q 63 718 63 638 q 236 992 63 917 q 446 1029 324 1029 q 772 914 668 1029 q 843 704 843 835 z "},"І":{"ha":386,"x_min":88,"x_max":296,"o":"m 296 1013 l 296 0 l 88 0 l 88 1013 l 296 1013 z "},"Ї":{"ha":386,"x_min":-12,"x_max":399,"o":"m 140 1281 l 140 1111 l -12 1111 l -12 1281 l 140 1281 m 399 1281 l 399 1111 l 246 1111 l 246 1281 l 399 1281 m 296 1013 l 296 0 l 88 0 l 88 1013 l 296 1013 z "},"Ј":{"ha":772,"x_min":33,"x_max":675,"o":"m 467 1013 l 675 1013 l 675 264 q 510 -4 675 61 q 350 -32 442 -32 q 118 49 207 -32 q 33 250 39 122 q 33 275 33 263 l 33 375 l 242 375 l 242 278 q 317 150 242 167 q 354 146 333 146 q 465 243 456 146 q 467 264 467 253 l 467 1013 z "},"Љ":{"ha":1542,"x_min":64,"x_max":1478,"o":"m 704 0 l 704 839 l 396 839 l 396 575 q 190 25 396 119 q 64 0 135 0 l 64 201 l 92 206 q 167 333 146 225 q 188 639 188 432 l 188 640 l 188 1013 l 913 1013 l 913 604 l 1172 604 q 1426 471 1344 604 q 1478 268 1478 388 l 1478 267 q 1399 71 1478 129 l 1354 46 l 1288 19 q 1151 0 1228 0 l 704 0 m 913 431 l 913 174 l 1107 174 q 1231 185 1206 174 q 1268 254 1264 201 q 1269 278 1269 265 l 1269 279 q 1132 429 1269 419 l 1131 429 l 1129 431 l 1107 431 l 913 431 z "},"Њ":{"ha":1546,"x_min":94,"x_max":1478,"o":"m 913 1013 l 913 651 l 1172 651 q 1426 518 1344 651 q 1478 314 1478 433 q 1290 19 1478 82 q 1151 0 1229 0 l 704 0 l 704 432 l 303 432 l 303 0 l 94 0 l 94 1013 l 303 1013 l 303 606 l 703 606 l 703 1013 l 913 1013 m 913 478 l 913 174 l 1107 174 q 1268 301 1257 174 q 1269 326 1269 313 q 1132 476 1269 467 l 1107 478 l 913 478 z "},"Ћ":{"ha":1097,"x_min":19,"x_max":1053,"o":"m 489 700 l 750 700 q 982 610 890 700 q 1053 450 1053 540 l 1053 449 l 1053 0 l 844 0 l 844 440 q 768 522 844 507 l 733 526 l 490 526 l 490 0 l 281 0 l 281 840 l 19 840 l 19 1013 l 744 1013 l 744 840 l 489 840 l 489 700 z "},"Ќ":{"ha":1003,"x_min":103,"x_max":996,"o":"m 311 0 l 103 0 l 103 1013 l 311 1013 l 311 625 l 707 1013 l 953 1013 l 444 525 l 996 0 l 747 0 l 311 396 l 311 0 m 664 1290 l 489 1082 l 392 1082 l 489 1290 l 664 1290 z "},"Ѝ":{"ha":1008,"x_min":94,"x_max":918,"o":"m 303 0 l 94 0 l 94 1013 l 303 1013 l 303 324 l 704 1013 l 918 1013 l 918 0 l 710 0 l 710 700 l 303 0 m 369 1290 l 544 1290 l 642 1082 l 544 1082 l 369 1290 z "},"Ў":{"ha":997,"x_min":21,"x_max":967,"o":"m 456 0 l 214 0 l 372 314 l 21 1013 l 247 1013 l 486 533 l 725 1013 l 967 1013 l 456 0 m 678 1281 l 678 1265 q 599 1113 678 1167 q 494 1082 553 1082 q 342 1161 394 1082 q 311 1267 311 1208 l 311 1281 l 389 1281 q 496 1189 401 1189 q 599 1271 581 1189 q 600 1281 599 1275 l 678 1281 z "},"Џ":{"ha":1003,"x_min":94,"x_max":914,"o":"m 594 0 l 594 -208 l 414 -208 l 414 0 l 94 0 l 94 1013 l 303 1013 l 303 174 l 706 174 l 706 1013 l 914 1013 l 914 0 l 594 0 z "},"А":{"ha":1003,"x_min":36,"x_max":976,"o":"m 696 204 l 317 204 l 249 0 l 36 0 l 396 1013 l 626 1013 l 976 0 l 763 0 l 696 204 m 639 378 l 507 774 l 375 378 l 639 378 z "},"Б":{"ha":1003,"x_min":114,"x_max":925,"o":"m 549 643 q 885 464 790 643 q 925 308 925 388 q 864 118 925 206 q 825 74 846 92 q 569 0 738 0 l 114 0 l 114 1013 l 825 1013 l 825 839 l 322 839 l 322 643 l 549 643 m 322 469 l 322 174 l 571 174 q 715 261 682 174 q 725 321 725 289 q 640 457 725 424 q 571 469 610 469 l 322 469 z "},"В":{"ha":1003,"x_min":114,"x_max":925,"o":"m 114 0 l 114 1013 l 565 1013 q 804 939 718 1013 q 896 763 888 867 q 896 746 896 754 q 808 574 896 646 l 757 538 q 925 292 925 439 q 850 99 925 182 l 825 74 q 569 0 738 0 l 114 0 m 322 839 l 322 610 l 549 610 q 696 724 689 619 q 564 839 696 832 l 549 839 l 322 839 m 322 436 l 322 174 l 571 174 q 725 304 721 181 q 571 436 725 436 l 322 436 z "},"Г":{"ha":849,"x_min":114,"x_max":825,"o":"m 322 0 l 114 0 l 114 1013 l 825 1013 l 825 839 l 322 839 l 322 0 z "},"Д":{"ha":1250,"x_min":49,"x_max":1201,"o":"m 193 150 q 293 328 257 150 q 319 640 319 458 l 319 1013 l 1042 1013 l 1042 150 l 1201 150 l 1201 -208 l 1021 -208 l 1021 0 l 229 0 l 229 -208 l 49 -208 l 49 150 l 193 150 m 463 174 l 833 174 l 833 839 l 528 839 l 528 575 q 463 174 528 311 z "},"Е":{"ha":985,"x_min":114,"x_max":871,"o":"m 322 436 l 322 174 l 871 174 l 871 0 l 114 0 l 114 1013 l 846 1013 l 846 839 l 322 839 l 322 610 l 807 610 l 807 436 l 322 436 z "},"Ж":{"ha":1518,"x_min":31,"x_max":1497,"o":"m 660 396 l 286 0 l 31 0 l 526 525 l 92 1013 l 319 1013 l 660 625 l 660 1013 l 868 1013 l 868 625 l 1208 1013 l 1436 1013 l 1001 525 l 1497 0 l 1242 0 l 868 396 l 868 0 l 660 0 l 660 396 z "},"З":{"ha":933,"x_min":44,"x_max":879,"o":"m 347 594 l 453 594 q 644 738 644 594 q 553 850 644 821 q 469 863 517 863 q 260 724 282 863 l 257 704 l 63 704 q 133 914 63 835 q 460 1029 238 1029 q 806 874 717 1029 q 843 718 843 807 q 756 524 843 589 q 878 325 869 461 q 879 296 879 311 q 708 17 879 100 q 464 -32 608 -32 q 76 165 165 -32 q 44 303 49 225 l 247 303 q 410 139 256 164 q 475 135 440 135 q 667 218 625 135 q 679 271 679 242 q 569 418 679 386 q 515 426 544 425 q 489 428 503 428 l 347 428 l 347 594 z "},"И":{"ha":1051,"x_min":114,"x_max":938,"o":"m 322 0 l 114 0 l 114 1013 l 322 1013 l 322 324 l 724 1013 l 938 1013 l 938 0 l 729 0 l 729 700 l 322 0 z "},"Й":{"ha":1051,"x_min":114,"x_max":938,"o":"m 704 1288 l 704 1272 q 625 1119 704 1174 q 521 1089 579 1089 q 368 1168 421 1089 q 338 1274 338 1215 l 338 1288 l 415 1288 q 522 1196 428 1196 q 622 1271 601 1196 q 626 1288 625 1279 l 704 1288 m 322 0 l 114 0 l 114 1013 l 322 1013 l 322 324 l 724 1013 l 938 1013 l 938 0 l 729 0 l 729 700 l 322 0 z "},"К":{"ha":1042,"x_min":114,"x_max":1007,"o":"m 322 0 l 114 0 l 114 1013 l 322 1013 l 322 625 l 718 1013 l 964 1013 l 456 525 l 1007 0 l 729 0 l 322 396 l 322 0 z "},"Л":{"ha":1013,"x_min":50,"x_max":899,"o":"m 690 839 l 382 839 l 382 556 q 188 14 382 114 q 50 -17 128 -17 l 50 185 l 81 189 q 167 401 150 214 q 174 621 174 485 l 174 1013 l 899 1013 l 899 0 l 690 0 l 690 839 z "},"М":{"ha":1214,"x_min":114,"x_max":1100,"o":"m 322 789 l 322 0 l 114 0 l 114 1013 l 425 1013 l 608 207 l 786 1013 l 1100 1013 l 1100 0 l 892 0 l 892 789 l 713 0 l 504 0 l 322 789 z "},"Н":{"ha":1046,"x_min":114,"x_max":932,"o":"m 724 460 l 322 460 l 322 0 l 114 0 l 114 1013 l 322 1013 l 322 633 l 722 633 l 722 1013 l 932 1013 l 932 0 l 724 0 l 724 460 z "},"О":{"ha":1081,"x_min":56,"x_max":1031,"o":"m 542 1029 q 889 889 758 1029 q 1031 510 1025 743 q 1031 492 1031 501 q 932 163 1031 307 q 889 108 913 133 q 543 -32 758 -32 q 197 108 328 -32 q 57 451 72 242 q 56 499 56 475 q 178 867 56 717 q 197 889 188 878 q 542 1029 326 1029 m 543 851 q 317 721 393 851 l 292 668 q 264 499 264 593 q 378 203 264 299 q 543 146 447 146 q 767 274 689 146 q 822 493 822 364 q 701 800 822 707 q 543 851 635 851 z "},"П":{"ha":1046,"x_min":114,"x_max":932,"o":"m 724 839 l 322 839 l 322 0 l 114 0 l 114 1013 l 932 1013 l 932 0 l 724 0 l 724 839 z "},"Р":{"ha":932,"x_min":114,"x_max":888,"o":"m 322 361 l 322 0 l 114 0 l 114 1013 l 561 1013 q 869 825 807 1013 l 883 767 q 888 699 888 735 q 761 415 888 504 l 718 389 q 582 361 657 361 l 322 361 m 322 535 l 517 535 q 678 665 668 535 q 679 686 679 675 q 546 838 679 825 q 517 839 532 839 l 322 839 l 322 535 z "},"С":{"ha":1003,"x_min":61,"x_max":951,"o":"m 947 669 l 749 669 q 703 778 732 742 q 532 851 644 851 q 306 697 372 851 q 272 551 279 635 q 269 494 269 524 q 400 176 269 257 q 525 143 454 143 q 731 268 679 143 q 749 346 744 303 l 951 346 q 782 38 940 140 q 519 -32 674 -32 q 157 146 281 -32 q 61 497 61 285 q 228 928 61 786 q 525 1029 347 1029 q 869 882 749 1029 q 879 869 875 875 q 947 669 938 793 z "},"Т":{"ha":849,"x_min":19,"x_max":831,"o":"m 535 839 l 535 0 l 326 0 l 326 839 l 19 839 l 19 1013 l 831 1013 l 831 839 l 535 839 z "},"У":{"ha":997,"x_min":21,"x_max":967,"o":"m 456 0 l 214 0 l 372 314 l 21 1013 l 247 1013 l 486 533 l 725 1013 l 967 1013 l 456 0 z "},"Ф":{"ha":1239,"x_min":42,"x_max":1197,"o":"m 515 0 l 515 131 q 331 142 389 131 q 42 519 42 199 q 443 886 42 876 q 515 886 451 886 l 515 1013 l 724 1013 l 724 886 q 950 867 876 886 q 1185 633 1142 817 q 1197 519 1197 582 q 893 139 1197 190 q 724 131 842 131 l 724 0 l 515 0 m 515 261 l 515 750 q 340 724 397 750 q 228 514 228 672 q 417 263 228 283 q 515 261 435 261 m 724 261 q 856 268 822 261 q 1011 514 1011 303 q 767 750 1011 744 q 724 750 760 750 l 724 261 z "},"Х":{"ha":926,"x_min":31,"x_max":907,"o":"m 582 517 l 907 0 l 660 0 l 465 351 l 272 0 l 31 0 l 350 510 l 42 1013 l 289 1013 l 467 679 l 653 1013 l 894 1013 l 582 517 z "},"Ц":{"ha":1133,"x_min":114,"x_max":1085,"o":"m 724 174 l 724 1013 l 932 1013 l 932 150 l 1085 150 l 1085 -208 l 904 -208 l 904 0 l 114 0 l 114 1013 l 322 1013 l 322 174 l 724 174 z "},"Ч":{"ha":951,"x_min":94,"x_max":867,"o":"m 658 313 l 397 313 q 165 403 257 313 q 94 564 94 474 l 94 1013 l 303 1013 l 303 572 q 379 490 303 506 q 414 486 396 486 l 657 486 l 657 1013 l 867 1013 l 867 0 l 658 0 l 658 313 z "},"Ш":{"ha":1468,"x_min":94,"x_max":1343,"o":"m 1343 0 l 94 0 l 94 1013 l 303 1013 l 303 174 l 607 174 l 607 1013 l 815 1013 l 815 174 l 1135 174 l 1135 1013 l 1343 1013 l 1343 0 z "},"Щ":{"ha":1643,"x_min":94,"x_max":1524,"o":"m 1336 0 l 94 0 l 94 1013 l 303 1013 l 303 174 l 621 174 l 621 1013 l 829 1013 l 829 174 l 1149 174 l 1149 1013 l 1357 1013 l 1357 150 l 1524 150 l 1524 -208 l 1336 -208 l 1336 0 z "},"Ъ":{"ha":1289,"x_min":19,"x_max":1113,"o":"m 547 651 l 807 651 q 1061 518 979 651 q 1113 314 1113 433 q 925 19 1113 82 q 786 0 864 0 l 339 0 l 339 839 l 19 840 l 19 1013 l 547 1013 l 547 651 m 547 478 l 547 174 l 742 174 q 903 301 892 174 q 904 326 904 313 q 767 476 904 467 l 742 478 l 547 478 z "},"Ы":{"ha":1318,"x_min":94,"x_max":1228,"o":"m 1228 1013 l 1228 0 l 1019 0 l 1019 1013 l 1228 1013 m 303 651 l 563 651 q 817 518 735 651 q 868 314 868 433 q 678 19 868 81 q 542 0 618 0 l 94 0 l 94 1013 l 303 1013 l 303 651 m 303 478 l 303 174 l 497 174 q 658 301 647 174 q 660 326 660 313 q 522 476 660 467 q 497 478 510 478 l 303 478 z "},"Ь":{"ha":954,"x_min":106,"x_max":879,"o":"m 314 651 l 574 651 q 828 518 746 651 q 879 314 879 433 q 689 19 879 81 q 553 0 629 0 l 106 0 l 106 1013 l 314 1013 l 314 651 m 314 478 l 314 174 l 508 174 q 669 301 658 174 q 671 326 671 313 q 533 476 671 467 q 508 478 521 478 l 314 478 z "},"Э":{"ha":1003,"x_min":61,"x_max":951,"o":"m 335 432 l 335 606 l 739 606 q 578 833 708 781 q 481 851 533 851 q 310 778 368 851 q 264 669 281 742 l 65 669 q 133 869 75 792 q 468 1029 249 1022 q 488 1029 478 1029 q 857 847 732 1029 q 951 497 951 710 q 788 69 951 213 q 493 -32 669 -32 q 146 114 264 -32 q 61 346 68 208 l 264 346 q 404 156 278 196 q 488 143 442 143 q 714 307 653 143 q 740 432 733 363 l 335 432 z "},"Ю":{"ha":1540,"x_min":94,"x_max":1449,"o":"m 510 606 q 643 889 538 775 q 974 1029 772 1029 q 1279 917 1158 1029 q 1307 889 1293 904 q 1449 510 1443 743 q 1449 492 1449 501 q 1350 163 1449 307 q 1307 108 1331 133 q 1006 -31 1186 -22 l 975 -32 q 658 92 783 -32 q 643 108 651 100 q 506 432 525 235 l 303 432 l 303 0 l 94 0 l 94 1013 l 303 1013 l 303 606 l 510 606 m 975 851 q 749 703 818 851 q 710 499 710 618 q 828 193 710 282 q 975 146 890 146 q 1197 286 1128 146 q 1240 493 1240 372 q 1110 814 1240 729 q 975 851 1053 851 z "},"Я":{"ha":969,"x_min":31,"x_max":879,"o":"m 586 361 l 279 0 l 31 0 l 336 368 q 150 507 214 392 q 106 699 106 589 q 296 993 106 932 q 432 1013 356 1013 l 879 1013 l 879 0 l 671 0 l 671 361 l 586 361 m 671 535 l 671 839 l 476 839 q 315 711 326 839 q 314 686 314 700 q 451 536 314 546 q 476 535 464 535 l 671 535 z "},"а":{"ha":772,"x_min":39,"x_max":728,"o":"m 728 24 l 728 0 l 517 0 q 494 75 494 33 q 267 -32 392 -32 q 92 39 160 -32 q 39 193 39 96 q 260 429 39 392 l 338 443 q 453 468 432 458 q 460 472 454 469 q 493 531 493 490 q 381 606 493 606 q 260 561 286 606 l 247 528 l 243 503 l 56 503 q 376 763 74 763 q 683 532 683 763 l 683 115 q 719 32 683 68 q 728 24 724 28 m 493 301 l 493 354 q 411 331 467 342 l 344 318 q 238 249 253 299 l 233 215 q 301 129 233 147 q 339 125 318 125 q 486 240 460 125 q 493 301 493 268 z "},"б":{"ha":842,"x_min":69,"x_max":785,"o":"m 608 1078 l 753 1079 q 726 944 753 981 q 707 925 719 935 q 532 869 647 882 l 438 856 q 351 822 389 844 q 235 649 240 754 q 235 642 235 644 q 469 763 294 763 q 672 679 588 763 q 704 642 690 661 q 785 365 785 525 q 653 42 785 150 q 424 -32 561 -32 q 128 110 207 -32 q 69 406 69 213 q 239 926 69 788 q 272 950 254 939 q 486 1000 324 982 q 536 1006 521 1004 q 607 1071 594 1013 q 608 1078 608 1078 m 426 600 q 289 501 335 600 l 272 453 q 263 368 263 413 q 346 157 263 217 q 426 131 381 131 q 563 226 515 131 q 590 364 590 286 q 513 569 590 506 q 426 600 474 600 z "},"в":{"ha":794,"x_min":83,"x_max":719,"o":"m 83 0 l 83 750 l 453 750 q 631 696 568 750 q 699 553 694 633 q 643 425 699 476 q 596 397 622 406 q 711 275 683 371 q 719 215 719 246 q 657 64 719 125 l 646 54 q 457 0 582 0 l 83 0 m 278 597 l 278 463 l 408 463 q 504 494 489 463 q 511 528 511 507 q 460 593 511 582 l 408 597 l 278 597 m 278 310 l 278 153 l 417 153 q 524 207 510 153 q 526 236 526 219 q 479 304 526 293 q 417 310 458 310 l 278 310 z "},"г":{"ha":631,"x_min":83,"x_max":567,"o":"m 567 750 l 567 593 l 278 593 l 278 0 l 83 0 l 83 750 l 567 750 z "},"д":{"ha":951,"x_min":32,"x_max":919,"o":"m 806 140 l 919 140 l 919 -174 l 767 -174 l 767 0 l 185 0 l 185 -174 l 32 -174 l 32 140 l 118 140 q 214 351 186 142 q 225 539 225 439 l 225 750 l 806 750 l 806 140 m 365 157 l 611 157 l 611 593 l 419 593 l 419 522 q 365 157 419 279 z "},"е":{"ha":772,"x_min":31,"x_max":729,"o":"m 728 314 l 225 314 q 253 182 229 219 q 381 117 296 117 q 525 201 485 117 q 529 211 528 206 l 721 211 q 546 7 681 71 q 374 -32 468 -32 q 86 121 176 -32 q 31 356 31 217 q 175 701 31 596 q 378 763 258 763 q 649 638 551 763 q 696 554 678 600 q 700 544 699 549 q 729 347 729 460 q 728 314 729 331 m 228 443 l 526 443 q 496 551 521 513 q 375 614 451 614 q 228 443 247 614 z "},"ж":{"ha":1124,"x_min":22,"x_max":1094,"o":"m 461 275 l 271 0 l 22 0 l 318 411 l 72 750 l 278 750 l 461 488 l 461 750 l 656 750 l 656 488 l 839 750 l 1044 750 l 799 411 l 1094 0 l 846 0 l 656 275 l 656 0 l 461 0 l 461 275 z "},"з":{"ha":758,"x_min":40,"x_max":722,"o":"m 286 289 l 286 442 l 417 442 q 507 515 504 442 l 507 540 q 444 604 507 588 q 394 610 422 610 q 254 508 256 610 l 67 508 q 213 729 69 665 q 393 763 289 763 q 664 646 586 763 q 700 544 693 601 q 701 513 701 529 q 660 390 701 436 l 640 376 q 722 222 722 325 q 639 40 722 111 q 633 35 636 38 q 394 -32 550 -32 q 43 186 72 -32 q 40 218 40 201 l 231 218 q 268 147 242 168 q 383 121 308 121 q 525 179 508 121 q 528 194 528 186 q 493 272 528 253 l 461 285 q 414 289 442 289 l 286 289 z "},"и":{"ha":854,"x_min":83,"x_max":771,"o":"m 83 750 l 278 750 l 278 281 l 549 750 l 771 750 l 771 0 l 576 0 l 576 469 l 306 0 l 83 0 l 83 750 z "},"й":{"ha":854,"x_min":83,"x_max":771,"o":"m 83 750 l 278 750 l 278 281 l 549 750 l 771 750 l 771 0 l 576 0 l 576 469 l 306 0 l 83 0 l 83 750 m 611 1004 l 611 989 q 532 836 611 890 q 428 806 486 806 q 275 885 328 806 q 244 990 244 932 l 244 1004 l 322 1004 q 429 913 335 913 q 532 994 514 913 q 533 1004 532 999 l 611 1004 z "},"к":{"ha":796,"x_min":83,"x_max":763,"o":"m 278 488 l 503 750 l 708 750 l 411 411 l 763 0 l 510 0 l 278 275 l 278 0 l 83 0 l 83 750 l 278 750 l 278 488 z "},"л":{"ha":801,"x_min":40,"x_max":718,"o":"m 144 750 l 718 750 l 718 0 l 524 0 l 524 593 l 339 593 l 339 508 q 215 43 339 149 q 63 -14 156 -8 q 40 -14 51 -14 l 40 174 q 138 322 119 175 q 144 525 144 383 l 144 750 z "},"м":{"ha":925,"x_min":83,"x_max":842,"o":"m 513 0 l 413 0 l 278 413 l 278 0 l 83 0 l 83 750 l 326 750 l 463 296 l 599 750 l 842 750 l 842 0 l 647 0 l 647 413 l 513 0 z "},"н":{"ha":838,"x_min":83,"x_max":754,"o":"m 83 750 l 278 750 l 278 444 l 560 444 l 560 750 l 754 750 l 754 0 l 560 0 l 560 288 l 278 288 l 278 0 l 83 0 l 83 750 z "},"о":{"ha":849,"x_min":49,"x_max":790,"o":"m 418 763 q 740 589 647 763 q 790 360 790 494 q 647 36 790 140 q 419 -32 554 -32 q 107 128 203 -32 q 49 365 49 225 q 197 700 49 596 q 418 763 288 763 m 419 606 q 271 503 318 606 q 243 365 243 444 q 328 154 243 218 q 419 125 368 125 q 567 224 518 125 q 596 363 596 283 q 507 579 596 519 q 419 606 461 603 z "},"п":{"ha":838,"x_min":83,"x_max":754,"o":"m 83 750 l 754 750 l 754 0 l 560 0 l 560 593 l 278 593 l 278 0 l 83 0 l 83 750 z "},"р":{"ha":849,"x_min":83,"x_max":800,"o":"m 278 750 l 278 639 q 486 763 347 763 q 685 685 599 763 q 719 644 704 665 q 800 364 797 526 q 690 56 800 171 q 486 -33 604 -33 q 278 89 347 -33 l 278 -303 l 83 -303 l 83 750 l 278 750 m 442 600 q 304 500 349 600 q 278 364 278 442 q 358 157 278 217 q 442 129 396 129 q 578 225 532 129 q 606 361 606 283 q 524 574 606 513 q 442 600 488 600 z "},"с":{"ha":772,"x_min":47,"x_max":725,"o":"m 725 469 l 539 469 q 454 597 515 576 l 415 606 q 400 606 408 606 q 279 542 314 606 q 242 360 242 471 q 333 142 242 190 q 400 125 364 125 q 519 201 483 125 q 539 260 531 226 l 725 260 q 574 11 707 88 q 399 -32 497 -32 q 93 140 179 -32 q 47 360 47 232 q 213 717 47 619 q 401 763 292 763 q 678 626 593 763 q 717 525 704 581 q 725 469 722 499 z "},"т":{"ha":631,"x_min":29,"x_max":599,"o":"m 599 750 l 599 593 l 411 593 l 411 0 l 217 0 l 217 593 l 29 593 l 29 750 l 599 750 z "},"у":{"ha":772,"x_min":13,"x_max":747,"o":"m 547 750 l 747 750 l 439 -137 q 363 -262 404 -233 q 329 -281 349 -272 q 189 -304 272 -304 q 119 -299 158 -304 l 119 -153 q 171 -161 150 -161 q 275 -100 242 -161 q 292 -36 292 -71 l 292 -32 l 292 -31 l 13 750 l 226 750 l 392 204 l 547 750 z "},"ф":{"ha":1329,"x_min":39,"x_max":1278,"o":"m 561 89 q 353 -33 492 -33 q 118 93 208 -33 q 39 364 39 204 q 115 638 39 526 q 119 644 117 642 q 292 756 181 731 q 353 763 322 763 q 561 639 492 763 l 561 999 l 756 999 l 756 639 q 964 763 825 763 q 1163 685 1076 763 q 1197 644 1182 665 q 1278 364 1275 526 q 1168 56 1278 171 q 964 -33 1082 -33 q 756 89 825 -33 l 756 -303 l 561 -303 l 561 89 m 397 600 q 258 497 301 600 q 233 361 233 439 q 311 160 233 222 q 397 129 350 129 q 535 229 490 129 q 561 364 561 286 q 481 572 561 510 l 450 590 q 397 600 425 600 m 919 600 q 782 500 826 600 q 756 364 756 442 q 836 157 756 217 q 919 129 874 129 q 1056 225 1010 129 q 1083 361 1083 283 q 1001 574 1083 513 l 971 590 q 919 600 947 600 z "},"х":{"ha":772,"x_min":22,"x_max":743,"o":"m 493 378 l 743 0 l 510 0 l 383 233 l 256 0 l 22 0 l 272 378 l 28 750 l 261 750 l 383 524 l 504 750 l 738 750 l 493 378 z "},"ц":{"ha":906,"x_min":83,"x_max":874,"o":"m 83 0 l 83 750 l 278 750 l 278 157 l 560 157 l 560 750 l 754 750 l 754 140 l 874 140 l 874 -174 l 721 -174 l 721 0 l 83 0 z "},"ч":{"ha":803,"x_min":83,"x_max":719,"o":"m 83 750 l 278 750 l 278 453 q 318 389 278 399 q 358 386 332 386 l 525 386 l 525 750 l 719 750 l 719 0 l 525 0 l 525 229 l 361 229 q 96 368 146 229 q 83 451 83 406 l 83 750 z "},"ш":{"ha":1231,"x_min":83,"x_max":1147,"o":"m 1147 0 l 83 0 l 83 750 l 278 750 l 278 157 l 515 157 l 515 750 l 710 750 l 710 157 l 953 157 l 953 750 l 1147 750 l 1147 0 z "},"щ":{"ha":1344,"x_min":83,"x_max":1313,"o":"m 1160 0 l 83 0 l 83 750 l 278 750 l 278 157 l 515 157 l 515 750 l 710 750 l 710 157 l 951 157 l 951 750 l 1146 750 l 1146 140 l 1313 140 l 1313 -174 l 1160 -174 l 1160 0 z "},"ъ":{"ha":963,"x_min":28,"x_max":921,"o":"m 265 0 l 265 593 l 28 593 l 28 750 l 460 750 l 460 499 l 610 499 q 885 371 808 499 q 921 233 921 311 q 874 83 921 150 q 847 54 861 65 q 658 0 783 0 l 265 0 m 460 346 l 460 153 l 611 153 q 728 250 719 165 q 635 344 728 331 q 604 346 621 346 l 460 346 z "},"ы":{"ha":1126,"x_min":83,"x_max":997,"o":"m 428 499 q 703 371 626 499 q 739 233 739 311 q 692 83 739 150 q 665 54 679 65 q 476 0 601 0 l 83 0 l 83 750 l 278 750 l 278 499 l 428 499 m 278 346 l 278 153 l 429 153 q 546 250 538 165 q 453 344 546 331 q 422 346 439 346 l 278 346 m 997 750 l 997 0 l 803 0 l 803 750 l 997 750 z "},"ь":{"ha":781,"x_min":83,"x_max":739,"o":"m 428 499 q 703 371 626 499 q 739 233 739 311 q 692 83 739 150 q 665 54 679 65 q 476 0 601 0 l 83 0 l 83 750 l 278 750 l 278 499 l 428 499 m 278 346 l 278 153 l 429 153 q 546 250 538 165 q 453 344 546 331 q 422 346 439 346 l 278 346 z "},"э":{"ha":783,"x_min":47,"x_max":725,"o":"m 282 288 l 282 444 l 524 444 q 493 542 513 506 q 372 606 458 606 q 254 535 288 606 q 233 469 242 508 l 47 469 q 204 726 61 653 q 371 763 276 763 q 679 586 592 763 q 725 360 725 493 q 564 15 725 110 q 374 -32 485 -32 q 106 96 196 -32 q 47 260 57 164 l 233 260 q 326 131 261 151 q 372 125 346 125 q 513 239 475 125 q 525 288 521 261 l 282 288 z "},"ю":{"ha":1261,"x_min":83,"x_max":1128,"o":"m 419 288 l 278 288 l 278 0 l 83 0 l 83 750 l 278 750 l 278 444 l 419 444 q 633 740 451 676 q 769 763 694 763 q 1096 556 1018 763 q 1128 360 1128 472 q 976 24 1128 122 q 771 -32 892 -32 q 451 165 535 -32 q 419 288 428 219 m 771 606 q 624 482 663 606 q 608 365 608 432 q 700 143 608 196 q 771 125 731 125 q 915 242 876 125 q 933 363 933 294 q 833 593 933 546 q 771 606 806 606 z "},"я":{"ha":828,"x_min":35,"x_max":738,"o":"m 482 288 l 283 0 l 35 0 l 250 303 q 83 451 122 338 q 71 535 71 489 q 133 686 71 625 q 144 696 139 692 q 333 750 208 750 l 738 750 l 738 0 l 543 0 l 543 288 l 482 288 m 543 440 l 543 597 l 374 597 q 267 543 281 597 q 264 514 264 531 q 311 446 264 457 q 374 440 332 440 l 543 440 z "},"ѐ":{"ha":772,"x_min":31,"x_max":729,"o":"m 225 1097 l 400 1097 l 497 889 l 400 889 l 225 1097 m 728 314 l 225 314 q 253 182 229 219 q 381 117 296 117 q 525 201 485 117 q 529 211 528 206 l 721 211 q 546 7 681 71 q 374 -32 468 -32 q 86 121 176 -32 q 31 356 31 217 q 175 701 31 596 q 378 763 258 763 q 649 638 551 763 q 696 554 678 600 q 700 544 699 549 q 729 347 729 460 q 728 314 729 331 m 228 443 l 526 443 q 496 551 521 513 q 375 614 451 614 q 228 443 247 614 z "},"ё":{"ha":772,"x_min":31,"x_max":729,"o":"m 336 1032 l 336 863 l 183 863 l 183 1032 l 336 1032 m 594 1032 l 594 863 l 442 863 l 442 1032 l 594 1032 m 728 314 l 225 314 q 253 182 229 219 q 381 117 296 117 q 525 201 485 117 q 529 211 528 206 l 721 211 q 546 7 681 71 q 374 -32 468 -32 q 86 121 176 -32 q 31 356 31 217 q 175 701 31 596 q 378 763 258 763 q 649 638 551 763 q 696 554 678 600 q 700 544 699 549 q 729 347 729 460 q 728 314 729 331 m 228 443 l 526 443 q 496 551 521 513 q 375 614 451 614 q 228 443 247 614 z "},"ђ":{"ha":842,"x_min":31,"x_max":789,"o":"m 789 183 l 788 490 l 788 492 q 711 693 788 629 q 543 750 643 750 q 322 629 403 750 l 322 788 l 558 788 l 558 932 l 322 932 l 322 1013 l 128 1013 l 128 932 l 31 932 l 31 788 l 128 788 l 128 0 l 322 0 l 322 438 l 322 438 q 342 513 322 476 q 474 585 382 585 q 571 539 538 585 q 593 446 593 506 l 594 156 q 483 -96 589 1 q 372 -153 425 -151 l 372 -239 l 403 -239 q 600 -140 490 -228 q 786 154 763 -11 q 789 183 788 168 z "},"ѓ":{"ha":631,"x_min":83,"x_max":567,"o":"m 567 750 l 567 593 l 278 593 l 278 0 l 83 0 l 83 750 l 567 750 m 461 1097 l 286 889 l 189 889 l 286 1097 l 461 1097 z "},"є":{"ha":772,"x_min":47,"x_max":725,"o":"m 490 288 l 247 288 q 363 129 269 154 q 400 125 381 125 q 519 201 483 125 q 539 260 531 226 l 725 260 q 574 11 707 88 q 399 -32 497 -32 q 93 140 179 -32 q 47 360 47 232 q 213 717 47 619 q 401 763 292 763 q 678 626 593 763 q 717 525 704 581 q 725 469 722 499 l 539 469 q 454 597 515 576 l 415 606 q 400 606 408 606 q 279 542 314 606 q 249 444 260 506 l 490 444 l 490 288 z "},"ѕ":{"ha":772,"x_min":40,"x_max":722,"o":"m 701 508 l 514 508 q 374 610 513 610 q 265 561 285 610 l 261 540 q 294 494 261 510 q 329 482 307 489 l 575 411 q 722 222 722 368 q 639 40 722 111 q 633 35 636 38 q 394 -32 550 -32 q 43 186 72 -32 q 40 218 40 201 l 231 218 q 268 147 242 168 q 383 121 308 121 q 525 179 508 121 q 528 194 528 186 q 485 247 528 231 q 463 256 475 251 l 231 328 q 113 386 144 356 q 108 390 111 388 q 67 513 67 436 q 200 726 67 663 q 375 763 272 763 q 665 636 586 763 q 701 508 700 582 z "},"і":{"ha":386,"x_min":93,"x_max":288,"o":"m 288 750 l 288 0 l 93 0 l 93 750 l 288 750 m 288 1013 l 288 839 l 93 839 l 93 1013 l 288 1013 z "},"ї":{"ha":386,"x_min":-12,"x_max":399,"o":"m 140 1032 l 140 863 l -12 863 l -12 1032 l 140 1032 m 399 1032 l 399 863 l 246 863 l 246 1032 l 399 1032 m 288 750 l 288 0 l 93 0 l 93 750 l 288 750 z "},"ј":{"ha":386,"x_min":6,"x_max":292,"o":"m 292 750 l 292 -131 q 203 -292 292 -262 q 121 -303 169 -303 q 6 -296 71 -303 l 6 -140 q 40 -146 24 -146 q 96 -107 90 -146 q 97 -87 97 -99 l 97 750 l 292 750 m 292 1013 l 292 839 l 97 839 l 97 1013 l 292 1013 z "},"љ":{"ha":1250,"x_min":40,"x_max":1199,"o":"m 560 0 l 560 593 l 339 593 l 339 522 q 215 57 339 164 q 63 0 156 6 l 40 0 l 40 188 q 138 336 119 189 q 144 538 144 397 l 144 539 l 144 750 l 754 750 l 754 443 l 904 443 q 1179 315 1103 443 q 1197 247 1199 285 l 1197 206 l 1197 204 q 1164 94 1197 144 q 1153 79 1158 88 q 1126 50 1140 61 q 953 0 1068 0 l 560 0 m 754 290 l 754 153 l 906 153 q 1008 169 988 153 q 1026 210 1024 183 l 1026 222 q 985 279 1026 267 q 929 289 971 282 q 899 290 915 290 l 754 290 z "},"њ":{"ha":849,"x_min":88,"x_max":1203,"o":"m 758 750 l 758 443 l 908 443 q 1183 315 1107 443 q 1201 247 1203 285 l 1201 206 l 1201 204 q 1168 94 1201 144 q 1157 79 1163 88 q 1131 50 1144 61 q 957 0 1072 0 l 564 0 l 564 288 l 282 288 l 282 0 l 88 0 l 88 750 l 282 750 l 282 444 l 564 444 l 564 750 l 758 750 m 758 290 l 758 153 l 910 153 q 1013 169 992 153 q 1031 210 1028 183 l 1031 222 q 989 279 1031 267 q 933 289 975 282 q 903 290 919 290 l 758 290 z "},"ћ":{"ha":842,"x_min":31,"x_max":788,"o":"m 128 1013 l 322 1013 l 322 932 l 558 932 l 558 788 l 322 788 l 322 629 q 543 750 403 750 q 711 693 643 750 q 788 492 788 629 l 788 490 l 786 0 l 592 0 l 593 446 q 571 539 593 506 q 474 585 538 585 q 342 513 382 585 q 322 438 322 476 l 322 438 l 322 0 l 128 0 l 128 788 l 31 788 l 31 932 l 128 932 l 128 1013 z "},"ќ":{"ha":796,"x_min":82,"x_max":761,"o":"m 276 488 l 501 750 l 707 750 l 410 411 l 761 0 l 508 0 l 276 275 l 276 0 l 82 0 l 82 750 l 276 750 l 276 488 m 531 1097 l 356 889 l 258 889 l 356 1097 l 531 1097 z "},"ѝ":{"ha":844,"x_min":83,"x_max":754,"o":"m 83 750 l 278 750 l 278 274 l 539 750 l 754 750 l 754 0 l 560 0 l 560 476 l 299 0 l 83 0 l 83 750 m 283 1097 l 458 1097 l 556 889 l 458 889 l 283 1097 z "},"ў":{"ha":772,"x_min":13,"x_max":747,"o":"m 563 1088 l 563 1072 q 483 919 563 974 q 379 889 438 889 q 226 968 279 889 q 196 1074 196 1015 l 196 1088 l 274 1088 q 381 996 286 996 q 483 1078 465 996 q 485 1088 483 1082 l 563 1088 m 547 750 l 747 750 l 439 -137 q 363 -262 404 -233 q 329 -281 349 -272 q 189 -304 272 -304 q 119 -299 158 -304 l 119 -153 q 171 -161 150 -161 q 275 -100 242 -161 q 292 -36 292 -71 l 292 -32 l 292 -31 l 13 750 l 226 750 l 392 204 l 547 750 z "},"џ":{"ha":844,"x_min":83,"x_max":756,"o":"m 496 0 l 496 -174 l 343 -174 l 343 0 l 83 0 l 83 750 l 278 750 l 278 157 l 561 157 l 561 750 l 756 750 l 756 0 l 496 0 z "},"Ҍ":{"ha":954,"x_min":106,"x_max":879,"o":"m 314 651 l 574 651 q 828 518 746 651 q 879 314 879 433 q 689 19 879 81 q 553 0 629 0 l 106 0 l 106 1013 l 314 1013 l 314 651 m 314 478 l 314 174 l 508 174 q 669 301 658 174 q 671 326 671 313 q 533 476 671 467 q 508 478 521 478 l 314 478 z "},"ҍ":{"ha":781,"x_min":83,"x_max":750,"o":"m 439 463 q 740 285 693 463 q 750 215 749 253 q 688 64 750 125 l 676 54 q 488 0 613 0 l 83 0 l 83 750 l 278 750 l 278 463 l 439 463 m 278 310 l 278 153 l 447 153 q 554 207 540 153 q 557 236 557 219 q 510 304 557 293 q 447 310 489 310 l 278 310 z "},"Ҏ":{"ha":926,"x_min":106,"x_max":879,"o":"m 314 361 l 314 0 l 106 0 l 106 1013 l 553 1013 q 861 825 799 1013 l 875 767 q 879 699 879 735 q 753 415 879 504 l 710 389 q 574 361 649 361 l 314 361 m 314 535 l 508 535 q 669 665 660 535 q 671 686 671 675 q 538 838 671 825 q 508 839 524 839 l 314 839 l 314 535 z "},"ҏ":{"ha":849,"x_min":81,"x_max":797,"o":"m 275 750 l 275 639 q 483 763 344 763 q 682 685 596 763 q 717 644 701 665 q 797 364 794 526 q 688 56 797 171 q 483 -33 601 -33 q 275 89 344 -33 l 275 -303 l 81 -303 l 81 750 l 275 750 m 439 600 q 301 500 346 600 q 275 364 275 442 q 356 157 275 217 q 439 129 393 129 q 575 225 529 129 q 603 361 603 283 q 521 574 603 513 q 439 600 485 600 z "},"Ґ":{"ha":849,"x_min":103,"x_max":814,"o":"m 311 0 l 103 0 l 103 1013 l 606 1011 l 606 1200 l 814 1200 l 814 839 l 311 839 l 311 0 z "},"ґ":{"ha":631,"x_min":89,"x_max":572,"o":"m 572 925 l 572 593 l 283 593 l 283 0 l 89 0 l 89 750 l 394 750 l 394 925 l 572 925 z "},"Ғ":{"ha":849,"x_min":103,"x_max":814,"o":"m 311 0 l 103 0 l 103 1013 l 814 1013 l 814 839 l 311 839 l 311 0 z "},"ғ":{"ha":631,"x_min":83,"x_max":567,"o":"m 567 750 l 567 593 l 278 593 l 278 0 l 83 0 l 83 750 l 567 750 z "},"Ҕ":{"ha":849,"x_min":103,"x_max":814,"o":"m 311 0 l 103 0 l 103 1013 l 814 1013 l 814 839 l 311 839 l 311 0 z "},"ҕ":{"ha":631,"x_min":83,"x_max":567,"o":"m 567 750 l 567 593 l 278 593 l 278 0 l 83 0 l 83 750 l 567 750 z "},"Җ":{"ha":1518,"x_min":31,"x_max":1497,"o":"m 660 396 l 279 0 l 31 0 l 526 525 l 92 1013 l 319 1013 l 660 625 l 660 1013 l 868 1013 l 868 625 l 1208 1013 l 1436 1013 l 1001 525 l 1497 0 l 1249 0 l 868 396 l 868 0 l 660 0 l 660 396 z "},"җ":{"ha":1124,"x_min":22,"x_max":1094,"o":"m 461 275 l 271 0 l 22 0 l 318 411 l 72 750 l 278 750 l 461 488 l 461 750 l 656 750 l 656 488 l 839 750 l 1044 750 l 799 411 l 1094 0 l 846 0 l 656 275 l 656 0 l 461 0 l 461 275 z "},"Ҙ":{"ha":933,"x_min":44,"x_max":879,"o":"m 347 594 l 453 594 q 644 738 644 594 q 553 850 644 821 q 469 863 517 863 q 260 724 282 863 l 257 704 l 63 704 q 133 914 63 835 q 460 1029 238 1029 q 806 874 717 1029 q 843 718 843 807 q 756 524 843 589 q 878 325 869 461 q 879 296 879 311 q 708 17 879 100 q 464 -32 608 -32 q 76 165 165 -32 q 44 303 49 225 l 247 303 q 410 139 256 164 q 475 135 440 135 q 667 218 625 135 q 679 271 679 242 q 569 418 679 386 q 515 426 544 425 q 489 428 503 428 l 347 428 l 347 594 z "},"ҙ":{"ha":758,"x_min":40,"x_max":722,"o":"m 286 289 l 286 442 l 417 442 q 507 515 504 442 l 507 540 q 444 604 507 588 q 394 610 422 610 q 254 508 256 610 l 67 508 q 213 729 69 665 q 393 763 289 763 q 664 646 586 763 q 700 544 693 601 q 701 513 701 529 q 660 390 701 436 l 640 376 q 722 222 722 325 q 639 40 722 111 q 633 35 636 38 q 394 -32 550 -32 q 43 186 72 -32 q 40 218 40 201 l 231 218 q 268 147 242 168 q 383 121 308 121 q 525 179 508 121 q 528 194 528 186 q 493 272 528 253 l 461 285 q 414 289 442 289 l 286 289 z "}}}
